<?xml version="1.0" encoding="UTF-8"?>
<!DOCTYPE svg PUBLIC "-//W3C//DTD SVG 1.1//EN" "http://www.w3.org/Graphics/SVG/1.1/DTD/svg11.dtd">
<!-- Creator: CorelDRAW 2019 (64-Bit) -->
<svg xmlns="http://www.w3.org/2000/svg" xml:space="preserve" width="209.154mm" height="209.154mm" version="1.1" style="shape-rendering:geometricPrecision; text-rendering:geometricPrecision; image-rendering:optimizeQuality; fill-rule:evenodd; clip-rule:evenodd"
viewBox="0 0 20901.13 20901.16"
 xmlns:xlink="http://www.w3.org/1999/xlink"
 xmlns:xodm="http://www.corel.com/coreldraw/odm/2003">
 <defs>
  <style type="text/css">
   <![CDATA[
    .fil0 {fill:none}
    .fil4 {fill:#1F4460}
    .fil3 {fill:#225378}
    .fil2 {fill:#69876D}
    .fil1 {fill:#76977A}
    .fil6 {fill:#225378;fill-rule:nonzero}
    .fil5 {fill:#76977A;fill-rule:nonzero}
   ]]>
  </style>
 </defs>
 <g id="Livello_x0020_1">
  <metadata id="CorelCorpID_0Corel-Layer"/>
  <g id="_2519784671792">
   <polygon class="fil0" points="20889.61,20889.61 20889.61,0 -0,0 -0,20889.61 "/>
   <polygon class="fil0" points="20901.13,20901.16 20901.13,11.55 11.52,11.55 11.52,20901.16 "/>
   <path class="fil1" d="M5961.07 8945.43c148.27,148.27 148.27,388.67 0,536.93 -127.16,127.16 -322.07,145.25 -468.52,54.28 -17.65,-10.96 -32.58,-20.8 -50.83,-31.53 -532.85,-312.82 -1229.32,-240.65 -1686.6,216.64 -460,460 -530.28,1162.03 -211,1696.06 8.83,14.77 18.09,28.85 27.01,43.4 89.58,146.22 71.1,339.98 -55.49,466.56 -148.27,148.27 -388.67,148.27 -536.93,0 -37.03,-37.02 -55.23,-68.65 -82.49,-113.88 -498.36,-826.45 -391.05,-1915.86 322.07,-2628.99 713.57,-713.57 1803.88,-820.42 2630.52,-320.95 43.45,26.26 76.01,45.22 112.26,81.46z"/>
   <path class="fil2" d="M2761.67 9858.67c104.69,-244.73 256.87,-474.01 456.62,-673.75 199.73,-199.74 429.01,-351.91 673.74,-456.57 15.5,293.76 -88.89,592.66 -313.28,817.04 -224.39,224.4 -523.31,328.79 -817.08,313.28z"/>
   <path class="fil3" d="M6210.56 9138.57c16.14,15.19 32.17,30.57 47.94,46.35 839.54,839.54 839.54,2200.69 0,3040.23 -839.54,839.54 -2200.67,839.54 -3040.21,0 -15.74,-15.74 -31.09,-31.73 -46.24,-47.83 157.73,22.75 323.86,-26.54 445.22,-147.9 91.42,-91.43 141.9,-208.26 151.54,-327.78 544.06,529.59 1414.33,525.2 1952.86,-13.34 538.51,-538.5 542.93,-1408.7 13.43,-1952.77 119.46,-9.66 236.21,-60.16 327.59,-151.54 121.41,-121.41 170.7,-287.62 147.88,-445.43z"/>
   <path class="fil4" d="M4604.56 12089.03c399.05,38.4 811.49,-95.11 1117.1,-400.73 305.62,-305.61 439.13,-718.05 400.73,-1117.1 378.87,422.02 365.42,1071.6 -40.4,1477.42 -405.82,405.82 -1055.4,419.27 -1477.42,40.4z"/>
   <path class="fil1" d="M2304.35 8270.99c284.07,-284.07 744.63,-284.07 1028.7,0 284.07,284.07 284.07,744.63 0,1028.7 -284.07,284.07 -744.63,284.07 -1028.7,0 -284.07,-284.07 -284.07,-744.63 0,-1028.7z"/>
   <path class="fil3" d="M4807.58 10774.22c284.07,-284.07 744.62,-284.07 1028.7,0 284.07,284.07 284.07,744.63 0,1028.7 -284.08,284.07 -744.63,284.07 -1028.7,0 -284.07,-284.07 -284.07,-744.63 0,-1028.7z"/>
   <path class="fil5" d="M7812.09 10535.55c-33.18,0 -60.71,-10.93 -82.56,-32.81 -21.88,-21.88 -32.81,-49.4 -32.81,-82.57l0 -1006.7c0,-34.69 10.93,-62.6 32.81,-83.71 21.86,-21.12 49.39,-31.67 82.56,-31.67 34.69,0 62.59,10.55 83.69,31.67 21.13,21.12 31.68,49.03 31.68,83.71l0 1006.7c0,33.18 -10.55,60.7 -31.68,82.57 -21.11,21.88 -49.01,32.81 -83.69,32.81zm0 -1438.81c-40.73,0 -75.78,-14.71 -105.19,-44.12 -29.41,-29.4 -44.11,-64.48 -44.11,-105.2 0,-40.71 14.7,-75.78 44.11,-105.19 29.41,-29.41 64.46,-44.12 105.19,-44.12 40.72,0 75.78,14.71 105.19,44.12 29.41,29.41 44.11,64.48 44.11,105.19 0,40.72 -14.7,75.8 -44.11,105.2 -29.41,29.41 -64.47,44.12 -105.19,44.12zm1160.54 190.03c104.07,0 197.58,22.62 280.53,67.86 82.94,45.25 147.79,111.22 194.56,197.96 46.75,86.72 70.12,191.16 70.12,313.33l0 556.51c0,33.18 -10.94,60.71 -32.8,82.58 -21.88,21.87 -49.41,32.8 -82.58,32.8 -33.18,0 -60.7,-10.93 -82.56,-32.8 -21.88,-21.88 -32.8,-49.41 -32.8,-82.58l0 -556.51c0,-122.17 -32.81,-214.54 -98.42,-277.13 -65.61,-62.6 -152.7,-93.89 -261.29,-93.89 -63.35,0 -121.04,12.82 -173.06,38.46 -52.03,25.63 -92.75,60.32 -122.17,104.06 -29.41,43.74 -44.1,92.76 -44.1,147.04l0 637.97c0,33.18 -10.57,60.71 -31.68,82.58 -21.12,21.87 -49.02,32.8 -83.7,32.8 -33.19,0 -60.71,-10.93 -82.58,-32.8 -21.86,-21.88 -32.8,-49.41 -32.8,-82.58l0 -1008.96c0,-34.69 10.94,-62.6 32.8,-83.71 21.88,-21.12 49.4,-31.67 82.58,-31.67 34.69,0 62.59,10.55 83.7,31.67 21.11,21.12 31.68,49.03 31.68,83.71l0 24.88c48.25,-48.27 105.57,-85.59 171.92,-111.98 66.35,-26.4 137.24,-39.59 212.66,-39.59z"/>
   <path class="fil5" d="M7812.09 10581.4c-22.09,0 -42.91,-3.88 -62.36,-11.6 -19.9,-7.9 -37.45,-19.48 -52.62,-34.64 -15.18,-15.18 -26.74,-32.76 -34.63,-52.63 -7.73,-19.46 -11.61,-40.28 -11.61,-62.36l0 -1006.7c0,-22.98 3.81,-44.19 11.42,-63.61 7.86,-20.11 19.73,-37.82 35.54,-53.06 15.43,-14.89 32.93,-26.13 52.43,-33.61 19.02,-7.3 39.65,-10.96 61.83,-10.96 22.71,0 43.77,3.67 63.06,10.96 20.28,7.66 37.97,19.08 53.05,34.16 15.07,15.07 26.48,32.77 34.16,53.06 7.29,19.28 10.95,40.33 10.95,63.06l0 1006.7c0,22.15 -3.67,42.78 -10.95,61.82 -7.47,19.5 -18.71,37 -33.62,52.45 -15.24,15.79 -32.96,27.66 -53.04,35.54 -19.42,7.61 -40.63,11.42 -63.61,11.42zm-28.7 -96.49c8.03,3.2 17.63,4.8 28.7,4.8 11.71,0 21.84,-1.67 30.28,-4.99 7.77,-3.04 14.61,-7.61 20.46,-13.67 6.19,-6.41 10.84,-13.64 13.91,-21.65 3.24,-8.46 4.87,-18.24 4.87,-29.23l0 -1006.7c0,-11.96 -1.63,-22.25 -4.87,-30.83 -2.88,-7.61 -7.34,-14.45 -13.36,-20.48 -6.01,-6 -12.85,-10.48 -20.46,-13.35 -8.57,-3.24 -18.87,-4.88 -30.83,-4.88 -10.99,0 -20.77,1.62 -29.23,4.88 -8,3.06 -15.24,7.72 -21.64,13.9 -6.06,5.84 -10.63,12.7 -13.67,20.47 -3.32,8.45 -4.98,18.58 -4.98,30.29l0 1006.7c0,11.07 1.6,20.67 4.79,28.69 3.02,7.63 7.9,14.81 14.57,21.48 6.69,6.68 13.86,11.55 21.46,14.57zm28.7 -1342.31c-26.47,0 -51.34,-4.89 -74.57,-14.62 -23.08,-9.68 -44.11,-24.01 -63.04,-42.94 -18.81,-18.81 -33.12,-39.83 -42.86,-63.06 -9.79,-23.19 -14.68,-48.07 -14.68,-74.55 0,-26.35 4.89,-51.17 14.6,-74.39l0 -0.17c9.56,-22.81 23.9,-43.79 42.94,-62.87l0.17 -0.17c19.08,-19.05 40.04,-33.38 62.87,-42.94 23.22,-9.73 48.1,-14.62 74.57,-14.62 26.46,0 51.34,4.89 74.56,14.62 23.06,9.66 44.1,23.98 63.05,42.94 18.92,18.92 33.26,39.96 42.94,63.04l0 0.17c9.72,23.22 14.61,48.04 14.61,74.39 0,26.48 -4.89,51.35 -14.63,74.58 -9.8,23.19 -24.11,44.22 -42.92,63.03l-0.17 0c-19.03,19.02 -39.99,33.35 -62.88,42.94 -23.22,9.73 -48.1,14.62 -74.56,14.62zm-39.12 -99.14c11.83,4.95 24.88,7.44 39.12,7.44 14.23,0 27.28,-2.5 39.1,-7.44 12.13,-5.1 23.41,-12.84 33.76,-23.16 10.44,-10.6 18.22,-21.8 23.14,-33.57l0 -0.17c4.95,-11.82 7.44,-24.87 7.44,-39.12 0,-14.3 -2.47,-27.35 -7.36,-39.12 -5.09,-11.95 -12.85,-23.2 -23.3,-33.65 -10.46,-10.46 -21.71,-18.23 -33.68,-23.24 -11.82,-4.95 -24.87,-7.44 -39.1,-7.44 -14.24,0 -27.29,2.5 -39.12,7.44 -12.14,5.1 -23.38,12.8 -33.66,23.07l-0.17 0.17c-10.26,10.25 -17.97,21.52 -23.06,33.67 -4.97,11.75 -7.43,24.8 -7.43,39.1 0,14.25 2.5,27.3 7.44,39.12l0 0.17c4.93,11.77 12.7,22.96 23.22,33.49 10.45,10.45 21.7,18.23 33.66,23.24zm1199.66 197.48c55.25,0 108.25,6.14 158.92,18.41 50.6,12.22 98.42,30.64 143.45,55.19 90.98,49.62 162,121.76 213.01,216.38 25.23,46.84 44.22,98.6 56.89,155.2 12.5,55.92 18.78,115.87 18.78,179.81l0 556.51c0,22.08 -3.9,42.9 -11.6,62.36 -7.82,19.69 -19.39,37.19 -34.64,52.46l-0.17 0.17c-15.27,15.25 -32.78,26.81 -52.46,34.64 -19.46,7.73 -40.27,11.6 -62.36,11.6 -22.09,0 -42.91,-3.87 -62.36,-11.6 -19.9,-7.9 -37.45,-19.47 -52.61,-34.64 -15.18,-15.18 -26.75,-32.75 -34.64,-52.63 -7.73,-19.46 -11.61,-40.27 -11.61,-62.36l0 -556.51c0,-55.98 -7.32,-104.56 -21.91,-145.69 -13.95,-39.3 -34.72,-72.09 -62.19,-98.3 -28.24,-26.94 -61.06,-47.15 -98.39,-60.57 -38.24,-13.73 -82.03,-20.61 -131.37,-20.61 -28.84,0 -55.83,2.81 -80.91,8.36 -25.07,5.57 -49.05,14 -71.91,25.27 -22.61,11.13 -42.65,24.13 -60.07,38.97l-0.18 0c-16.99,14.46 -31.74,30.98 -44.17,49.5 -12.05,17.94 -21.14,37.03 -27.18,57.2 -6.03,20.11 -9.05,41.6 -9.05,64.41l0 637.97c0,21.83 -3.71,42.45 -11.12,61.76l0.15 0.07c-7.47,19.49 -18.69,36.99 -33.6,52.44 -15.27,15.8 -32.97,27.66 -53.06,35.54 -19.44,7.61 -40.65,11.42 -63.6,11.42 -22.11,0 -42.9,-3.87 -62.36,-11.6 -19.88,-7.9 -37.45,-19.46 -52.63,-34.64l0 -0.17c-15.25,-15.27 -26.81,-32.78 -34.64,-52.46 -7.73,-19.46 -11.61,-40.27 -11.61,-62.36l0 -1008.96c0,-22.98 3.81,-44.19 11.43,-63.61 7.87,-20.11 19.74,-37.82 35.53,-53.06 15.44,-14.92 32.96,-26.13 52.45,-33.61 19.04,-7.3 39.65,-10.96 61.83,-10.96 22.71,0 43.74,3.67 63.06,10.96 20.26,7.65 37.95,19.05 53.06,34.16 14.83,14.82 26.08,32.19 33.74,52 6.49,-4.64 13.07,-9.14 19.78,-13.51 31.05,-20.22 64.69,-37.53 100.84,-51.92 36.03,-14.33 73.22,-25.07 111.52,-32.21 38.64,-7.17 77.98,-10.78 117.96,-10.78zm137.43 107.25c-42.8,-10.36 -88.64,-15.55 -137.43,-15.55 -35.43,0 -69.26,3.02 -101.48,8.99 -32.56,6.06 -64.04,15.13 -94.35,27.19 -30.16,12.01 -58.43,26.58 -84.69,43.68 -25.9,16.87 -49.81,36.27 -71.65,58.11l-78.27 78.32 0 -135.45c0,-11.93 -1.64,-22.24 -4.89,-30.83 -2.87,-7.61 -7.33,-14.47 -13.34,-20.48 -6.02,-6.02 -12.87,-10.48 -20.48,-13.35 -8.57,-3.24 -18.87,-4.88 -30.82,-4.88 -11,0 -20.78,1.64 -29.23,4.88 -8,3.06 -15.25,7.71 -21.66,13.9 -6.06,5.85 -10.63,12.7 -13.67,20.47 -3.32,8.45 -4.98,18.58 -4.98,30.29l0 1008.96c0,11.07 1.6,20.67 4.8,28.7 3.09,7.76 7.92,14.97 14.49,21.55 6.76,6.61 13.93,11.46 21.55,14.49 8.03,3.2 17.63,4.8 28.7,4.8 11.7,0 21.82,-1.67 30.28,-4.98 7.78,-3.06 14.62,-7.63 20.47,-13.67 6.18,-6.42 10.82,-13.64 13.89,-21.66l0.19 0c3.13,-8.15 4.7,-17.91 4.7,-29.23l0 -637.97c0,-31.46 4.35,-61.67 13.01,-90.56 8.63,-28.81 21.64,-56.12 38.97,-81.91 16.93,-25.17 37.23,-47.88 60.92,-68.04 23.22,-19.94 49.61,-37.13 78.99,-51.59 29.17,-14.38 60.07,-25.2 92.68,-32.44 32.56,-7.23 66.12,-10.87 100.62,-10.87 59.26,0 113.32,8.79 162.17,26.33 49.75,17.87 93.31,44.65 130.65,80.27 38.1,36.36 66.61,81.08 85.45,134.15 18.18,51.22 27.29,109.96 27.29,176.13l0 556.51c0,11.07 1.6,20.67 4.8,28.7 3.01,7.62 7.89,14.8 14.57,21.47 6.68,6.69 13.85,11.55 21.46,14.57 8.02,3.2 17.62,4.8 28.69,4.8 11.07,0 20.67,-1.6 28.7,-4.8 7.77,-3.1 14.97,-7.92 21.55,-14.49 6.57,-6.58 11.4,-13.78 14.49,-21.55 3.19,-8.03 4.8,-17.63 4.8,-28.7l0 -556.51c0,-58.23 -5.45,-111.61 -16.29,-160.1 -10.7,-47.82 -26.82,-91.71 -48.29,-131.55 -42.49,-78.8 -101.2,-138.66 -176.1,-179.51 -37.92,-20.68 -78.36,-36.22 -121.26,-46.59z"/>
   <path class="fil6" d="M10737.91 10558.17c-161.38,0 -308.81,-39.97 -442.28,-119.91 -133.47,-79.94 -238.67,-189.27 -315.58,-328.03 -76.92,-138.76 -115.37,-291.84 -115.37,-459.25 0,-165.9 38.45,-317.85 115.37,-455.84 76.92,-138 182.12,-247.35 315.58,-328.03 133.47,-80.69 280.9,-121.04 442.28,-121.04 114.62,0 213.78,15.08 297.49,45.24 83.7,30.16 168.55,79.94 254.51,149.32 18.1,13.56 30.16,27.52 36.2,41.84 6.04,14.34 9.05,31.3 9.05,50.91 0,30.17 -10.94,55.05 -32.8,74.66 -21.88,19.61 -47.14,29.41 -75.8,29.41 -28.66,0 -55.04,-9.8 -79.18,-29.41 -61.84,-52.78 -122.17,-90.88 -180.99,-114.24 -58.82,-23.38 -134.98,-35.07 -228.48,-35.07 -117.64,0 -225.85,30.91 -324.64,92.75 -98.78,61.84 -177.21,145.92 -235.28,252.24 -58.06,106.34 -87.09,222.09 -87.09,347.26 0,126.69 29.03,242.82 87.09,348.39 58.07,105.57 136.5,189.28 235.28,251.12 98.79,61.83 207,92.75 324.64,92.75 144.78,0 283.54,-49.78 416.26,-149.31 25.64,-18.1 50.53,-27.15 74.65,-27.15 28.66,0 52.41,10.19 71.27,30.54 18.85,20.37 28.27,47.14 28.27,80.32 0,31.68 -12.06,59.58 -36.2,83.71 -162.88,131.21 -347.64,196.82 -554.25,196.82zm1963.65 -660.59c0,28.66 -9.8,52.41 -29.42,71.26 -19.6,18.86 -44.48,28.28 -74.65,28.28l-859.66 0c16.6,105.57 64.48,190.78 143.66,255.64 79.18,64.85 176.07,97.27 290.7,97.27 45.24,0 92.38,-8.29 141.38,-24.88 49.03,-16.59 89.37,-36.95 121.04,-61.09 21.12,-16.58 45.99,-24.87 74.65,-24.87 28.66,0 51.29,7.53 67.86,22.61 27.15,22.62 40.73,48.27 40.73,76.93 0,27.15 -12.07,49.76 -36.21,67.86 -51.28,40.72 -114.99,73.9 -191.16,99.54 -76.16,25.64 -148.93,38.45 -218.3,38.45 -123.68,0 -234.53,-26.77 -332.56,-80.31 -98.03,-53.54 -174.56,-127.82 -229.61,-222.84 -55.05,-95.02 -82.58,-202.85 -82.58,-323.5 0,-120.66 26.02,-228.87 78.06,-324.65 52.02,-95.76 124.43,-170.42 217.18,-223.97 92.76,-53.52 197.95,-80.3 315.58,-80.3 116.12,0 216.41,25.63 300.88,76.91 84.46,51.29 149.31,122.92 194.55,214.92 45.26,92 67.87,197.57 67.87,316.71zm-563.31 -414c-110.1,0 -199.46,30.17 -268.09,90.5 -68.61,60.33 -111.97,141 -130.08,242.05l753.35 0c-13.58,-101.05 -51.29,-181.73 -113.12,-242.05 -61.83,-60.33 -142.51,-90.5 -242.05,-90.5zm1463.68 -199.07c79.95,0 142.53,12.06 187.77,36.2 45.25,24.13 67.86,54.29 67.86,90.49 0,10.55 -0.75,18.1 -2.26,22.61 -13.57,48.27 -43.73,72.4 -90.48,72.4 -7.55,0 -18.86,-1.5 -33.95,-4.52 -60.32,-10.57 -109.34,-15.85 -147.04,-15.85 -108.6,0 -196.07,24.89 -262.42,74.66 -66.36,49.78 -99.55,116.88 -99.55,201.35l0 660.57c0,36.21 -9.42,64.1 -28.27,83.71 -18.86,19.61 -47.14,29.41 -84.83,29.41 -36.2,0 -64.11,-9.42 -83.71,-28.28 -19.6,-18.85 -29.41,-47.13 -29.41,-84.84l0 -1011.23c0,-36.2 9.81,-64.1 29.41,-83.7 19.61,-19.62 47.52,-29.41 83.71,-29.41 75.4,0 113.1,37.69 113.1,113.11l0 42.98c45.25,-52.79 101.06,-94.26 167.42,-124.43 66.36,-30.16 137.25,-45.24 212.65,-45.24zm963.74 1260.08c-119.15,0 -226.23,-27.15 -321.24,-81.43 -95.02,-54.3 -169.29,-129.33 -222.84,-225.1 -53.54,-95.77 -80.32,-202.48 -80.32,-320.11 0,-120.66 26.02,-228.87 78.06,-324.65 52.02,-95.76 124.8,-170.42 218.31,-223.97 93.51,-53.52 199.07,-80.3 316.71,-80.3 177.96,0 325.77,67.86 443.41,203.59 15.08,16.6 22.61,36.2 22.61,58.82 0,33.19 -16.58,61.09 -49.76,83.71 -15.09,10.55 -32.43,15.83 -52.04,15.83 -34.69,0 -64.1,-13.57 -88.23,-40.71 -37.7,-40.72 -78.8,-70.51 -123.3,-89.37 -44.49,-18.84 -95.39,-28.28 -152.7,-28.28 -116.13,0 -210.4,38.83 -282.79,116.51 -72.4,77.67 -108.6,180.62 -108.6,308.81 0,81.43 16.98,154.2 50.91,218.3 33.94,64.1 81.45,114.25 142.52,150.44 61.08,36.2 130.84,54.3 209.27,54.3 102.55,0 185.5,-26.39 248.85,-79.19 28.66,-21.11 56.56,-31.67 83.69,-31.67 21.13,0 40.73,6.8 58.82,20.37 28.66,24.13 43,51.28 43,81.44 0,22.61 -9.06,42.98 -27.15,61.08 -108.6,101.05 -244.33,151.57 -407.21,151.57zm1413.93 -1257.82c104.06,0 197.58,22.62 280.53,67.86 82.94,45.25 147.79,111.22 194.56,197.96 46.74,86.72 70.12,191.16 70.12,313.33l0 556.51c0,33.18 -10.94,60.71 -32.8,82.58 -21.88,21.87 -49.41,32.8 -82.58,32.8 -33.18,0 -60.71,-10.93 -82.56,-32.8 -21.88,-21.88 -32.81,-49.41 -32.81,-82.58l0 -556.51c0,-122.17 -32.8,-214.54 -98.41,-277.13 -65.61,-62.6 -152.7,-93.89 -261.29,-93.89 -63.35,0 -121.04,12.82 -173.06,38.46 -52.03,25.63 -92.76,60.32 -122.17,104.06 -29.41,43.74 -44.11,92.76 -44.11,147.04l0 637.97c0,33.18 -10.56,60.71 -31.67,82.58 -21.12,21.87 -49.02,32.8 -83.71,32.8 -33.18,0 -60.7,-10.93 -82.57,-32.8 -21.86,-21.88 -32.81,-49.41 -32.81,-82.58l0 -1538.34c0,-34.69 10.95,-62.6 32.81,-83.7 21.88,-21.12 49.4,-31.67 82.57,-31.67 34.7,0 62.6,10.55 83.71,31.67 21.11,21.11 31.67,49.02 31.67,83.7l0 554.26c48.26,-48.27 105.58,-85.59 171.93,-111.98 66.35,-26.4 137.24,-39.59 212.66,-39.59zm1067.79 1248.78c-33.18,0 -60.71,-10.93 -82.58,-32.81 -21.87,-21.88 -32.8,-49.4 -32.8,-82.57l0 -1006.7c0,-34.69 10.93,-62.6 32.8,-83.71 21.88,-21.12 49.41,-31.67 82.58,-31.67 34.69,0 62.59,10.55 83.69,31.67 21.12,21.12 31.67,49.03 31.67,83.71l0 1006.7c0,33.18 -10.55,60.7 -31.67,82.57 -21.11,21.88 -49.01,32.81 -83.69,32.81zm0 -1438.81c-40.73,0 -75.8,-14.71 -105.21,-44.12 -29.41,-29.4 -44.11,-64.48 -44.11,-105.2 0,-40.71 14.7,-75.78 44.11,-105.19 29.41,-29.41 64.48,-44.12 105.21,-44.12 40.71,0 75.78,14.71 105.19,44.12 29.41,29.41 44.11,64.48 44.11,105.19 0,40.72 -14.7,75.8 -44.11,105.2 -29.41,29.41 -64.48,44.12 -105.19,44.12zm1106.25 1447.85c-120.66,0 -228.49,-26.77 -323.51,-80.31 -95.02,-53.54 -168.91,-127.82 -221.7,-222.84 -52.79,-95.02 -79.19,-202.85 -79.19,-323.5 0,-122.17 26.39,-230.76 79.19,-325.78 52.78,-95.02 126.68,-169.29 221.7,-222.84 95.02,-53.52 202.85,-80.3 323.51,-80.3 119.15,0 225.85,26.77 320.11,80.3 94.26,53.54 168.16,127.82 221.7,222.84 53.54,95.02 80.32,203.61 80.32,325.78 0,120.65 -26.39,228.48 -79.19,323.5 -52.79,95.02 -126.31,169.29 -220.57,222.84 -94.27,53.53 -201.71,80.31 -322.37,80.31zm0 -203.6c76.91,0 145.92,-18.11 206.99,-54.3 61.08,-36.19 108.6,-86.34 142.53,-150.44 33.93,-64.1 50.91,-136.87 50.91,-218.3 0,-81.44 -16.98,-154.59 -50.91,-219.44 -33.94,-64.86 -81.45,-115.38 -142.53,-151.58 -61.07,-36.2 -130.08,-54.3 -206.99,-54.3 -76.92,0 -145.93,18.11 -207.01,54.3 -61.07,36.2 -108.97,86.72 -143.65,151.58 -34.69,64.85 -52.03,138 -52.03,219.44 0,81.43 17.35,154.2 52.03,218.3 34.69,64.1 82.58,114.25 143.65,150.44 61.08,36.2 130.09,54.3 207.01,54.3z"/>
   <path class="fil6" d="M10737.91 10604.02c-84.6,0 -165.76,-10.54 -243.42,-31.59 -77.68,-21.05 -151.81,-52.71 -222.31,-94.95 -70.27,-42.09 -133.14,-91.94 -188.5,-149.48 -55.28,-57.47 -103.18,-122.68 -143.57,-195.56 -80.84,-145.87 -121.28,-306.37 -121.28,-481.46 0,-173.61 40.43,-332.99 121.28,-478.05 40.43,-72.53 88.31,-137.57 143.58,-195 55.48,-57.68 118.28,-107.72 188.3,-150.04 70.04,-42.34 144.18,-74.24 222.32,-95.61 78.07,-21.36 159.28,-32.05 243.6,-32.05 59.51,0 115.25,3.95 167.16,11.83 52.02,7.9 100.62,20.01 145.73,36.27 44.59,16.06 89.34,37.25 134.11,63.54 44.55,26.13 89.13,57.2 133.65,93.14 11.19,8.54 20.74,17.33 28.53,26.36 9.14,10.55 16.19,21.73 21.11,33.39 4.51,10.66 7.79,21.8 9.83,33.33 1.98,11.16 2.98,22.93 2.98,35.31 0,21.27 -4.04,41.14 -12.13,59.57l0 0.17c-8.03,18.26 -20.09,34.61 -36.07,48.94 -15.09,13.53 -31.56,23.77 -49.33,30.66 -18.14,7.04 -37.14,10.58 -56.92,10.58 -19.47,0 -38.54,-3.47 -57.16,-10.37l-0.06 0.16c-17.65,-6.56 -34.59,-16.43 -50.8,-29.58l-0.89 -0.72c-29.28,-24.99 -58.06,-46.42 -86.25,-64.22 -27.96,-17.65 -55.27,-31.77 -81.83,-42.33 -25.76,-10.23 -56.17,-18.05 -91.22,-23.42 -35.75,-5.48 -75.9,-8.23 -120.44,-8.23 -54.63,0 -106.94,7.14 -156.85,21.4 -50.35,14.37 -98.24,35.8 -143.61,64.19l0 0.19c-45.98,28.77 -87.19,62.71 -123.6,101.73 -36.71,39.36 -68.65,83.9 -95.73,133.49 -27.05,49.53 -47.4,101.48 -61.02,155.8 -13.56,54.07 -20.35,110.61 -20.35,169.6 0,59.76 6.79,116.77 20.35,171.02 13.55,54.25 33.91,106.05 61.02,155.34 27.2,49.46 59.08,93.69 95.55,132.64 36.47,38.92 77.76,72.83 123.78,101.63l0 0.18c45.37,28.4 93.28,49.82 143.61,64.2 49.92,14.25 102.22,21.4 156.85,21.4 67.42,0 133.2,-11.49 197.25,-34.47 65.04,-23.32 128.92,-58.51 191.6,-105.53l1.08 -0.9c16.04,-11.3 32.29,-19.96 48.65,-25.92 17.68,-6.43 35.13,-9.64 52.33,-9.64 20.44,0 39.52,3.81 57.22,11.39 17.71,7.56 33.59,18.94 47.55,34.02 27.07,29.25 40.62,66.36 40.62,111.29 0,22.09 -4.28,43.03 -12.8,62.78l-0.18 0c-8.47,19.6 -20.71,37.4 -36.66,53.34l-3.75 3.23c-85.49,68.86 -176.92,120.61 -274.17,155.13 -97.4,34.59 -200.35,51.89 -308.74,51.89zm-219.77 -120.07c69.74,18.91 143.01,28.37 219.77,28.37 98.21,0 191.01,-15.52 278.3,-46.52 86.44,-30.7 168.01,-76.68 244.54,-137.88 7.63,-7.82 13.19,-15.73 16.62,-23.62l-0.16 -0.07c3.53,-8.14 5.3,-17.02 5.3,-26.59 0,-21.42 -5.32,-37.88 -15.91,-49.33 -4.88,-5.27 -10.36,-9.21 -16.38,-11.79 -6.05,-2.59 -13.19,-3.89 -21.41,-3.89 -6.92,0 -13.98,1.32 -21.17,3.93 -8.47,3.09 -17.56,8.04 -27.15,14.8 -69.7,52.03 -141.21,91.26 -214.54,117.55 -74.68,26.79 -150.71,40.19 -228.04,40.19 -62.98,0 -123.65,-8.34 -181.94,-24.98 -57.81,-16.52 -113.43,-41.48 -166.8,-74.89l-0.08 0.13c-52.74,-33.01 -100.12,-71.93 -142.04,-116.68 -41.91,-44.76 -78.35,-95.2 -109.19,-151.28 -30.94,-56.26 -54.15,-115.34 -69.62,-177.2 -15.46,-61.87 -23.19,-126.3 -23.19,-193.22 0,-66.17 7.73,-130.14 23.19,-191.8 15.4,-61.39 38.61,-120.53 69.62,-177.31 30.97,-56.7 67.33,-107.44 109.01,-152.12 42,-45.04 89.42,-84.1 142.22,-117.15l0.08 0.13c53.36,-33.4 108.98,-58.37 166.8,-74.87 58.29,-16.65 118.94,-24.98 181.94,-24.98 48.99,0 93.68,3.11 134.06,9.29 41.12,6.31 78.23,16.04 111.25,29.18 32.24,12.8 64.56,29.43 96.89,49.84 32.11,20.28 64.48,44.32 97,72.09 7.65,6.09 15.7,10.69 24.1,13.81l0 0.19c7.72,2.86 16.18,4.31 25.33,4.31 8.87,0 16.88,-1.39 23.96,-4.13 7.48,-2.9 14.63,-7.4 21.38,-13.45 5.84,-5.24 10.24,-11.18 13.14,-17.78 2.86,-6.41 4.27,-14.05 4.27,-22.85 0,-7.24 -0.52,-13.76 -1.55,-19.56 -0.96,-5.42 -2.22,-9.99 -3.76,-13.62 -1.1,-2.63 -3.14,-5.67 -6.06,-9.03 -3.96,-4.59 -9.13,-9.27 -15.45,-14.01l-1.25 -0.89c-41.42,-33.43 -82.29,-61.99 -122.56,-85.6 -40,-23.46 -79.62,-42.28 -118.69,-56.36 -38.57,-13.9 -81.45,-24.44 -128.55,-31.61 -47.23,-7.18 -98.43,-10.77 -153.54,-10.77 -77.07,0 -150.29,9.5 -219.61,28.46 -69.26,18.95 -135.63,47.62 -199.02,85.95 -63.41,38.32 -119.99,83.34 -169.66,134.99 -49.93,51.86 -93.15,110.57 -129.63,176.02 -72.96,130.91 -109.46,275.48 -109.46,433.63 0,159.71 36.5,305.4 109.46,437.04 36.51,65.86 79.74,124.72 129.61,176.58 49.81,51.76 106.33,96.58 169.5,134.43 62.94,37.69 129.31,66.01 199.04,84.91zm2229.27 -586.37c0,20.12 -3.67,39.04 -10.94,56.69 -7.37,17.86 -18.27,33.73 -32.63,47.53 -14.29,13.75 -30.63,24.12 -48.94,31.06 -17.77,6.74 -36.92,10.11 -57.41,10.11l-802.74 0c7.85,26.64 18.32,51.59 31.38,74.85 21.07,37.47 49.22,70.67 84.38,99.47 70.7,57.91 157.94,86.89 261.68,86.89 20.07,0 40.56,-1.85 61.42,-5.51 21.45,-3.78 43.24,-9.41 65.29,-16.88 22.59,-7.63 42.96,-16.05 61.09,-25.19 17.41,-8.76 32.87,-18.29 46.36,-28.52 14.49,-11.42 30.66,-20.12 48.44,-26.02 17.46,-5.82 35.64,-8.72 54.48,-8.72 40.38,0 73.3,11.54 98.67,34.61 17.52,14.97 30.95,31.23 40.22,48.74 10.37,19.58 15.55,40.26 15.55,62.05 0,20.96 -4.87,40.6 -14.6,58.82 -9.02,16.91 -22.04,31.87 -39.03,44.81 -55.31,44.02 -123.73,79.74 -205.08,107.12 -40.66,13.68 -80.14,23.91 -118.32,30.63 -39.07,6.88 -77.26,10.33 -114.48,10.33 -65.06,0 -127.28,-7.18 -186.64,-21.51 -59.26,-14.31 -115.21,-35.84 -167.77,-64.53 -52.75,-28.82 -99.76,-63.25 -140.95,-103.21 -41.32,-40.09 -76.8,-85.72 -106.41,-136.83 -29.73,-51.32 -51.99,-105.94 -66.75,-163.78 -14.72,-57.63 -22.08,-118.54 -22.08,-182.65 0,-128.18 27.94,-243.7 83.78,-346.49 28.02,-51.6 61.61,-97.56 100.66,-137.84 39,-40.24 83.64,-74.86 133.9,-103.87 50.34,-29.05 103.66,-50.74 159.92,-65.06 56.34,-14.34 115.82,-21.52 178.41,-21.52 61.85,0 119.74,6.9 173.59,20.67 54.17,13.83 104.51,34.87 150.93,63.06 46.07,27.97 86.83,61.52 122.21,100.6 35.26,38.94 65.17,83.35 89.66,133.17 24.39,49.44 42.64,102.43 54.73,158.89 12.02,56.11 18.04,115.48 18.04,178.02zm-95.47 21.94c2.5,-6.07 3.77,-13.39 3.77,-21.94 0,-56.6 -5.3,-109.64 -15.88,-159.05 -10.51,-49.1 -26.25,-94.94 -47.15,-137.44l0 -0.16c-20.71,-42.12 -45.87,-79.53 -75.41,-112.16 -29.46,-32.56 -63.41,-60.5 -101.77,-83.78 -38,-23.07 -80.1,-40.52 -126.2,-52.3 -46.4,-11.86 -96.76,-17.8 -151.04,-17.8 -55.03,0 -107,6.23 -155.84,18.65 -48.91,12.44 -94.6,30.92 -137,55.39 -42.5,24.52 -80.47,54.02 -113.83,88.45 -33.32,34.37 -62.01,73.64 -85.97,117.77 -48.21,88.73 -72.33,189.68 -72.33,302.8 0,56.53 6.43,109.91 19.23,160.09 12.75,49.96 31.8,96.83 57.09,140.48 25.42,43.88 55.77,82.94 90.99,117.13 35.34,34.28 75.65,63.81 120.89,88.51 45.46,24.82 94.01,43.48 145.57,55.92 51.48,12.43 106.54,18.66 165.15,18.66 32.13,0 65.05,-2.98 98.73,-8.9 34.55,-6.09 69.59,-15.12 105.06,-27.05 70.96,-23.88 130.04,-54.56 177.2,-92.01l1.06 -0.72c6.65,-4.99 11.41,-10.16 14.26,-15.5 2.34,-4.37 3.51,-9.67 3.51,-15.83 0,-6.87 -1.61,-13.36 -4.82,-19.42 -4.01,-7.57 -10.45,-15.08 -19.26,-22.4l-1.61 -1.25c-7.77,-7.08 -20.16,-10.62 -37.06,-10.62 -9.78,0 -18.4,1.24 -25.81,3.71 -7.1,2.35 -13.95,6.15 -20.55,11.32l-0.53 0.36c-18.06,13.75 -38.47,26.39 -61.19,37.84 -22.19,11.22 -46.52,21.29 -72.92,30.22 -26.93,9.11 -53.26,15.95 -78.91,20.46 -26.26,4.62 -52,6.94 -77.17,6.94 -125.51,0 -232.11,-35.9 -319.72,-107.66 -43.98,-36.03 -79.42,-77.93 -106.22,-125.62 -26.5,-47.18 -44.36,-100.03 -53.55,-158.5l-8.32 -52.82 913.12 0c9.68,0 18.1,-1.36 25.17,-4.04 6.56,-2.48 12.5,-6.29 17.79,-11.35 5.22,-5.02 9.06,-10.49 11.48,-16.37zm-513.68 -390.08c-98.61,0 -177.9,26.36 -237.82,79.04 -30.25,26.59 -54.92,57.62 -73.95,93.06 -11.43,21.3 -20.94,44.22 -28.47,68.76l640.34 0c-6.3,-25.55 -14.55,-49.26 -24.76,-71.11 -16.44,-35.22 -38.18,-66 -65.17,-92.32 -26.39,-25.75 -56.72,-45.05 -90.96,-57.84 -34.93,-13.06 -74.67,-19.59 -119.22,-19.59zm-298.36 10.26c77.31,-67.96 176.77,-101.96 298.36,-101.96 54.98,0 105.37,8.56 151.11,25.67 46.44,17.35 87.4,43.34 122.84,77.9 34.84,33.99 62.9,73.73 84.13,119.2 20.89,44.67 35.04,94.54 42.42,149.54l6.97 51.94 -860.25 0 9.67 -53.91c9.94,-55.47 26.86,-105.46 50.76,-149.91 24.31,-45.27 55.67,-84.76 94.01,-118.47zm1762.04 -301.03c42.6,0 81.09,3.31 115.5,9.94 35.64,6.86 66.92,17.46 93.77,31.8 28.58,15.23 50.59,33.13 65.95,53.61 17.51,23.36 26.27,49.1 26.27,77.18 0,14.05 -1.39,25.72 -4.14,34.95 -9.29,33.41 -25.38,59.25 -48.2,77.52 -23.48,18.96 -52.26,28.41 -86.25,28.41 -10.51,0 -24.83,-1.82 -42.9,-5.43 -29.48,-5.13 -55.44,-8.92 -77.87,-11.34 -22.24,-2.39 -42.34,-3.6 -60.22,-3.6 -50.13,0 -94.98,5.63 -134.51,16.87 -38.54,10.95 -72.06,27.12 -100.5,48.46 -27.28,20.48 -47.66,44.3 -61.06,71.38 -13.36,27.03 -20.06,58.2 -20.06,93.45l0 660.57c0,48.4 -13.72,86.85 -41.16,115.41 -14.4,14.98 -32.25,26.17 -53.43,33.52 -19.31,6.68 -40.76,10.04 -64.36,10.04 -22.8,0 -43.68,-3.2 -62.58,-9.58l-0.19 0c-20.3,-6.86 -37.88,-17.41 -52.64,-31.59 -14.99,-14.4 -26.17,-32.26 -33.52,-53.44 -6.69,-19.3 -10.04,-40.77 -10.04,-64.36l0 -1011.23c0,-23.01 3.36,-44.08 10.04,-63.12 7.28,-20.75 18.24,-38.43 32.8,-53 14.6,-14.59 32.29,-25.52 53,-32.8 19.04,-6.7 40.1,-10.05 63.13,-10.05 50.14,0 89.18,13.92 117.07,41.72l0.16 0.17c16.24,16.29 27.72,36.37 34.49,60.24l9.95 -7.59c30.63,-22.76 64.01,-42.36 100.04,-58.74 36.1,-16.41 73.54,-28.75 112.25,-36.97 38.8,-8.25 78.56,-12.38 119.2,-12.38zm98.29 99.85c-28.19,-5.43 -60.95,-8.15 -98.29,-8.15 -34.75,0 -68.17,3.42 -100.22,10.23 -32.15,6.84 -63.38,17.14 -93.62,30.89 -30.3,13.76 -58.07,30.02 -83.2,48.71 -25.05,18.63 -47.84,39.89 -68.27,63.73l-80.6 94.04 0 -166.76c0,-25.15 -4.91,-42.65 -14.68,-52.42l-0.16 -0.17c-9.77,-9.77 -27.27,-14.67 -52.41,-14.67 -13.16,0 -24.17,1.56 -33.03,4.67 -7.15,2.51 -13.26,6.29 -18.28,11.3 -5.02,5.02 -8.79,11.12 -11.3,18.28 -3.11,8.83 -4.67,19.86 -4.67,33.02l0 1011.23c0,14.11 1.56,25.67 4.67,34.63 2.44,7.06 5.99,12.82 10.59,17.26 4.84,4.65 11.07,8.27 18.63,10.82 8.93,3.06 20.09,4.57 33.39,4.57 14.1,0 25.66,-1.57 34.62,-4.67 7.06,-2.45 12.83,-6 17.26,-10.59 10.24,-10.66 15.38,-28.01 15.38,-52.01l0 -660.57c0,-49.19 9.9,-93.86 29.72,-133.92 19.78,-40 49.23,-74.69 88.27,-103.97 37.88,-28.42 81.33,-49.61 130.24,-63.52 47.94,-13.63 101.14,-20.46 159.59,-20.46 19.82,0 43.15,1.46 69.89,4.33 26.3,2.83 54.66,6.94 85.02,12.23l1.08 0.18c12.08,2.41 20.43,3.63 24.99,3.63 12.76,0 22.45,-2.64 29.02,-7.88l0.18 0c7.31,-5.84 13.06,-16.21 17.22,-31.03l0.72 -1.97c0.15,-0.48 -0.25,-2.28 -0.25,-8.28 0,-8.1 -2.56,-15.58 -7.64,-22.36 -7.23,-9.64 -19.21,-18.95 -35.87,-27.82 -18.37,-9.8 -41.05,-17.32 -67.98,-22.49zm865.45 1251.93c-63.19,0 -123.48,-7.27 -180.77,-21.8 -57.48,-14.55 -111.84,-36.5 -163.04,-65.74l-0.18 0c-50.93,-29.1 -96.48,-63.96 -136.65,-104.5 -40.05,-40.47 -74.53,-86.54 -103.38,-138.14 -28.82,-51.54 -50.41,-105.89 -64.73,-162.98 -14.33,-57.13 -21.51,-116.93 -21.51,-179.35 0,-128.18 27.94,-243.7 83.78,-346.49 28.05,-51.63 61.72,-97.6 100.93,-137.84 39.5,-40.55 84.46,-75.24 134.76,-104.04 50.34,-28.81 104,-50.45 160.96,-64.89 56.53,-14.34 116.05,-21.52 178.5,-21.52 191.39,0 350.5,72.91 477.22,218.69 11.25,12.31 19.86,26.21 25.77,41.61 5.92,15.38 8.87,31.38 8.87,47.97 0,24.88 -6.3,47.92 -18.88,69.1 -11.76,19.8 -28.76,37.27 -50.94,52.4 -11.45,7.82 -23.74,13.8 -36.85,17.78 -13.36,4.06 -27.03,6.11 -40.98,6.11 -23.89,0 -46.32,-4.83 -67.24,-14.47 -20.52,-9.48 -38.94,-23.38 -55.19,-41.64l0.12 -0.11c-16.25,-17.48 -33.56,-32.87 -51.87,-46.15 -18,-13.05 -36.38,-23.54 -55.06,-31.46 -19.16,-8.11 -39.87,-14.25 -62.07,-18.36 -22.19,-4.11 -46.53,-6.17 -72.9,-6.17 -52.28,0 -99.1,8.52 -140.42,25.53 -40.87,16.85 -77.18,42.28 -108.87,76.29 -31.91,34.24 -55.84,74.03 -71.78,119.33 -16.31,46.36 -24.45,99.15 -24.45,158.31 0,37.35 3.83,72.45 11.47,105.27 7.6,32.61 18.99,63.22 34.07,91.72 14.98,28.32 32.92,53.5 53.73,75.47 20.83,21.97 44.7,40.95 71.58,56.88 27,16 55.78,27.97 86.31,35.89 30.73,7.98 63.97,11.97 99.67,11.97 91.69,0 164.92,-22.82 219.66,-68.44l2.15 -1.79c17.62,-12.97 35.43,-22.87 53.34,-29.67 19.32,-7.3 38.44,-10.96 57.39,-10.96 15.29,0 30.45,2.62 45.41,7.78 14.38,4.99 28.01,12.3 40.82,21.91l1.97 1.61c19.04,16.01 33.5,33.4 43.35,52.06 10.73,20.36 16.12,41.78 16.12,64.31 0,17.42 -3.64,34.31 -10.9,50.68l0 0.18c-6.83,15.32 -16.73,29.5 -29.69,42.47l-1.25 1.25c-58.63,54.55 -124.82,95.58 -198.46,123 -73.31,27.26 -153.29,40.92 -239.91,40.92zm-158.57 -110.63c49.76,12.62 102.63,18.94 158.57,18.94 76.26,0 145.61,-11.63 208.02,-34.85 61.97,-23.06 117.91,-57.79 167.78,-104.13 4.61,-4.78 7.97,-9.55 10.05,-14.21 1.79,-3.93 2.66,-8.47 2.66,-13.61 0,-7.64 -1.8,-14.9 -5.38,-21.68 -4.24,-8.03 -10.84,-15.96 -19.75,-23.67 -5.07,-3.72 -10.16,-6.49 -15.16,-8.21 -4.62,-1.58 -9.86,-2.4 -15.68,-2.4 -8.18,0 -16.58,1.64 -25.15,4.88 -9.94,3.77 -20.48,9.73 -31.5,17.84 -71.63,58.74 -163.62,88.14 -275.89,88.14 -42.71,0 -83.59,-5.07 -122.6,-15.19 -39.22,-10.16 -75.9,-25.35 -109.97,-45.55 -34.15,-20.26 -64.6,-44.48 -91.28,-72.64 -26.67,-28.14 -49.51,-60.13 -68.43,-95.89 -18.83,-35.59 -32.94,-73.46 -42.3,-113.58 -9.29,-39.93 -13.97,-81.96 -13.97,-126.03 0,-69.02 9.94,-131.85 29.84,-188.41 20.27,-57.59 50.65,-108.14 91.12,-151.56 40.69,-43.67 87.74,-76.51 141.1,-98.48 52.91,-21.8 111.33,-32.72 175.17,-32.72 30.91,0 60.72,2.67 89.38,7.96 28.7,5.32 55.73,13.35 81.04,24.07 25.78,10.91 50.26,24.77 73.34,41.49 22.53,16.34 44.46,36.01 65.72,58.98l0.72 0.54c7.87,8.85 16.29,15.36 25.12,19.44 8.47,3.92 18.13,5.88 28.9,5.88 5.67,0 10.49,-0.61 14.47,-1.82 4.03,-1.22 7.86,-3.1 11.42,-5.59l0.35 -0.37c10.98,-7.49 18.91,-15.31 23.71,-23.39 3.98,-6.71 6,-14.23 6,-22.52 0,-6.03 -0.82,-11.17 -2.43,-15.37 -1.61,-4.19 -4.36,-8.43 -8.19,-12.64l-0.71 -0.9c-108.42,-125.09 -244.72,-187.65 -408.84,-187.65 -55.18,0 -107.3,6.23 -156.3,18.65 -48.6,12.32 -94.5,30.84 -137.67,55.56 -43.19,24.71 -81.45,54.16 -114.69,88.28 -33.52,34.39 -62.3,73.68 -86.25,117.77 -48.2,88.73 -72.32,189.68 -72.32,302.8 0,55.21 6.23,107.61 18.65,157.15 12.44,49.61 31.05,96.54 55.76,140.74 24.67,44.15 54.15,83.53 88.33,118.08 34.12,34.45 73.24,64.29 117.31,89.48 43.73,25.05 90.4,43.86 139.92,56.4zm1572.5 -1238.89c55.25,0 108.24,6.14 158.93,18.41 50.59,12.22 98.43,30.64 143.44,55.19 90.96,49.61 162,121.76 213,216.38 25.25,46.84 44.24,98.6 56.9,155.2 12.5,55.92 18.78,115.87 18.78,179.81l0 556.51c0,22.08 -3.87,42.9 -11.6,62.36 -7.82,19.69 -19.39,37.19 -34.64,52.46l0 0.17c-15.18,15.18 -32.76,26.73 -52.63,34.64 -19.46,7.73 -40.25,11.6 -62.36,11.6 -22.09,0 -42.9,-3.87 -62.36,-11.6 -19.9,-7.9 -37.45,-19.47 -52.61,-34.64l0 -0.17c-15.25,-15.27 -26.81,-32.78 -34.64,-52.46 -7.73,-19.46 -11.61,-40.27 -11.61,-62.36l0 -556.51c0,-55.98 -7.32,-104.56 -21.91,-145.69 -13.95,-39.3 -34.69,-72.09 -62.19,-98.3 -28.24,-26.94 -61.06,-47.15 -98.4,-60.57 -38.23,-13.73 -82.04,-20.61 -131.36,-20.61 -28.84,0 -55.83,2.81 -80.91,8.36 -25.07,5.57 -49.05,14 -71.91,25.27 -22.61,11.13 -42.65,24.13 -60.07,38.97 -17.26,14.7 -32.08,31.23 -44.36,49.5 -12.04,17.94 -21.13,37.03 -27.17,57.2 -6.03,20.11 -9.05,41.6 -9.05,64.41l0 637.97c0,22.15 -3.67,42.78 -10.96,61.83l-0.18 0c-7.56,19.7 -18.73,37.2 -33.43,52.44 -15.24,15.8 -32.96,27.66 -53.06,35.54 -19.42,7.61 -40.62,11.42 -63.61,11.42 -22.07,0 -42.9,-3.87 -62.35,-11.6 -19.7,-7.82 -37.19,-19.39 -52.47,-34.64l-0.16 -0.17c-15.25,-15.27 -26.81,-32.78 -34.64,-52.46 -7.71,-19.46 -11.61,-40.27 -11.61,-62.36l0 -1538.34c0,-22.95 3.81,-44.18 11.42,-63.6 7.88,-20.11 19.75,-37.81 35.54,-53.06 15.45,-14.92 32.96,-26.13 52.45,-33.61 19.04,-7.29 39.66,-10.95 61.82,-10.95 22.72,0 43.78,3.67 63.07,10.95 20.07,7.57 37.73,19.02 52.96,34.25 15.17,14.99 26.57,32.7 34.25,52.97 7.3,19.29 10.96,40.32 10.96,63.05l0 457.34 8.4 -5.59c31.05,-20.22 64.7,-37.53 100.84,-51.92 36.03,-14.33 73.22,-25.07 111.51,-32.21 38.65,-7.17 78,-10.78 117.97,-10.78zm137.44 107.25c-42.81,-10.36 -88.63,-15.55 -137.44,-15.55 -35.42,0 -69.26,3.02 -101.48,8.99 -32.56,6.06 -64.04,15.13 -94.35,27.19 -30.16,12.01 -58.43,26.58 -84.69,43.68 -25.9,16.87 -49.81,36.27 -71.65,58.11l-78.27 78.32 0 -664.83c0,-11.94 -1.64,-22.23 -4.87,-30.82 -2.89,-7.61 -7.34,-14.45 -13.36,-20.47l0 -0.17c-5.83,-5.84 -12.67,-10.24 -20.48,-13.19 -8.57,-3.24 -18.87,-4.88 -30.83,-4.88 -10.99,0 -20.77,1.64 -29.22,4.88 -8.01,3.07 -15.25,7.72 -21.66,13.91 -6.06,5.85 -10.63,12.69 -13.67,20.47 -3.32,8.44 -4.98,18.57 -4.98,30.27l0 1538.34c0,11.07 1.61,20.67 4.8,28.7 3.09,7.76 7.92,14.97 14.49,21.55 6.58,6.57 13.77,11.39 21.55,14.49 8.03,3.2 17.62,4.8 28.69,4.8 11.71,0 21.84,-1.67 30.29,-4.98 7.76,-3.05 14.62,-7.61 20.47,-13.67 6.37,-6.61 11.06,-13.81 14.06,-21.6l-0.15 -0.06c3.23,-8.46 4.87,-18.24 4.87,-29.23l0 -637.97c0,-31.46 4.35,-61.67 13.01,-90.56 8.63,-28.81 21.64,-56.12 38.97,-81.91 17.12,-25.45 37.41,-48.19 60.84,-68.13 23.3,-19.85 49.69,-37.04 79.07,-51.5 29.17,-14.38 60.07,-25.2 92.68,-32.44 32.56,-7.23 66.12,-10.87 100.62,-10.87 59.26,0 113.32,8.79 162.17,26.33 49.75,17.87 93.31,44.65 130.65,80.27 38.11,36.36 66.61,81.08 85.45,134.15 18.18,51.22 27.29,109.96 27.29,176.13l0 556.51c0,11.07 1.6,20.67 4.8,28.7 3.09,7.76 7.92,14.97 14.49,21.55 6.76,6.61 13.92,11.46 21.54,14.49 8.01,3.19 17.62,4.8 28.69,4.8 11.07,0 20.67,-1.6 28.7,-4.8 7.61,-3.03 14.79,-7.88 21.47,-14.57 6.65,-6.5 11.47,-13.7 14.57,-21.47 3.2,-8.03 4.8,-17.63 4.8,-28.7l0 -556.51c0,-58.23 -5.45,-111.61 -16.29,-160.1 -10.69,-47.83 -26.81,-91.71 -48.29,-131.55 -42.49,-78.8 -101.22,-138.66 -176.1,-179.51 -37.91,-20.68 -78.36,-36.22 -121.25,-46.59zm930.36 1233.23c-22.08,0 -42.9,-3.88 -62.36,-11.6 -19.69,-7.82 -37.19,-19.4 -52.46,-34.64l-0.17 -0.17c-15.25,-15.27 -26.81,-32.78 -34.64,-52.46 -7.73,-19.46 -11.6,-40.28 -11.6,-62.36l0 -1006.7c0,-22.98 3.81,-44.19 11.42,-63.61 7.87,-20.11 19.74,-37.82 35.53,-53.06 15.46,-14.92 32.96,-26.13 52.45,-33.61 19.05,-7.3 39.66,-10.96 61.83,-10.96 22.71,0 43.77,3.67 63.06,10.96 20.28,7.66 37.98,19.09 53.05,34.16 15.14,15.32 26.57,33 34.15,53.06 7.3,19.28 10.96,40.33 10.96,63.06l0 1006.7c0,22.15 -3.67,42.78 -10.96,61.82 -7.46,19.5 -18.69,37 -33.61,52.45 -15.24,15.79 -32.96,27.66 -53.04,35.54 -19.42,7.61 -40.63,11.42 -63.61,11.42zm-28.7 -96.49c8.03,3.2 17.63,4.8 28.7,4.8 11.71,0 21.84,-1.67 30.28,-4.99 7.75,-3.04 14.61,-7.61 20.46,-13.67 6.19,-6.41 10.84,-13.64 13.91,-21.65 3.23,-8.46 4.87,-18.24 4.87,-29.23l0 -1006.7c0,-11.96 -1.64,-22.25 -4.87,-30.83 -2.96,-7.8 -7.36,-14.65 -13.19,-20.48l-0.17 0c-6.01,-6 -12.86,-10.48 -20.46,-13.35 -8.58,-3.24 -18.88,-4.88 -30.83,-4.88 -10.99,0 -20.77,1.64 -29.23,4.88 -8,3.06 -15.25,7.71 -21.66,13.9 -6.06,5.85 -10.63,12.7 -13.67,20.47 -3.31,8.45 -4.98,18.58 -4.98,30.29l0 1006.7c0,11.07 1.6,20.67 4.8,28.69 3.09,7.77 7.92,14.97 14.49,21.56 6.58,6.56 13.78,11.39 21.55,14.49zm28.7 -1342.31c-26.47,0 -51.35,-4.89 -74.58,-14.62 -22.88,-9.59 -43.84,-23.92 -62.87,-42.94l-0.17 0c-18.81,-18.81 -33.12,-39.83 -42.86,-63.06 -9.8,-23.19 -14.69,-48.07 -14.69,-74.55 0,-26.35 4.89,-51.17 14.61,-74.39l0 -0.17c9.68,-23.07 24.01,-44.12 42.94,-63.04 18.95,-18.96 39.97,-33.28 63.04,-42.94 23.22,-9.73 48.11,-14.62 74.58,-14.62 26.47,0 51.34,4.89 74.56,14.62 22.82,9.56 43.8,23.89 62.88,42.94l0.17 0.17c19.04,19.08 33.37,40.05 42.94,62.87l0 0.17c9.71,23.22 14.6,48.04 14.6,74.39 0,26.48 -4.89,51.35 -14.62,74.58 -9.81,23.19 -24.12,44.22 -42.92,63.03 -18.93,18.93 -39.96,33.26 -63.05,42.94 -23.22,9.73 -48.09,14.62 -74.56,14.62zm-39.12 -99.14c11.83,4.95 24.87,7.44 39.12,7.44 14.24,0 27.28,-2.5 39.1,-7.44 11.97,-5.02 23.22,-12.79 33.68,-23.24 10.52,-10.52 18.3,-21.72 23.22,-33.49l0 -0.17c4.95,-11.82 7.44,-24.87 7.44,-39.12 0,-14.3 -2.47,-27.35 -7.36,-39.12 -5.17,-12.13 -12.87,-23.39 -23.13,-33.65l-0.17 -0.17c-10.25,-10.27 -21.53,-17.98 -33.68,-23.07 -11.82,-4.95 -24.86,-7.44 -39.1,-7.44 -14.25,0 -27.29,2.5 -39.12,7.44 -11.97,5.02 -23.2,12.78 -33.67,23.24 -10.45,10.44 -18.23,21.7 -23.24,33.67 -4.96,11.75 -7.43,24.8 -7.43,39.1 0,14.25 2.5,27.3 7.45,39.12l0 0.17c4.92,11.77 12.69,22.96 23.22,33.49 10.26,10.4 21.55,18.15 33.67,23.24zm1145.37 1547c-63.78,0 -124.55,-7.18 -182.31,-21.51 -58.08,-14.42 -112.63,-36.02 -163.6,-64.72 -51.08,-28.78 -96.67,-63.33 -136.71,-103.55 -39.88,-40.09 -74.08,-85.79 -102.54,-137.01 -28.38,-51.09 -49.7,-105.66 -63.88,-163.6 -14.14,-57.81 -21.23,-118.53 -21.23,-182.12 0,-129.87 28.37,-245.89 85.1,-347.99 28.46,-51.23 62.66,-96.91 102.54,-137.01 40.03,-40.22 85.63,-74.76 136.71,-103.55 50.98,-28.72 105.54,-50.3 163.6,-64.71 57.76,-14.34 118.53,-21.52 182.31,-21.52 63.17,0 123.36,7.18 180.49,21.52 57.21,14.34 111.3,35.99 162.18,64.89 50.77,28.83 96.11,63.32 135.97,103.37 39.99,40.19 74.38,85.82 103.12,136.83 28.72,50.98 50.32,105.73 64.72,164.17 14.34,58.16 21.51,119.52 21.51,184 0,128.35 -28.37,243.61 -85.09,345.71 -28.44,51.18 -62.56,96.88 -102.26,137.01 -39.63,40.04 -84.89,74.52 -135.69,103.37 -50.82,28.85 -105.16,50.51 -162.93,64.9 -57.54,14.33 -118.22,21.51 -182.01,21.51zm-160.44 -110.35c50.08,12.43 103.57,18.66 160.44,18.66 56.85,0 110.25,-6.23 160.15,-18.66 49.66,-12.37 96.23,-30.9 139.65,-55.55 43.45,-24.67 82.12,-54.16 115.99,-88.35 33.78,-34.15 62.88,-73.14 87.21,-116.94 48.84,-87.91 73.27,-188.37 73.27,-301.29 0,-57.65 -6.23,-111.73 -18.65,-162.14 -12.36,-50.15 -30.96,-97.24 -55.75,-141.24 -24.79,-43.98 -54.14,-83.03 -88.07,-117.12 -34.01,-34.19 -72.79,-63.66 -116.26,-88.35 -43.36,-24.63 -89.79,-43.16 -139.26,-55.56 -49.55,-12.42 -102.33,-18.65 -158.29,-18.65 -56.87,0 -110.36,6.23 -160.44,18.65 -49.72,12.33 -96.63,30.93 -140.67,55.74 -43.9,24.74 -82.82,54.15 -116.67,88.17 -33.99,34.17 -63.18,73.15 -87.49,116.94 -48.84,87.9 -73.27,189.12 -73.27,303.56 0,57.05 6.14,110.61 18.37,160.62 12.2,49.86 30.52,96.78 54.9,140.67 24.31,43.76 53.5,82.77 87.49,116.94 33.85,34.01 72.77,63.42 116.67,88.17 44.04,24.79 90.96,43.4 140.67,55.73zm160.44 -184.94c34.78,0 67.39,-3.99 97.79,-11.97l0.18 0c30.09,-7.88 58.69,-19.86 85.72,-35.89 26.89,-15.93 50.78,-34.92 71.6,-56.88 20.82,-21.97 38.75,-47.15 53.74,-75.47 15.1,-28.51 26.45,-59.11 34.06,-91.72 7.64,-32.82 11.48,-67.91 11.48,-105.27 0,-37.49 -3.84,-72.75 -11.48,-105.73 -7.62,-32.92 -19,-63.81 -34.06,-92.59 -14.92,-28.51 -32.91,-53.97 -53.91,-76.31 -20.75,-22.06 -44.58,-41.08 -71.43,-56.99 -27.03,-16.02 -55.63,-27.99 -85.72,-35.89l-0.18 0c-30.4,-7.97 -63.02,-11.96 -97.79,-11.96 -34.79,0 -67.4,3.99 -97.8,11.96l-0.18 0c-30.09,7.89 -58.7,19.88 -85.73,35.89 -26.89,15.93 -50.88,35.02 -71.87,57.17 -21.19,22.35 -39.47,47.88 -54.77,76.5 -15.28,28.59 -26.87,59.46 -34.73,92.57 -7.82,33.06 -11.76,68.19 -11.76,105.38 0,37.15 3.94,72.19 11.76,105.09 7.77,32.6 19.37,63.14 34.73,91.53 15.38,28.43 33.65,53.73 54.77,75.84 20.94,21.94 44.91,40.91 71.87,56.88 27.03,16.02 55.64,28 85.73,35.89l0.18 0c30.4,7.98 63.02,11.97 97.8,11.97zm121.07 76.47c-38.57,10.16 -78.95,15.23 -121.07,15.23 -42.12,0 -82.5,-5.07 -121.09,-15.19 -38.78,-10.23 -75.24,-25.41 -109.22,-45.55 -34.11,-20.23 -64.66,-44.46 -91.57,-72.64 -26.74,-28.01 -49.81,-59.87 -69.08,-95.53 -19.31,-35.68 -33.76,-73.62 -43.33,-113.75 -9.49,-39.87 -14.26,-81.97 -14.26,-126.22 0,-44.27 4.77,-86.44 14.26,-126.5 9.48,-40.03 23.94,-78.19 43.33,-114.43 19.35,-36.21 42.4,-68.41 69.08,-96.56 26.88,-28.36 57.42,-52.67 91.57,-72.92 33.99,-20.15 70.43,-35.33 109.23,-45.52 38.57,-10.16 78.96,-15.23 121.08,-15.23 42.12,0 82.49,5.07 121.08,15.19 38.8,10.23 75.23,25.41 109.2,45.56 34.21,20.28 64.72,44.65 91.47,73.1 26.5,28.18 49.29,60.45 68.26,96.74 18.87,36.04 32.98,74.21 42.3,114.42 9.31,40.14 13.97,82.21 13.97,126.15 0,44.06 -4.66,86.09 -13.97,126.03 -9.35,40.12 -23.47,78.01 -42.3,113.58 -18.93,35.77 -41.76,67.75 -68.42,95.89 -26.68,28.16 -57.15,52.38 -91.31,72.64 -33.97,20.14 -70.39,35.32 -109.21,45.51z"/>
   <path class="fil5" d="M8151.83 11028.26c15.33,0 27.67,4.67 37,14 9.33,9.34 14,21.68 14,37.01l0 456.11c0,52.01 -12.16,99.19 -36.51,141.53 -24.34,42.34 -57.35,75.68 -99.02,100.02 -41.68,24.34 -88.19,36.51 -139.53,36.51 -51.34,0 -98.19,-12.16 -140.53,-36.51 -42.34,-24.34 -75.52,-57.68 -99.52,-100.02 -24,-42.34 -36.01,-89.52 -36.01,-141.53 0,-52.01 11.16,-99.19 33.51,-141.53 22.33,-42.34 53.01,-75.52 92.02,-99.52 39.01,-24.01 82.52,-36.02 130.53,-36.02 38.67,0 74.69,8 108.03,24.01 33.35,16 61.69,38.33 85.02,67.01l0 -270.07c0,-15.34 4.84,-27.67 14.5,-37.01 9.67,-9.33 21.85,-14 36.52,-14zm-224.06 695.17c33.34,0 63.52,-8.16 90.52,-24.5 27.01,-16.34 48.19,-38.84 63.52,-67.51 15.34,-28.68 23,-60.69 23,-96.02 0,-35.35 -7.66,-67.18 -23,-95.52 -15.33,-28.34 -36.51,-50.68 -63.52,-67.01 -27,-16.34 -57.18,-24.5 -90.52,-24.5 -33.34,0 -63.52,8.16 -90.52,24.5 -27.01,16.34 -48.35,38.67 -64.02,67.01 -15.67,28.34 -23.5,60.18 -23.5,95.52 0,35.34 7.83,67.34 23.5,96.02 15.67,28.67 37,51.18 64.02,67.51 27,16.34 57.18,24.5 90.52,24.5zm703.17 90.02c-53.34,0 -101.02,-11.83 -143.03,-35.51 -42.01,-23.67 -74.69,-56.51 -98.02,-98.52 -23.34,-42.01 -35.01,-89.69 -35.01,-143.03 0,-54.01 11.66,-102.03 35.01,-144.03 23.33,-42.01 56.01,-74.86 98.02,-98.52 42.01,-23.67 89.69,-35.52 143.03,-35.52 52.68,0 99.86,11.84 141.53,35.52 41.68,23.66 74.35,56.51 98.02,98.52 23.67,42 35.51,90.02 35.51,144.03 0,53.34 -11.66,101.02 -35.01,143.03 -23.33,42.01 -55.84,74.85 -97.52,98.52 -41.67,23.67 -89.19,35.51 -142.53,35.51zm0 -90.02c34.01,0 64.52,-8 91.53,-24 27,-16.01 48.01,-38.17 63.01,-66.51 15.01,-28.34 22.5,-60.52 22.5,-96.52 0,-36.01 -7.49,-68.35 -22.5,-97.02 -15,-28.67 -36.01,-51.02 -63.01,-67.01 -27.01,-16.01 -57.52,-24 -91.53,-24 -34.01,0 -64.52,7.99 -91.52,24 -27.01,16 -48.18,38.34 -63.52,67.01 -15.34,28.67 -23,61.02 -23,97.02 0,36.01 7.66,68.18 23,96.52 15.34,28.34 36.51,50.51 63.52,66.51 27,16 57.51,24 91.52,24zm660.16 -14c12,0 22.16,4.67 30.51,14 8.33,9.33 12.5,21.34 12.5,36.01 0,14.67 -5.51,26.68 -16.51,36.02 -11,9.33 -25.17,14 -42.51,14l-18 0c-32.68,0 -62.52,-8.5 -89.53,-25.5 -27,-17.01 -48.18,-40.18 -63.51,-69.52 -15.34,-29.34 -23.01,-62.35 -23.01,-99.02l0 -247.06 -46.01 0c-14,0 -25.33,-4 -34.01,-12 -8.66,-7.99 -13,-18 -13,-30 0,-13.34 4.34,-24.01 13,-32.01 8.67,-8 20.01,-12 34.01,-12l46.01 0 0 -144.04c0,-14.67 4.67,-26.67 14.01,-36.01 9.33,-9.33 21.34,-14 36.01,-14 14.67,0 26.67,4.67 36.01,14 9.34,9.33 14.01,21.34 14.01,36.01l0 144.04 85.01 0c14.01,0 25.34,4 34.02,12 8.66,7.99 13,18.67 13,32.01 0,12 -4.34,22 -13,30 -8.67,8 -20.01,12 -34.02,12l-85.01 0 0 247.06c0,26.67 7.33,49.02 22,67.01 14.67,18.01 32.67,27.01 54.01,27.01l34.01 0zm401.1 0c12,0 22.16,4.67 30.51,14 8.33,9.33 12.5,21.34 12.5,36.01 0,14.67 -5.51,26.68 -16.51,36.02 -11,9.33 -25.17,14 -42.51,14l-18 0c-32.68,0 -62.52,-8.5 -89.53,-25.5 -27,-17.01 -48.18,-40.18 -63.51,-69.52 -15.34,-29.34 -23.01,-62.35 -23.01,-99.02l0 -247.06 -46.01 0c-14,0 -25.33,-4 -34.01,-12 -8.66,-7.99 -13,-18 -13,-30 0,-13.34 4.34,-24.01 13,-32.01 8.67,-8 20.01,-12 34.01,-12l46.01 0 0 -144.04c0,-14.67 4.67,-26.67 14.01,-36.01 9.33,-9.33 21.34,-14 36.01,-14 14.67,0 26.67,4.67 36.01,14 9.34,9.33 14.01,21.34 14.01,36.01l0 144.04 85.01 0c14.01,0 25.34,4 34.02,12 8.66,7.99 13,18.67 13,32.01 0,12 -4.34,22 -13,30 -8.67,8 -20.01,12 -34.02,12l-85.01 0 0 247.06c0,26.67 7.33,49.02 22,67.01 14.67,18.01 32.67,27.01 54.01,27.01l34.01 0zm197.05 116.02c-18.67,0 -34.85,-6.83 -48.52,-20.5 -13.66,-13.67 -20.5,-29.84 -20.5,-48.52 0,-19.34 6.84,-35.85 20.5,-49.51 13.67,-13.67 29.85,-20.51 48.52,-20.51 18.67,0 34.84,6.84 48.51,20.51 13.67,13.66 20.51,30.17 20.51,49.51 0,18.68 -6.67,34.85 -20.01,48.52 -13.33,13.67 -29.67,20.5 -49.01,20.5zm1242.29 -797.19c14.67,0 27.01,5.01 37.01,15.01 10,9.99 15,22.33 15,37l0 677.16c0,14.67 -5.17,27.01 -15.5,37.01 -10.34,10 -22.5,15 -36.52,15 -14.67,0 -27,-5 -37,-15 -10,-10 -15,-22.34 -15,-37.01l0 -497.12 -242.06 493.12c-11.33,17.34 -26.33,26 -45.01,26 -22,0 -38,-10.33 -48.01,-31.01l-239.06 -479.11 0 488.12c0,14.67 -5.01,27.01 -15.01,37.01 -10,10 -22.33,15 -37,15 -14.67,0 -27,-5 -37,-15 -10,-10 -15.01,-22.34 -15.01,-37.01l0 -677.16c0,-14.67 5.01,-27.01 15.01,-37 10,-10 22.33,-15.01 37,-15.01 20.01,0 35.35,9.33 46.01,28.01l297.08 595.13 289.06 -595.13c10.67,-18.68 26.01,-28.01 46.01,-28.01zm490.12 230.05c51.34,0 97.85,12.17 139.53,36.52 41.67,24.33 74.68,57.68 99.02,100.02 24.34,42.34 36.51,89.52 36.51,141.53l0 223.05c0,14.67 -4.83,26.84 -14.5,36.52 -9.66,9.66 -21.84,14.5 -36.51,14.5 -14.67,0 -26.84,-4.84 -36.52,-14.5 -9.66,-9.67 -14.5,-21.85 -14.5,-36.52l0 -37c-23.33,28.67 -51.67,51.02 -85.02,67.01 -33.34,16.01 -69.35,24 -108.03,24 -48.01,0 -91.52,-12 -130.53,-36.01 -39,-24 -69.68,-57.18 -92.02,-99.52 -22.34,-42.34 -33.51,-89.52 -33.51,-141.53 0,-52.01 12,-99.19 36.01,-141.53 24,-42.34 57.18,-75.69 99.52,-100.02 42.34,-24.34 89.19,-36.52 140.53,-36.52zm0 465.11c33.34,0 63.52,-8.16 90.52,-24.5 27.01,-16.34 48.19,-38.67 63.52,-67.01 15.34,-28.34 23,-60.19 23,-95.52 0,-35.35 -7.66,-67.35 -23,-96.02 -15.33,-28.67 -36.51,-51.18 -63.52,-67.51 -27,-16.34 -57.18,-24.5 -90.52,-24.5 -33.34,0 -63.52,8.16 -90.52,24.5 -27.01,16.34 -48.35,38.84 -64.02,67.51 -15.67,28.67 -23.5,60.68 -23.5,96.02 0,35.34 7.83,67.18 23.5,95.52 15.67,28.34 37,50.68 64.02,67.01 27,16.34 57.18,24.5 90.52,24.5zm660.16 -14c12,0 22.16,4.67 30.51,14 8.33,9.33 12.5,21.34 12.5,36.01 0,14.67 -5.51,26.68 -16.51,36.02 -11,9.33 -25.17,14 -42.51,14l-18 0c-32.68,0 -62.52,-8.5 -89.53,-25.5 -27,-17.01 -48.18,-40.18 -63.51,-69.52 -15.34,-29.34 -23.01,-62.35 -23.01,-99.02l0 -247.06 -46.01 0c-14,0 -25.33,-4 -34.01,-12 -8.66,-7.99 -13,-18 -13,-30 0,-13.34 4.34,-24.01 13,-32.01 8.67,-8 20.01,-12 34.01,-12l46.01 0 0 -144.04c0,-14.67 4.67,-26.67 14.01,-36.01 9.33,-9.33 21.34,-14 36.01,-14 14.67,0 26.67,4.67 36.01,14 9.34,9.33 14.01,21.34 14.01,36.01l0 144.04 85.01 0c14.01,0 25.34,4 34.02,12 8.66,7.99 13,18.67 13,32.01 0,12 -4.34,22 -13,30 -8.67,8 -20.01,12 -34.02,12l-85.01 0 0 247.06c0,26.67 7.33,49.02 22,67.01 14.67,18.01 32.67,27.01 54.01,27.01l34.01 0zm401.1 0c12,0 22.16,4.67 30.51,14 8.33,9.33 12.5,21.34 12.5,36.01 0,14.67 -5.51,26.68 -16.51,36.02 -11,9.33 -25.17,14 -42.51,14l-18 0c-32.68,0 -62.52,-8.5 -89.53,-25.5 -27,-17.01 -48.18,-40.18 -63.51,-69.52 -15.34,-29.34 -23.01,-62.35 -23.01,-99.02l0 -247.06 -46.01 0c-14,0 -25.33,-4 -34.01,-12 -8.66,-7.99 -13,-18 -13,-30 0,-13.34 4.34,-24.01 13,-32.01 8.67,-8 20.01,-12 34.01,-12l46.01 0 0 -144.04c0,-14.67 4.67,-26.67 14.01,-36.01 9.33,-9.33 21.34,-14 36.01,-14 14.67,0 26.67,4.67 36.01,14 9.34,9.33 14.01,21.34 14.01,36.01l0 144.04 85.01 0c14.01,0 25.34,4 34.02,12 8.66,7.99 13,18.67 13,32.01 0,12 -4.34,22 -13,30 -8.67,8 -20.01,12 -34.02,12l-85.01 0 0 247.06c0,26.67 7.33,49.02 22,67.01 14.67,18.01 32.67,27.01 54.01,27.01l34.01 0zm659.15 -182.05c0,12.67 -4.33,23.17 -13,31.51 -8.66,8.33 -19.67,12.5 -33.01,12.5l-380.09 0c7.33,46.68 28.51,84.35 63.52,113.02 35.01,28.68 77.86,43.01 128.53,43.01 20.01,0 40.84,-3.67 62.52,-11 21.67,-7.33 39.5,-16.33 53.51,-27 9.33,-7.33 20.34,-11 33.01,-11 12.66,0 22.66,3.34 30,10 12,10 18.01,21.34 18.01,34.01 0,12 -5.34,22 -16,30.01 -22.67,18 -50.85,32.67 -84.52,44.01 -33.68,11.33 -65.86,17 -96.52,17 -54.68,0 -103.69,-11.83 -147.04,-35.51 -43.34,-23.67 -77.18,-56.51 -101.52,-98.52 -24.34,-42.01 -36.51,-89.69 -36.51,-143.03 0,-53.34 11.5,-101.19 34.51,-143.53 23,-42.35 55.01,-75.36 96.02,-99.02 41,-23.67 87.52,-35.52 139.53,-35.52 51.34,0 95.68,11.34 133.03,34.01 37.34,22.67 66.01,54.35 86.02,95.03 20.01,40.68 30,87.36 30,140.03zm-249.05 -183.05c-48.69,0 -88.19,13.34 -118.53,40.01 -30.34,26.67 -49.52,62.35 -57.52,107.03l333.08 0c-6.01,-44.68 -22.67,-80.36 -50.02,-107.03 -27.33,-26.67 -63.01,-40.01 -107.02,-40.01zm607.13 469.11c-53.34,0 -101.02,-11.83 -143.03,-35.51 -42.01,-23.67 -74.69,-56.51 -98.02,-98.52 -23.34,-42.01 -35,-89.69 -35,-143.03 0,-54.01 11.65,-102.03 35,-144.03 23.33,-42.01 56.01,-74.86 98.02,-98.52 42.01,-23.67 89.69,-35.52 143.03,-35.52 52.68,0 99.86,11.84 141.53,35.52 41.68,23.66 74.35,56.51 98.02,98.52 23.67,42 35.51,90.02 35.51,144.03 0,53.34 -11.66,101.02 -35.01,143.03 -23.33,42.01 -55.84,74.85 -97.52,98.52 -41.67,23.67 -89.19,35.51 -142.53,35.51zm0 -90.02c34.01,0 64.52,-8 91.53,-24 27,-16.01 48.01,-38.17 63.01,-66.51 15.01,-28.34 22.5,-60.52 22.5,-96.52 0,-36.01 -7.49,-68.35 -22.5,-97.02 -15,-28.67 -36.01,-51.02 -63.01,-67.01 -27.01,-16.01 -57.52,-24 -91.53,-24 -34.01,0 -64.52,7.99 -91.52,24 -27.01,16 -48.18,38.34 -63.52,67.01 -15.34,28.67 -23,61.02 -23,97.02 0,36.01 7.66,68.18 23,96.52 15.34,28.34 36.51,50.51 63.52,66.51 27,16 57.51,24 91.52,24zm978.23 96.02c-64.69,0 -123.53,-14.67 -176.54,-44.01 -53.01,-29.34 -89.52,-67.68 -109.53,-115.03 -3.34,-7.99 -5.01,-14.67 -5.01,-20.01 0,-9.99 3.67,-18.84 11,-26.5 7.33,-7.66 17.34,-12.84 30.01,-15.5 2,-0.67 5.34,-1.01 10,-1.01 10.67,0 20.84,3.17 30.51,9.5 9.66,6.34 16.84,14.84 21.51,25.51 12,26 35.68,48.01 71.01,66.01 35.35,18 74.35,27 117.03,27 50.02,0 92.36,-11.5 127.03,-34.51 34.68,-23 52,-54.51 52,-94.53 0,-38 -14.67,-70.51 -44.01,-97.52 -29.34,-27 -74.01,-43.51 -134.03,-49.51 -82.68,-8 -147.7,-32.18 -195.05,-72.52 -47.35,-40.34 -71.01,-90.85 -71.01,-151.54 0,-42.67 12.16,-79.52 36.51,-110.52 24.34,-31.01 57.68,-54.68 100.02,-71.01 42.34,-16.34 89.86,-24.51 142.53,-24.51 57.35,0 105.7,11.67 145.04,35.02 39.34,23.33 72.68,56.67 100.02,100.02 8,12.67 12,24.67 12,36.01 0,14.67 -6.67,26.67 -20.01,36.01 -7.33,4.67 -16,7.01 -26,7.01 -10,0 -19.34,-2.5 -28.01,-7.5 -8.66,-5 -15.34,-11.83 -20.01,-20.51 -18,-30 -40.5,-52.84 -67.51,-68.51 -27,-15.67 -61.18,-23.5 -102.52,-23.5 -50.69,0 -91.69,9.83 -123.04,29.51 -31.34,19.67 -47.01,48.18 -47.01,85.52 0,34.67 14,63.68 42.01,87.02 28,23.33 78.02,38.67 150.04,46.01 80.02,8 142.03,32.17 186.04,72.51 44.01,40.34 66.01,93.53 66.01,159.54 0,48.02 -13,89.19 -39.01,123.53 -26,34.35 -60.51,60.02 -103.52,77.03 -43.01,17 -89.19,25.5 -138.54,25.5zm663.16 -110.02c12,0 22.16,4.67 30.51,14 8.33,9.33 12.5,21.34 12.5,36.01 0,14.67 -5.51,26.68 -16.51,36.02 -11,9.33 -25.17,14 -42.51,14l-18 0c-32.68,0 -62.52,-8.5 -89.53,-25.5 -27,-17.01 -48.18,-40.18 -63.51,-69.52 -15.34,-29.34 -23.01,-62.35 -23.01,-99.02l0 -247.06 -46.01 0c-14,0 -25.33,-4 -34.01,-12 -8.66,-7.99 -13,-18 -13,-30 0,-13.34 4.34,-24.01 13,-32.01 8.67,-8 20.01,-12 34.01,-12l46.01 0 0 -144.04c0,-14.67 4.67,-26.67 14.01,-36.01 9.33,-9.33 21.34,-14 36.01,-14 14.67,0 26.67,4.67 36.01,14 9.34,9.33 14.01,21.34 14.01,36.01l0 144.04 85.01 0c14.01,0 25.34,4 34.02,12 8.66,7.99 13,18.67 13,32.01 0,12 -4.34,22 -13,30 -8.67,8 -20.01,12 -34.02,12l-85.01 0 0 247.06c0,26.67 7.33,49.02 22,67.01 14.67,18.01 32.67,27.01 54.01,27.01l34.01 0zm229.05 100.02c-14.67,0 -26.84,-4.84 -36.51,-14.5 -9.67,-9.67 -14.51,-21.85 -14.51,-36.52l0 -445.11c0,-15.33 4.84,-27.67 14.51,-37 9.66,-9.33 21.84,-14 36.51,-14 15.34,0 27.67,4.67 37,14 9.33,9.33 14.01,21.68 14.01,37l0 445.11c0,14.67 -4.68,26.84 -14.01,36.52 -9.33,9.66 -21.67,14.5 -37,14.5zm0 -636.16c-18.01,0 -33.51,-6.5 -46.51,-19.5 -13.01,-13.01 -19.51,-28.51 -19.51,-46.52 0,-18 6.5,-33.51 19.51,-46.51 13,-13 28.5,-19.51 46.51,-19.51 18.01,0 33.51,6.51 46.51,19.51 13,13 19.51,28.51 19.51,46.51 0,18.01 -6.51,33.51 -19.51,46.52 -13,13 -28.5,19.5 -46.51,19.5zm732.17 354.09c0,12.67 -4.33,23.17 -13,31.51 -8.66,8.33 -19.67,12.5 -33.01,12.5l-380.09 0c7.33,46.68 28.51,84.35 63.52,113.02 35.01,28.68 77.86,43.01 128.53,43.01 20.01,0 40.84,-3.67 62.52,-11 21.67,-7.33 39.5,-16.33 53.51,-27 9.33,-7.33 20.34,-11 33.01,-11 12.66,0 22.66,3.34 30,10 12,10 18.01,21.34 18.01,34.01 0,12 -5.34,22 -16,30.01 -22.67,18 -50.85,32.67 -84.52,44.01 -33.68,11.33 -65.86,17 -96.52,17 -54.68,0 -103.69,-11.83 -147.04,-35.51 -43.34,-23.67 -77.18,-56.51 -101.52,-98.52 -24.34,-42.01 -36.51,-89.69 -36.51,-143.03 0,-53.34 11.5,-101.19 34.51,-143.53 23,-42.35 55.01,-75.36 96.02,-99.02 41,-23.67 87.52,-35.52 139.53,-35.52 51.34,0 95.68,11.34 133.03,34.01 37.34,22.67 66.01,54.35 86.02,95.03 20.01,40.68 30,87.36 30,140.03zm-249.05 -183.05c-48.69,0 -88.19,13.34 -118.53,40.01 -30.34,26.67 -49.52,62.35 -57.52,107.03l333.08 0c-6.01,-44.68 -22.67,-80.36 -50.02,-107.03 -27.33,-26.67 -63.01,-40.01 -107.02,-40.01zm780.18 -75.02c8.66,4.01 15.34,9.5 20.01,16.51 4.67,7 7,14.84 7,23.5 0,6.01 -1.66,12.33 -5,19.01l-212.05 447.11c-10,22 -25.34,33.01 -46.02,33.01 -11.33,0 -20.67,-2.5 -28,-7.5 -7.33,-5 -14.01,-13.5 -20.01,-25.5l-212.06 -447.11c-2.67,-5.34 -4,-11.34 -4,-18.01 0,-18.01 9.33,-31.67 28.01,-41.01 6,-3.33 13,-5 21.01,-5 7.99,0 15.67,2.17 23,6.5 7.33,4.34 13,10.5 17,18.51l174.04 375.09 172.04 -375.09c4,-8 9.83,-14.17 17.51,-18.51 7.66,-4.33 15.83,-6.5 24.5,-6.5 8.66,0 16.34,1.67 23,5zm355.09 -11c51.34,0 97.85,12.17 139.53,36.52 41.67,24.33 74.68,57.68 99.02,100.02 24.34,42.34 36.51,89.52 36.51,141.53l0 223.05c0,14.67 -4.83,26.84 -14.5,36.52 -9.66,9.66 -21.84,14.5 -36.51,14.5 -14.67,0 -26.84,-4.84 -36.52,-14.5 -9.66,-9.67 -14.5,-21.85 -14.5,-36.52l0 -37c-23.33,28.67 -51.67,51.02 -85.02,67.01 -33.34,16.01 -69.35,24 -108.03,24 -48.01,0 -91.52,-12 -130.53,-36.01 -39,-24 -69.68,-57.18 -92.02,-99.52 -22.34,-42.34 -33.51,-89.52 -33.51,-141.53 0,-52.01 12,-99.19 36.01,-141.53 24,-42.34 57.18,-75.69 99.52,-100.02 42.34,-24.34 89.19,-36.52 140.53,-36.52zm0 465.11c33.34,0 63.52,-8.16 90.52,-24.5 27.01,-16.34 48.19,-38.67 63.52,-67.01 15.34,-28.34 23,-60.19 23,-95.52 0,-35.35 -7.66,-67.35 -23,-96.02 -15.33,-28.67 -36.51,-51.18 -63.52,-67.51 -27,-16.34 -57.18,-24.5 -90.52,-24.5 -33.34,0 -63.52,8.16 -90.52,24.5 -27.01,16.34 -48.35,38.84 -64.02,67.51 -15.67,28.67 -23.5,60.68 -23.5,96.02 0,35.34 7.83,67.18 23.5,95.52 15.67,28.34 37,50.68 64.02,67.01 27,16.34 57.18,24.5 90.52,24.5zm699.16 -466.11c46.02,0 87.36,10 124.04,30.01 36.67,20.01 65.35,49.18 86.02,87.52 20.67,38.34 31,84.52 31,138.54l0 246.05c0,14.67 -4.83,26.84 -14.5,36.52 -9.66,9.66 -21.84,14.5 -36.51,14.5 -14.67,0 -26.84,-4.84 -36.52,-14.5 -9.66,-9.67 -14.5,-21.85 -14.5,-36.52l0 -246.05c0,-54.01 -14.5,-94.86 -43.51,-122.54 -29.01,-27.67 -67.51,-41.5 -115.53,-41.5 -28,0 -53.5,5.67 -76.52,17 -23,11.34 -41,26.67 -54.01,46.01 -13,19.35 -19.5,41.01 -19.5,65.02l0 282.07c0,14.67 -4.67,26.84 -14.01,36.52 -9.33,9.66 -21.67,14.5 -37,14.5 -14.67,0 -26.84,-4.84 -36.51,-14.5 -9.67,-9.67 -14.51,-21.85 -14.51,-36.52l0 -446.11c0,-15.33 4.84,-27.67 14.51,-37 9.66,-9.33 21.84,-14 36.51,-14 15.34,0 27.67,4.67 37,14 9.34,9.33 14.01,21.68 14.01,37l0 11c21.34,-21.34 46.68,-37.83 76.02,-49.51 29.34,-11.67 60.68,-17.51 94.02,-17.51zm658.16 556.13c-53.34,0 -101.02,-11.83 -143.03,-35.51 -42.01,-23.67 -74.69,-56.51 -98.02,-98.52 -23.34,-42.01 -35.01,-89.69 -35.01,-143.03 0,-54.01 11.66,-102.03 35.01,-144.03 23.33,-42.01 56.01,-74.86 98.02,-98.52 42.01,-23.67 89.69,-35.52 143.03,-35.52 52.68,0 99.86,11.84 141.53,35.52 41.68,23.66 74.35,56.51 98.02,98.52 23.67,42 35.51,90.02 35.51,144.03 0,53.34 -11.66,101.02 -35.01,143.03 -23.33,42.01 -55.84,74.85 -97.52,98.52 -41.67,23.67 -89.19,35.51 -142.53,35.51zm0 -90.02c34.01,0 64.52,-8 91.53,-24 27,-16.01 48.01,-38.17 63.01,-66.51 15.01,-28.34 22.5,-60.52 22.5,-96.52 0,-36.01 -7.49,-68.35 -22.5,-97.02 -15,-28.67 -36.01,-51.02 -63.01,-67.01 -27.01,-16.01 -57.52,-24 -91.53,-24 -34.01,0 -64.52,7.99 -91.52,24 -27.01,16 -48.18,38.34 -63.52,67.01 -15.34,28.67 -23,61.02 -23,97.02 0,36.01 7.66,68.18 23,96.52 15.34,28.34 36.51,50.51 63.52,66.51 27,16 57.51,24 91.52,24z"/>
   <g>
    <path class="fil6" d="M7822.88 12298.14c31.95,0 61.1,7.57 87.44,22.71 26.35,15.15 46.99,35.9 61.93,62.24 14.93,26.35 22.4,55.7 22.4,88.07 0,32.36 -6.96,61.72 -20.86,88.06 -13.89,26.35 -32.98,46.99 -57.25,61.93 -24.27,14.94 -51.34,22.4 -81.22,22.4 -24.06,0 -46.47,-4.98 -67.21,-14.94 -20.75,-9.95 -38.37,-23.85 -52.89,-41.69l0 168.04c0,9.54 -2.91,17.22 -8.71,23.02 -5.82,5.82 -13.49,8.71 -23.03,8.71 -9.12,0 -16.7,-2.9 -22.71,-8.71 -6.02,-5.81 -9.02,-13.48 -9.02,-23.02l0 -283.8c0,-32.37 7.57,-61.72 22.71,-88.07 15.15,-26.34 35.69,-47.09 61.62,-62.24 25.93,-15.14 54.87,-22.71 86.82,-22.71zm0 289.4c20.75,0 39.52,-5.09 56.32,-15.25 16.81,-10.16 30.08,-24.06 39.83,-41.7 9.75,-17.63 14.62,-37.44 14.62,-59.43 0,-22 -4.87,-41.91 -14.62,-59.75 -9.75,-17.84 -23.02,-31.85 -39.83,-42.01 -16.8,-10.16 -35.58,-15.25 -56.32,-15.25 -20.75,0 -39.52,5.09 -56.32,15.25 -16.81,10.16 -29.98,24.17 -39.52,42.01 -9.54,17.84 -14.32,37.75 -14.32,59.75 0,21.99 4.78,41.8 14.32,59.43 9.54,17.64 22.71,31.54 39.52,41.7 16.8,10.16 35.58,15.25 56.32,15.25zm390.22 56.01c-28.22,0 -54.77,-4.36 -79.67,-13.07 -24.89,-8.71 -44.4,-20.12 -58.5,-34.23 -5.4,-5.4 -8.09,-11.82 -8.09,-19.3 0,-9.95 4.15,-18.05 12.45,-24.27 7.88,-5.81 15.14,-8.71 21.78,-8.71 8.3,0 16.19,3.74 23.65,11.2 7.88,8.71 19.71,16.29 35.48,22.72 15.77,6.43 32.57,9.64 50.42,9.64 23.64,0 42,-3.94 55.07,-11.82 13.07,-7.88 19.61,-18.47 19.61,-31.75 0,-12.86 -6.44,-23.54 -19.3,-32.05 -12.86,-8.5 -34.65,-15.66 -65.35,-21.48 -79.67,-15.35 -119.5,-48.13 -119.5,-98.33 0,-20.33 6.03,-37.54 18.06,-51.65 12.03,-14.1 27.79,-24.68 47.3,-31.74 19.5,-7.06 40.24,-10.58 62.24,-10.58 26.96,0 51.14,4.36 72.5,13.07 21.37,8.71 38.27,20.75 50.73,36.1 5.4,6.65 8.09,13.28 8.09,19.92 0,7.06 -3.53,13.49 -10.58,19.3 -4.57,3.32 -10.37,4.98 -17.43,4.98 -10.79,0 -20.54,-3.94 -29.25,-11.82 -10.37,-9.54 -21.37,-16.29 -32.99,-20.23 -11.61,-3.95 -25.72,-5.92 -42.32,-5.92 -19.09,0 -34.75,3.22 -46.99,9.64 -12.24,6.44 -18.36,15.46 -18.36,27.08 0,8.29 2.07,15.24 6.23,20.85 4.15,5.6 12.03,10.78 23.64,15.56 11.62,4.77 28.42,9.43 50.42,14 45.22,9.13 77.28,21.79 96.15,37.96 18.88,16.18 28.32,37.13 28.32,62.86 0,19.09 -5.19,36.42 -15.56,51.97 -10.37,15.56 -25.62,27.79 -45.75,36.71 -20.13,8.92 -44.29,13.38 -72.5,13.38zm252.05 -2.49c-9.12,0 -16.7,-3.01 -22.71,-9.02 -6.02,-6.02 -9.02,-13.59 -9.02,-22.71l0 -276.95c0,-9.54 3.01,-17.22 9.02,-23.03 6.02,-5.81 13.59,-8.71 22.71,-8.71 9.54,0 17.22,2.91 23.02,8.71 5.82,5.82 8.71,13.49 8.71,23.03l0 276.95c0,9.12 -2.9,16.7 -8.71,22.71 -5.81,6.02 -13.48,9.02 -23.02,9.02zm0 -395.82c-11.2,0 -20.85,-4.05 -28.94,-12.14 -8.08,-8.09 -12.13,-17.74 -12.13,-28.94 0,-11.2 4.05,-20.85 12.13,-28.94 8.09,-8.08 17.74,-12.13 28.94,-12.13 11.2,0 20.85,4.05 28.94,12.13 8.09,8.09 12.14,17.74 12.14,28.94 0,11.2 -4.05,20.85 -12.14,28.94 -8.09,8.09 -17.74,12.14 -28.94,12.14zm304.32 398.31c-32.78,0 -62.24,-7.46 -88.37,-22.4 -26.14,-14.94 -46.57,-35.58 -61.3,-61.93 -14.73,-26.34 -22.09,-55.7 -22.09,-88.06 0,-33.2 7.17,-62.97 21.48,-89.31 14.31,-26.35 34.33,-46.89 60.05,-61.62 25.72,-14.73 54.76,-22.09 87.13,-22.09 48.96,0 89.62,18.68 121.99,56.01 4.15,4.57 6.22,9.96 6.22,16.19 0,9.12 -4.56,16.8 -13.69,23.02 -4.15,2.91 -8.91,4.36 -14.31,4.36 -9.54,0 -17.64,-3.74 -24.27,-11.2 -10.37,-11.2 -21.68,-19.4 -33.92,-24.58 -12.24,-5.19 -26.24,-7.78 -42.01,-7.78 -31.95,0 -57.88,10.69 -77.8,32.06 -19.92,21.37 -29.87,49.69 -29.87,84.95 0,22.4 4.67,42.42 14,60.06 9.33,17.63 22.4,31.43 39.2,41.38 16.81,9.96 36,14.94 57.57,14.94 28.22,0 51.04,-7.27 68.46,-21.79 7.88,-5.81 15.56,-8.71 23.02,-8.71 5.82,0 11.2,1.87 16.19,5.61 7.87,6.64 11.82,14.11 11.82,22.4 0,6.23 -2.49,11.82 -7.46,16.8 -29.88,27.8 -67.22,41.7 -112.03,41.7zm374.04 0c-33.19,0 -62.86,-7.36 -89,-22.09 -26.13,-14.73 -46.47,-35.17 -60.99,-61.3 -14.52,-26.14 -21.79,-55.81 -21.79,-89 0,-33.61 7.27,-63.49 21.79,-89.62 14.52,-26.14 34.86,-46.58 60.99,-61.31 26.14,-14.73 55.81,-22.09 89,-22.09 32.78,0 62.14,7.36 88.07,22.09 25.93,14.73 46.26,35.17 60.99,61.31 14.73,26.13 22.09,56.01 22.09,89.62 0,33.19 -7.27,62.86 -21.79,89 -14.52,26.13 -34.75,46.57 -60.68,61.3 -25.93,14.73 -55.49,22.09 -88.69,22.09zm0 -56.01c21.17,0 40.14,-4.98 56.95,-14.94 16.8,-9.95 29.87,-23.75 39.2,-41.38 9.34,-17.64 14.01,-37.65 14.01,-60.06 0,-22.4 -4.67,-42.53 -14.01,-60.37 -9.33,-17.85 -22.4,-31.74 -39.2,-41.7 -16.81,-9.95 -35.79,-14.94 -56.95,-14.94 -21.16,0 -40.14,4.99 -56.94,14.94 -16.81,9.96 -29.98,23.85 -39.52,41.7 -9.54,17.84 -14.31,37.96 -14.31,60.37 0,22.4 4.77,42.42 14.31,60.06 9.54,17.63 22.71,31.43 39.52,41.38 16.8,9.96 35.79,14.94 56.94,14.94zm346.65 53.52c-17.84,0 -33.92,-4.88 -48.23,-14.63 -14.32,-9.74 -25.41,-23.43 -33.3,-41.07 -7.88,-17.64 -11.82,-37.44 -11.82,-59.44l0 -339.81c0,-9.12 2.9,-16.6 8.7,-22.4 5.82,-5.81 13.28,-8.71 22.4,-8.71 9.13,0 16.6,2.91 22.41,8.71 5.81,5.81 8.7,13.28 8.7,22.4l0 339.81c0,15.36 2.91,28.01 8.71,37.96 5.82,9.96 13.28,14.94 22.4,14.94l15.56 0c8.3,0 15.04,2.91 20.23,8.71 5.19,5.81 7.78,13.28 7.78,22.4 0,9.12 -3.95,16.6 -11.82,22.4 -7.88,5.81 -18.05,8.71 -30.5,8.71l-1.25 0zm241.48 2.49c-33.19,0 -62.86,-7.36 -89,-22.09 -26.13,-14.73 -46.47,-35.17 -60.99,-61.3 -14.52,-26.14 -21.79,-55.81 -21.79,-89 0,-33.61 7.27,-63.49 21.79,-89.62 14.52,-26.14 34.86,-46.58 60.99,-61.31 26.14,-14.73 55.81,-22.09 89,-22.09 32.78,0 62.14,7.36 88.07,22.09 25.93,14.73 46.26,35.17 60.99,61.31 14.73,26.13 22.09,56.01 22.09,89.62 0,33.19 -7.27,62.86 -21.79,89 -14.52,26.13 -34.75,46.57 -60.68,61.3 -25.93,14.73 -55.49,22.09 -88.69,22.09zm0 -56.01c21.17,0 40.14,-4.98 56.95,-14.94 16.8,-9.95 29.87,-23.75 39.2,-41.38 9.34,-17.64 14.01,-37.65 14.01,-60.06 0,-22.4 -4.67,-42.53 -14.01,-60.37 -9.33,-17.85 -22.4,-31.74 -39.2,-41.7 -16.81,-9.95 -35.79,-14.94 -56.95,-14.94 -21.16,0 -40.14,4.99 -56.94,14.94 -16.81,9.96 -29.98,23.85 -39.52,41.7 -9.54,17.84 -14.31,37.96 -14.31,60.37 0,22.4 4.77,42.42 14.31,60.06 9.54,17.63 22.71,31.43 39.52,41.38 16.8,9.96 35.79,14.94 56.94,14.94zm420.09 -289.4c32.78,0 62.14,7.36 88.07,22.09 25.93,14.73 46.26,35.17 60.99,61.31 14.73,26.13 22.09,56.01 22.09,89.62l0 134.43c0,32.78 -7.27,62.66 -21.79,89.62 -14.52,26.97 -34.96,48.24 -61.3,63.8 -26.35,15.56 -56.12,23.33 -89.31,23.33 -29.88,0 -57.67,-5.91 -83.4,-17.74 -25.72,-11.82 -47.3,-28.73 -64.73,-50.72 -4.56,-5.82 -6.85,-11.62 -6.85,-17.43 0,-8.71 4.36,-16.18 13.07,-22.4 5.81,-3.74 11.62,-5.61 17.43,-5.61 10.37,0 18.88,4.36 25.51,13.07 11.2,14.52 25.31,25.62 42.32,33.3 17.02,7.67 36.31,11.51 57.88,11.51 20.34,0 38.79,-4.88 55.39,-14.62 16.6,-9.75 29.88,-24.06 39.83,-42.95 9.95,-18.88 14.94,-41.38 14.94,-67.52l0 -30.5c-12.86,22.82 -29.88,40.66 -51.04,53.52 -21.17,12.87 -45.02,19.3 -71.57,19.3 -30.71,0 -58.19,-7.36 -82.46,-22.09 -24.27,-14.73 -43.15,-35.17 -56.64,-61.3 -13.48,-26.14 -20.23,-55.81 -20.23,-89 0,-33.61 7.27,-63.49 21.79,-89.62 14.52,-26.14 34.86,-46.58 60.99,-61.31 26.14,-14.73 55.81,-22.09 89,-22.09zm0 289.4c21.17,0 40.14,-4.98 56.95,-14.94 16.8,-9.95 29.87,-23.75 39.2,-41.38 9.34,-17.64 14.01,-37.65 14.01,-60.06 0,-22.4 -4.67,-42.53 -14.01,-60.37 -9.33,-17.85 -22.4,-31.74 -39.2,-41.7 -16.81,-9.95 -35.79,-14.94 -56.95,-14.94 -21.16,0 -40.14,4.99 -56.94,14.94 -16.81,9.96 -29.98,23.85 -39.52,41.7 -9.54,17.84 -14.31,37.96 -14.31,60.37 0,22.4 4.77,42.42 14.31,60.06 9.54,17.63 22.71,31.43 39.52,41.38 16.8,9.96 35.79,14.94 56.94,14.94zm303.71 53.52c-9.12,0 -16.7,-3.01 -22.71,-9.02 -6.02,-6.02 -9.02,-13.59 -9.02,-22.71l0 -276.95c0,-9.54 3.01,-17.22 9.02,-23.03 6.02,-5.81 13.59,-8.71 22.71,-8.71 9.54,0 17.22,2.91 23.02,8.71 5.82,5.82 8.71,13.49 8.71,23.03l0 276.95c0,9.12 -2.9,16.7 -8.71,22.71 -5.81,6.02 -13.48,9.02 -23.02,9.02zm0 -395.82c-11.2,0 -20.85,-4.05 -28.94,-12.14 -8.08,-8.09 -12.13,-17.74 -12.13,-28.94 0,-11.2 4.05,-20.85 12.13,-28.94 8.09,-8.08 17.74,-12.13 28.94,-12.13 11.2,0 20.85,4.05 28.94,12.13 8.09,8.09 12.14,17.74 12.14,28.94 0,11.2 -4.05,20.85 -12.14,28.94 -8.09,8.09 -17.74,12.14 -28.94,12.14zm304.33 52.89c31.95,0 60.89,7.57 86.82,22.71 25.93,15.15 46.47,35.9 61.62,62.24 15.14,26.35 22.71,55.7 22.71,88.07l0 138.79c0,9.12 -3.01,16.7 -9.02,22.71 -6.02,6.02 -13.59,9.02 -22.71,9.02 -9.13,0 -16.7,-3.01 -22.71,-9.02 -6.02,-6.02 -9.02,-13.59 -9.02,-22.71l0 -23.02c-14.53,17.84 -32.16,31.74 -52.9,41.69 -20.75,9.96 -43.15,14.94 -67.21,14.94 -29.88,0 -56.95,-7.46 -81.22,-22.4 -24.27,-14.94 -43.35,-35.58 -57.25,-61.93 -13.9,-26.34 -20.86,-55.7 -20.86,-88.06 0,-32.37 7.47,-61.72 22.4,-88.07 14.94,-26.34 35.59,-47.09 61.93,-62.24 26.35,-15.14 55.49,-22.71 87.44,-22.71zm0 289.4c20.75,0 39.52,-5.09 56.33,-15.25 16.8,-10.16 29.97,-24.06 39.51,-41.7 9.54,-17.63 14.32,-37.44 14.32,-59.43 0,-22 -4.78,-41.91 -14.32,-59.75 -9.54,-17.84 -22.71,-31.85 -39.51,-42.01 -16.81,-10.16 -35.59,-15.25 -56.33,-15.25 -20.75,0 -39.51,5.09 -56.32,15.25 -16.8,10.16 -30.08,24.17 -39.83,42.01 -9.75,17.84 -14.62,37.75 -14.62,59.75 0,21.99 4.87,41.8 14.62,59.43 9.75,17.64 23.03,31.54 39.83,41.7 16.81,10.16 35.58,15.25 56.32,15.25zm936.04 -121.99c0,7.88 -2.7,14.42 -8.09,19.61 -5.39,5.19 -12.23,7.78 -20.54,7.78l-236.5 0c4.57,29.04 17.74,52.48 39.52,70.32 21.79,17.84 48.44,26.76 79.98,26.76 12.44,0 25.41,-2.28 38.89,-6.85 13.49,-4.57 24.58,-10.16 33.3,-16.8 5.81,-4.57 12.66,-6.86 20.54,-6.86 7.88,0 14.11,2.08 18.68,6.23 7.46,6.23 11.2,13.28 11.2,21.17 0,7.46 -3.32,13.69 -9.96,18.67 -14.1,11.2 -31.64,20.34 -52.58,27.38 -20.96,7.06 -40.97,10.58 -60.06,10.58 -34.03,0 -64.52,-7.36 -91.49,-22.09 -26.97,-14.73 -48.03,-35.17 -63.18,-61.3 -15.14,-26.14 -22.71,-55.81 -22.71,-89 0,-33.2 7.17,-62.97 21.48,-89.31 14.31,-26.35 34.23,-46.89 59.75,-61.62 25.51,-14.73 54.45,-22.09 86.82,-22.09 31.95,0 59.54,7.06 82.77,21.17 23.23,14.1 41.07,33.82 53.52,59.12 12.44,25.31 18.67,54.35 18.67,87.13zm-154.96 -113.89c-30.29,0 -54.87,8.3 -73.75,24.89 -18.89,16.6 -30.81,38.79 -35.79,66.59l207.24 0c-3.73,-27.8 -14.1,-50 -31.12,-66.59 -17.01,-16.59 -39.2,-24.89 -66.58,-24.89zm517.19 -196.67c9.54,0 17.22,2.91 23.02,8.71 5.81,5.81 8.71,13.48 8.71,23.02l0 283.81c0,32.36 -7.57,61.72 -22.71,88.06 -15.15,26.35 -35.69,47.09 -61.62,62.24 -25.93,15.14 -54.87,22.71 -86.82,22.71 -31.95,0 -61.09,-7.57 -87.44,-22.71 -26.34,-15.15 -46.99,-35.89 -61.93,-62.24 -14.93,-26.34 -22.4,-55.7 -22.4,-88.06 0,-32.37 6.96,-61.72 20.86,-88.07 13.9,-26.34 32.98,-46.99 57.25,-61.93 24.27,-14.93 51.34,-22.4 81.22,-22.4 24.06,0 46.47,4.99 67.21,14.94 20.75,9.95 38.37,23.85 52.9,41.7l0 -168.05c0,-9.54 3.01,-17.22 9.02,-23.02 6.02,-5.81 13.58,-8.71 22.71,-8.71zm-139.41 432.55c20.75,0 39.52,-5.09 56.33,-15.25 16.8,-10.16 29.97,-24.16 39.51,-42.01 9.54,-17.84 14.32,-37.75 14.32,-59.74 0,-22 -4.78,-41.81 -14.32,-59.44 -9.54,-17.64 -22.71,-31.54 -39.51,-41.7 -16.81,-10.16 -35.59,-15.25 -56.33,-15.25 -20.75,0 -39.51,5.09 -56.32,15.25 -16.8,10.16 -30.08,24.06 -39.83,41.7 -9.75,17.63 -14.62,37.44 -14.62,59.44 0,21.99 4.87,41.9 14.62,59.74 9.75,17.85 23.03,31.85 39.83,42.01 16.81,10.16 35.58,15.25 56.32,15.25zm563.87 -287.53c9.54,0 17.22,2.91 23.02,8.71 5.82,5.81 8.71,13.48 8.71,23.02l0 277.58c0,9.12 -2.9,16.7 -8.71,22.71 -5.81,6.02 -13.48,9.02 -23.02,9.02 -9.12,0 -16.7,-3.01 -22.71,-9.02 -6.02,-6.02 -9.02,-13.59 -9.02,-22.71l0 -6.85c-13.28,13.27 -29.05,23.54 -47.3,30.81 -18.26,7.26 -37.76,10.88 -58.51,10.88 -28.63,0 -54.35,-6.22 -77.17,-18.67 -22.82,-12.45 -40.66,-30.6 -53.52,-54.45 -12.86,-23.86 -19.3,-52.59 -19.3,-86.2l0 -153.11c0,-9.12 3.01,-16.7 9.02,-22.71 6.02,-6.02 13.59,-9.02 22.71,-9.02 9.13,0 16.7,3.01 22.71,9.02 6.02,6.02 9.02,13.59 9.02,22.71l0 153.11c0,33.61 9.03,59.02 27.08,76.24 18.05,17.22 42,25.83 71.88,25.83 17.43,0 33.3,-3.53 47.61,-10.58 14.32,-7.06 25.52,-16.6 33.61,-28.63 8.09,-12.03 12.14,-25.51 12.14,-40.45l0 -175.51c0,-9.54 3.01,-17.22 9.02,-23.02 6.02,-5.81 13.59,-8.71 22.71,-8.71zm298.11 343.55c-32.78,0 -62.24,-7.46 -88.37,-22.4 -26.14,-14.94 -46.58,-35.58 -61.31,-61.93 -14.73,-26.34 -22.09,-55.7 -22.09,-88.06 0,-33.2 7.17,-62.97 21.48,-89.31 14.31,-26.35 34.34,-46.89 60.06,-61.62 25.72,-14.73 54.76,-22.09 87.13,-22.09 48.96,0 89.62,18.68 121.99,56.01 4.15,4.57 6.22,9.96 6.22,16.19 0,9.12 -4.56,16.8 -13.69,23.02 -4.15,2.91 -8.91,4.36 -14.31,4.36 -9.54,0 -17.64,-3.74 -24.27,-11.2 -10.37,-11.2 -21.68,-19.4 -33.92,-24.58 -12.24,-5.19 -26.24,-7.78 -42.01,-7.78 -31.95,0 -57.88,10.69 -77.8,32.06 -19.92,21.37 -29.87,49.69 -29.87,84.95 0,22.4 4.67,42.42 14,60.06 9.33,17.63 22.4,31.43 39.2,41.38 16.81,9.96 36,14.94 57.57,14.94 28.22,0 51.04,-7.27 68.46,-21.79 7.88,-5.81 15.56,-8.71 23.02,-8.71 5.82,0 11.2,1.87 16.19,5.61 7.87,6.64 11.82,14.11 11.82,22.4 0,6.23 -2.49,11.82 -7.46,16.8 -29.88,27.8 -67.22,41.7 -112.03,41.7zm374.04 -345.41c31.95,0 60.89,7.57 86.82,22.71 25.93,15.15 46.47,35.9 61.62,62.24 15.14,26.35 22.71,55.7 22.71,88.07l0 138.79c0,9.12 -3.01,16.7 -9.02,22.71 -6.02,6.02 -13.59,9.02 -22.71,9.02 -9.13,0 -16.7,-3.01 -22.71,-9.02 -6.02,-6.02 -9.02,-13.59 -9.02,-22.71l0 -23.02c-14.53,17.84 -32.16,31.74 -52.9,41.69 -20.75,9.96 -43.15,14.94 -67.21,14.94 -29.88,0 -56.95,-7.46 -81.22,-22.4 -24.27,-14.94 -43.35,-35.58 -57.25,-61.93 -13.9,-26.34 -20.86,-55.7 -20.86,-88.06 0,-32.37 7.47,-61.72 22.4,-88.07 14.94,-26.34 35.59,-47.09 61.93,-62.24 26.35,-15.14 55.49,-22.71 87.44,-22.71zm0 289.4c20.75,0 39.52,-5.09 56.33,-15.25 16.8,-10.16 29.97,-24.06 39.51,-41.7 9.54,-17.63 14.32,-37.44 14.32,-59.43 0,-22 -4.78,-41.91 -14.32,-59.75 -9.54,-17.84 -22.71,-31.85 -39.51,-42.01 -16.81,-10.16 -35.59,-15.25 -56.33,-15.25 -20.75,0 -39.51,5.09 -56.32,15.25 -16.8,10.16 -30.08,24.17 -39.83,42.01 -9.75,17.84 -14.62,37.75 -14.62,59.75 0,21.99 4.87,41.8 14.62,59.43 9.75,17.64 23.03,31.54 39.83,41.7 16.81,10.16 35.58,15.25 56.32,15.25zm491.66 -4.98c19.51,0 29.25,9.74 29.25,29.25 0,19.5 -9.74,29.25 -29.25,29.25l-212.23 0c-19.5,0 -29.25,-9.75 -29.25,-29.25 0,-8.29 1.87,-14.94 5.61,-19.92l176.13 -232.76 -158.71 0c-19.5,0 -29.25,-9.75 -29.25,-29.25 0,-19.51 9.75,-29.26 29.25,-29.26l212.24 0c19.5,0 29.25,9.75 29.25,29.26 0,8.29 -1.87,14.93 -5.61,19.91l-175.5 232.77 158.07 0zm148.13 58.5c-9.12,0 -16.7,-3.01 -22.71,-9.02 -6.02,-6.02 -9.02,-13.59 -9.02,-22.71l0 -276.95c0,-9.54 3.01,-17.22 9.02,-23.03 6.02,-5.81 13.59,-8.71 22.71,-8.71 9.54,0 17.22,2.91 23.02,8.71 5.82,5.82 8.71,13.49 8.71,23.03l0 276.95c0,9.12 -2.9,16.7 -8.71,22.71 -5.81,6.02 -13.48,9.02 -23.02,9.02zm0 -395.82c-11.2,0 -20.85,-4.05 -28.94,-12.14 -8.08,-8.09 -12.13,-17.74 -12.13,-28.94 0,-11.2 4.05,-20.85 12.13,-28.94 8.09,-8.08 17.74,-12.13 28.94,-12.13 11.2,0 20.85,4.05 28.94,12.13 8.09,8.09 12.14,17.74 12.14,28.94 0,11.2 -4.05,20.85 -12.14,28.94 -8.09,8.09 -17.74,12.14 -28.94,12.14zm304.33 398.31c-33.19,0 -62.86,-7.36 -89,-22.09 -26.13,-14.73 -46.47,-35.17 -60.99,-61.3 -14.52,-26.14 -21.79,-55.81 -21.79,-89 0,-33.61 7.27,-63.49 21.79,-89.62 14.52,-26.14 34.86,-46.58 60.99,-61.31 26.14,-14.73 55.81,-22.09 89,-22.09 32.78,0 62.14,7.36 88.07,22.09 25.93,14.73 46.26,35.17 60.99,61.31 14.73,26.13 22.09,56.01 22.09,89.62 0,33.19 -7.27,62.86 -21.79,89 -14.52,26.13 -34.75,46.57 -60.68,61.3 -25.93,14.73 -55.49,22.09 -88.69,22.09zm0 -56.01c21.17,0 40.14,-4.98 56.95,-14.94 16.8,-9.95 29.87,-23.75 39.2,-41.38 9.34,-17.64 14.01,-37.65 14.01,-60.06 0,-22.4 -4.67,-42.53 -14.01,-60.37 -9.33,-17.85 -22.4,-31.74 -39.2,-41.7 -16.81,-9.95 -35.79,-14.94 -56.95,-14.94 -21.16,0 -40.14,4.99 -56.94,14.94 -16.81,9.96 -29.98,23.85 -39.52,41.7 -9.54,17.84 -14.31,37.96 -14.31,60.37 0,22.4 4.77,42.42 14.31,60.06 9.54,17.63 22.71,31.43 39.52,41.38 16.8,9.96 35.79,14.94 56.94,14.94zm435.03 -290.02c28.63,0 54.35,6.23 77.18,18.67 22.81,12.45 40.65,30.6 53.52,54.46 12.86,23.85 19.29,52.58 19.29,86.19l0 153.11c0,9.12 -3.01,16.7 -9.02,22.71 -6.02,6.02 -13.59,9.02 -22.71,9.02 -9.12,0 -16.7,-3.01 -22.71,-9.02 -6.02,-6.02 -9.02,-13.59 -9.02,-22.71l0 -153.11c0,-33.61 -9.02,-59.02 -27.07,-76.24 -18.05,-17.22 -42.01,-25.82 -71.89,-25.82 -17.42,0 -33.3,3.53 -47.61,10.57 -14.31,7.06 -25.51,16.6 -33.61,28.63 -8.09,12.03 -12.13,25.52 -12.13,40.45l0 175.51c0,9.12 -2.91,16.7 -8.71,22.71 -5.82,6.02 -13.49,9.02 -23.03,9.02 -9.12,0 -16.7,-3.01 -22.71,-9.02 -6.02,-6.02 -9.02,-13.59 -9.02,-22.71l0 -277.57c0,-9.54 3.01,-17.22 9.02,-23.03 6.02,-5.81 13.59,-8.71 22.71,-8.71 9.54,0 17.22,2.91 23.03,8.71 5.81,5.82 8.71,13.49 8.71,23.03l0 6.85c13.27,-13.28 29.04,-23.55 47.3,-30.81 18.26,-7.27 37.75,-10.89 58.5,-10.89zm560.75 168.04c0,7.88 -2.7,14.42 -8.09,19.61 -5.39,5.19 -12.23,7.78 -20.54,7.78l-236.5 0c4.57,29.04 17.74,52.48 39.52,70.32 21.79,17.84 48.44,26.76 79.98,26.76 12.44,0 25.41,-2.28 38.89,-6.85 13.49,-4.57 24.58,-10.16 33.3,-16.8 5.81,-4.57 12.66,-6.86 20.54,-6.86 7.88,0 14.11,2.08 18.68,6.23 7.46,6.23 11.2,13.28 11.2,21.17 0,7.46 -3.32,13.69 -9.96,18.67 -14.1,11.2 -31.64,20.34 -52.58,27.38 -20.96,7.06 -40.97,10.58 -60.06,10.58 -34.03,0 -64.52,-7.36 -91.49,-22.09 -26.97,-14.73 -48.03,-35.17 -63.18,-61.3 -15.14,-26.14 -22.71,-55.81 -22.71,-89 0,-33.2 7.17,-62.97 21.48,-89.31 14.31,-26.35 34.23,-46.89 59.75,-61.62 25.51,-14.73 54.45,-22.09 86.82,-22.09 31.95,0 59.54,7.06 82.77,21.17 23.23,14.1 41.07,33.82 53.52,59.12 12.44,25.31 18.67,54.35 18.67,87.13zm-154.96 -113.89c-30.29,0 -54.87,8.3 -73.75,24.89 -18.89,16.6 -30.81,38.79 -35.79,66.59l207.24 0c-3.73,-27.8 -14.1,-50 -31.12,-66.59 -17.01,-16.59 -39.2,-24.89 -66.58,-24.89zm784.18 -53.52c29.88,0 56.95,7.47 81.22,22.4 24.27,14.94 43.36,35.59 57.25,61.93 13.9,26.35 20.86,55.7 20.86,88.07 0,32.36 -7.47,61.72 -22.4,88.06 -14.94,26.35 -35.58,47.09 -61.93,62.24 -26.34,15.14 -55.49,22.71 -87.44,22.71 -31.95,0 -60.89,-7.57 -86.82,-22.71 -25.93,-15.15 -46.47,-35.89 -61.62,-62.24 -15.14,-26.34 -22.71,-55.7 -22.71,-88.06l0 -283.81c0,-9.54 3.01,-17.22 9.02,-23.02 6.02,-5.81 13.59,-8.71 22.71,-8.71 9.54,0 17.22,2.91 23.03,8.71 5.81,5.81 8.71,13.48 8.71,23.02l0 168.05c14.52,-17.85 32.15,-31.75 52.89,-41.7 20.75,-9.95 43.15,-14.94 67.21,-14.94zm-12.44 289.4c20.75,0 39.52,-5.09 56.32,-15.25 16.81,-10.16 30.08,-24.16 39.83,-42.01 9.75,-17.84 14.62,-37.75 14.62,-59.74 0,-22 -4.87,-41.81 -14.62,-59.44 -9.75,-17.64 -23.02,-31.54 -39.83,-41.7 -16.8,-10.16 -35.58,-15.25 -56.32,-15.25 -20.75,0 -39.52,5.09 -56.32,15.25 -16.81,10.16 -29.98,24.06 -39.52,41.7 -9.54,17.63 -14.32,37.44 -14.32,59.44 0,21.99 4.78,41.9 14.32,59.74 9.54,17.85 22.71,31.85 39.52,42.01 16.8,10.16 35.58,15.25 56.32,15.25z"/>
    <path class="fil6" d="M16283.28 12465.55c0,7.88 -2.7,14.42 -8.09,19.61 -5.39,5.19 -12.23,7.78 -20.54,7.78l-236.5 0c4.57,29.04 17.74,52.48 39.52,70.32 21.79,17.84 48.44,26.76 79.98,26.76 12.44,0 25.41,-2.28 38.89,-6.85 13.49,-4.57 24.58,-10.16 33.3,-16.8 5.81,-4.57 12.66,-6.86 20.54,-6.86 7.88,0 14.11,2.08 18.68,6.23 7.46,6.23 11.2,13.28 11.2,21.17 0,7.46 -3.32,13.69 -9.96,18.67 -14.1,11.2 -31.64,20.34 -52.58,27.38 -20.96,7.06 -40.97,10.58 -60.06,10.58 -34.03,0 -64.52,-7.36 -91.49,-22.09 -26.97,-14.73 -48.03,-35.17 -63.18,-61.3 -15.14,-26.14 -22.71,-55.81 -22.71,-89 0,-33.2 7.17,-62.97 21.48,-89.31 14.31,-26.35 34.23,-46.89 59.75,-61.62 25.51,-14.73 54.45,-22.09 86.82,-22.09 31.95,0 59.54,7.06 82.77,21.17 23.23,14.1 41.07,33.82 53.52,59.12 12.44,25.31 18.67,54.35 18.67,87.13zm-154.96 -113.89c-30.29,0 -54.87,8.3 -73.75,24.89 -18.89,16.6 -30.81,38.79 -35.79,66.59l207.24 0c-3.73,-27.8 -14.1,-50 -31.12,-66.59 -17.01,-16.59 -39.2,-24.89 -66.58,-24.89zm405.15 -54.14c28.63,0 54.35,6.23 77.18,18.67 22.81,12.45 40.65,30.6 53.52,54.46 12.86,23.85 19.29,52.58 19.29,86.19l0 153.11c0,9.12 -3.01,16.7 -9.02,22.71 -6.02,6.02 -13.59,9.02 -22.71,9.02 -9.12,0 -16.7,-3.01 -22.71,-9.02 -6.02,-6.02 -9.02,-13.59 -9.02,-22.71l0 -153.11c0,-33.61 -9.02,-59.02 -27.07,-76.24 -18.05,-17.22 -42.01,-25.82 -71.89,-25.82 -17.42,0 -33.3,3.53 -47.61,10.57 -14.31,7.06 -25.51,16.6 -33.61,28.63 -8.09,12.03 -12.13,25.52 -12.13,40.45l0 175.51c0,9.12 -2.91,16.7 -8.71,22.71 -5.82,6.02 -13.49,9.02 -23.03,9.02 -9.12,0 -16.7,-3.01 -22.71,-9.02 -6.02,-6.02 -9.02,-13.59 -9.02,-22.71l0 -277.57c0,-9.54 3.01,-17.22 9.02,-23.03 6.02,-5.81 13.59,-8.71 22.71,-8.71 9.54,0 17.22,2.91 23.03,8.71 5.81,5.82 8.71,13.49 8.71,23.03l0 6.85c13.27,-13.28 29.04,-23.55 47.3,-30.81 18.26,-7.27 37.75,-10.89 58.5,-10.89zm560.75 168.04c0,7.88 -2.7,14.42 -8.09,19.61 -5.39,5.19 -12.23,7.78 -20.54,7.78l-236.5 0c4.57,29.04 17.74,52.48 39.52,70.32 21.79,17.84 48.44,26.76 79.98,26.76 12.44,0 25.41,-2.28 38.89,-6.85 13.49,-4.57 24.58,-10.16 33.3,-16.8 5.81,-4.57 12.66,-6.86 20.54,-6.86 7.88,0 14.11,2.08 18.68,6.23 7.46,6.23 11.2,13.28 11.2,21.17 0,7.46 -3.32,13.69 -9.96,18.67 -14.1,11.2 -31.64,20.34 -52.58,27.38 -20.96,7.06 -40.97,10.58 -60.06,10.58 -34.03,0 -64.52,-7.36 -91.49,-22.09 -26.97,-14.73 -48.03,-35.17 -63.18,-61.3 -15.14,-26.14 -22.71,-55.81 -22.71,-89 0,-33.2 7.17,-62.97 21.48,-89.31 14.31,-26.35 34.23,-46.89 59.75,-61.62 25.51,-14.73 54.45,-22.09 86.82,-22.09 31.95,0 59.54,7.06 82.77,21.17 23.23,14.1 41.07,33.82 53.52,59.12 12.44,25.31 18.67,54.35 18.67,87.13zm-154.96 -113.89c-30.29,0 -54.87,8.3 -73.75,24.89 -18.89,16.6 -30.81,38.79 -35.79,66.59l207.24 0c-3.73,-27.8 -14.1,-50 -31.12,-66.59 -17.01,-16.59 -39.2,-24.89 -66.58,-24.89zm359.72 291.89c-28.22,0 -54.77,-4.36 -79.67,-13.07 -24.89,-8.71 -44.4,-20.12 -58.5,-34.23 -5.4,-5.4 -8.09,-11.82 -8.09,-19.3 0,-9.95 4.15,-18.05 12.45,-24.27 7.88,-5.81 15.14,-8.71 21.78,-8.71 8.3,0 16.19,3.74 23.65,11.2 7.88,8.71 19.71,16.29 35.48,22.72 15.77,6.43 32.57,9.64 50.42,9.64 23.64,0 42,-3.94 55.07,-11.82 13.07,-7.88 19.61,-18.47 19.61,-31.75 0,-12.86 -6.44,-23.54 -19.3,-32.05 -12.86,-8.5 -34.65,-15.66 -65.35,-21.48 -79.67,-15.35 -119.5,-48.13 -119.5,-98.33 0,-20.33 6.03,-37.54 18.06,-51.65 12.03,-14.1 27.79,-24.68 47.3,-31.74 19.5,-7.06 40.24,-10.58 62.24,-10.58 26.96,0 51.14,4.36 72.5,13.07 21.37,8.71 38.27,20.75 50.73,36.1 5.4,6.65 8.09,13.28 8.09,19.92 0,7.06 -3.53,13.49 -10.58,19.3 -4.57,3.32 -10.37,4.98 -17.43,4.98 -10.79,0 -20.54,-3.94 -29.25,-11.82 -10.37,-9.54 -21.37,-16.29 -32.99,-20.23 -11.61,-3.95 -25.72,-5.92 -42.32,-5.92 -19.09,0 -34.75,3.22 -46.99,9.64 -12.24,6.44 -18.36,15.46 -18.36,27.08 0,8.29 2.07,15.24 6.23,20.85 4.15,5.6 12.03,10.78 23.64,15.56 11.62,4.77 28.42,9.43 50.42,14 45.22,9.13 77.28,21.79 96.15,37.96 18.88,16.18 28.32,37.13 28.32,62.86 0,19.09 -5.19,36.42 -15.56,51.97 -10.37,15.56 -25.62,27.79 -45.75,36.71 -20.13,8.92 -44.29,13.38 -72.5,13.38zm337.94 0c-28.22,0 -54.77,-4.36 -79.67,-13.07 -24.89,-8.71 -44.4,-20.12 -58.5,-34.23 -5.4,-5.4 -8.09,-11.82 -8.09,-19.3 0,-9.95 4.15,-18.05 12.45,-24.27 7.88,-5.81 15.14,-8.71 21.78,-8.71 8.3,0 16.19,3.74 23.65,11.2 7.88,8.71 19.71,16.29 35.48,22.72 15.77,6.43 32.57,9.64 50.42,9.64 23.64,0 42,-3.94 55.07,-11.82 13.07,-7.88 19.61,-18.47 19.61,-31.75 0,-12.86 -6.44,-23.54 -19.3,-32.05 -12.86,-8.5 -34.65,-15.66 -65.35,-21.48 -79.67,-15.35 -119.5,-48.13 -119.5,-98.33 0,-20.33 6.03,-37.54 18.06,-51.65 12.03,-14.1 27.79,-24.68 47.3,-31.74 19.5,-7.06 40.24,-10.58 62.24,-10.58 26.96,0 51.14,4.36 72.5,13.07 21.37,8.71 38.27,20.75 50.73,36.1 5.4,6.65 8.09,13.28 8.09,19.92 0,7.06 -3.53,13.49 -10.58,19.3 -4.57,3.32 -10.37,4.98 -17.43,4.98 -10.79,0 -20.54,-3.94 -29.25,-11.82 -10.37,-9.54 -21.37,-16.29 -32.99,-20.23 -11.61,-3.95 -25.72,-5.92 -42.32,-5.92 -19.09,0 -34.75,3.22 -46.99,9.64 -12.24,6.44 -18.36,15.46 -18.36,27.08 0,8.29 2.07,15.24 6.23,20.85 4.15,5.6 12.03,10.78 23.64,15.56 11.62,4.77 28.42,9.43 50.42,14 45.22,9.13 77.28,21.79 96.15,37.96 18.88,16.18 28.32,37.13 28.32,62.86 0,19.09 -5.19,36.42 -15.56,51.97 -10.37,15.56 -25.62,27.79 -45.75,36.71 -20.13,8.92 -44.29,13.38 -72.5,13.38zm519.66 -178c0,7.88 -2.7,14.42 -8.09,19.61 -5.39,5.19 -12.23,7.78 -20.54,7.78l-236.49 0c4.57,29.04 17.74,52.48 39.52,70.32 21.79,17.84 48.43,26.76 79.97,26.76 12.44,0 25.41,-2.28 38.89,-6.85 13.49,-4.57 24.58,-10.16 33.3,-16.8 5.81,-4.57 12.66,-6.86 20.54,-6.86 7.88,0 14.11,2.08 18.68,6.23 7.46,6.23 11.2,13.28 11.2,21.17 0,7.46 -3.32,13.69 -9.96,18.67 -14.1,11.2 -31.64,20.34 -52.58,27.38 -20.96,7.06 -40.97,10.58 -60.06,10.58 -34.03,0 -64.51,-7.36 -91.48,-22.09 -26.97,-14.73 -48.03,-35.17 -63.18,-61.3 -15.14,-26.14 -22.71,-55.81 -22.71,-89 0,-33.2 7.17,-62.97 21.48,-89.31 14.31,-26.35 34.23,-46.89 59.75,-61.62 25.51,-14.73 54.44,-22.09 86.81,-22.09 31.95,0 59.54,7.06 82.77,21.17 23.23,14.1 41.07,33.82 53.52,59.12 12.44,25.31 18.67,54.35 18.67,87.13zm-154.96 -113.89c-30.29,0 -54.86,8.3 -73.74,24.89 -18.89,16.6 -30.81,38.79 -35.79,66.59l207.23 0c-3.73,-27.8 -14.1,-50 -31.12,-66.59 -17.01,-16.59 -39.2,-24.89 -66.58,-24.89zm402.67 -54.76c21.99,0 39.2,3.32 51.65,9.95 12.45,6.64 18.67,14.94 18.67,24.89 0,2.91 -0.2,4.99 -0.62,6.23 -3.74,13.28 -12.03,19.92 -24.89,19.92 -2.08,0 -5.19,-0.41 -9.33,-1.25 -16.6,-2.9 -30.08,-4.35 -40.45,-4.35 -29.88,0 -53.94,6.85 -72.2,20.54 -18.26,13.69 -27.38,32.16 -27.38,55.39l0 181.73c0,9.96 -2.59,17.64 -7.77,23.02 -5.19,5.4 -12.97,8.09 -23.34,8.09 -9.95,0 -17.64,-2.59 -23.02,-7.77 -5.4,-5.19 -8.09,-12.97 -8.09,-23.34l0 -278.2c0,-9.95 2.7,-17.63 8.09,-23.02 5.39,-5.4 13.07,-8.09 23.02,-8.09 20.75,0 31.12,10.37 31.12,31.12l0 11.83c12.45,-14.53 27.8,-25.93 46.06,-34.24 18.26,-8.29 37.75,-12.44 58.5,-12.44zm416.36 168.66c0,7.88 -2.7,14.42 -8.09,19.61 -5.39,5.19 -12.23,7.78 -20.54,7.78l-236.5 0c4.57,29.04 17.74,52.48 39.52,70.32 21.79,17.84 48.44,26.76 79.98,26.76 12.44,0 25.41,-2.28 38.89,-6.85 13.49,-4.57 24.58,-10.16 33.3,-16.8 5.81,-4.57 12.66,-6.86 20.54,-6.86 7.88,0 14.11,2.08 18.68,6.23 7.46,6.23 11.2,13.28 11.2,21.17 0,7.46 -3.32,13.69 -9.96,18.67 -14.1,11.2 -31.64,20.34 -52.58,27.38 -20.96,7.06 -40.97,10.58 -60.06,10.58 -34.03,0 -64.52,-7.36 -91.49,-22.09 -26.97,-14.73 -48.03,-35.17 -63.18,-61.3 -15.14,-26.14 -22.71,-55.81 -22.71,-89 0,-33.2 7.17,-62.97 21.48,-89.31 14.31,-26.35 34.23,-46.89 59.75,-61.62 25.51,-14.73 54.45,-22.09 86.82,-22.09 31.95,0 59.54,7.06 82.77,21.17 23.23,14.1 41.07,33.82 53.52,59.12 12.44,25.31 18.67,54.35 18.67,87.13zm-154.96 -113.89c-30.29,0 -54.87,8.3 -73.75,24.89 -18.89,16.6 -30.81,38.79 -35.79,66.59l207.24 0c-3.73,-27.8 -14.1,-50 -31.12,-66.59 -17.01,-16.59 -39.2,-24.89 -66.58,-24.89z"/>
   </g>
   <path class="fil1" d="M11152.71 12400.35c38.74,0 70.15,31.41 70.15,70.15 0,38.74 -31.41,70.15 -70.15,70.15 -38.74,0 -70.15,-31.41 -70.15,-70.15 0,-38.74 31.41,-70.15 70.15,-70.15z"/>
   <path class="fil1" d="M15317.14 12400.35c38.74,0 70.15,31.41 70.15,70.15 0,38.74 -31.41,70.15 -70.15,70.15 -38.74,0 -70.15,-31.41 -70.15,-70.15 0,-38.74 31.41,-70.15 70.15,-70.15z"/>
  </g>
 </g>
</svg>
