<?xml version="1.0" encoding="UTF-8"?>
<svg id="Livello_1" data-name="Livello 1" xmlns="http://www.w3.org/2000/svg" viewBox="0 0 474.57 136.07">
  <defs>
    <style>
      .cls-1 {
        fill: #536f4c;
      }

      .cls-1, .cls-2, .cls-3, .cls-4, .cls-5 {
        stroke-width: 0px;
      }

      .cls-1, .cls-2, .cls-4, .cls-5 {
        fill-rule: evenodd;
      }

      .cls-2 {
        fill: #0f243d;
      }

      .cls-3, .cls-4 {
        fill: #61845a;
      }

      .cls-5 {
        fill: #163357;
      }
    </style>
  </defs>
  <path class="cls-4" d="M109.77,25.17c4.21,4.21,4.21,11.02,0,15.23-3.61,3.61-9.14,4.12-13.29,1.54-.5-.31-.92-.59-1.44-.89-15.11-8.87-34.87-6.83-47.84,6.15-13.05,13.05-15.04,32.96-5.98,48.11.25.42.51.82.77,1.23,2.54,4.15,2.02,9.64-1.57,13.23-4.21,4.21-11.02,4.21-15.23,0-1.05-1.05-1.57-1.95-2.34-3.23-14.14-23.44-11.09-54.34,9.14-74.57,20.24-20.24,51.17-23.27,74.62-9.1,1.23.74,2.16,1.28,3.18,2.31Z"/>
  <path class="cls-1" d="M19.02,51.08c2.97-6.94,7.29-13.45,12.95-19.11,5.67-5.67,12.17-9.98,19.11-12.95.44,8.33-2.52,16.81-8.89,23.18-6.36,6.37-14.84,9.33-23.18,8.89Z"/>
  <path class="cls-5" d="M116.85,30.65c.46.43.91.87,1.36,1.31,23.81,23.81,23.81,62.42,0,86.24-23.81,23.81-62.42,23.81-86.24,0-.45-.45-.88-.9-1.31-1.36,4.47.65,9.19-.75,12.63-4.2,2.59-2.59,4.03-5.91,4.3-9.3,15.43,15.02,40.12,14.9,55.39-.38,15.28-15.28,15.4-39.96.38-55.39,3.39-.27,6.7-1.71,9.29-4.3,3.44-3.44,4.84-8.16,4.19-12.63Z"/>
  <path class="cls-2" d="M71.29,114.34c11.32,1.09,23.02-2.7,31.69-11.37,8.67-8.67,12.46-20.37,11.37-31.69,10.75,11.97,10.37,30.4-1.15,41.91-11.51,11.51-29.94,11.89-41.91,1.15Z"/>
  <circle class="cls-3" cx="20.63" cy="20.63" r="20.63"/>
  <path class="cls-5" d="M77.05,77.05c8.06-8.06,21.12-8.06,29.18,0,8.06,8.06,8.06,21.12,0,29.18-8.06,8.06-21.12,8.06-29.18,0-8.06-8.06-8.06-21.12,0-29.18Z"/>
  <path class="cls-4" d="M162.27,70.28c-.94,0-1.72-.31-2.34-.93-.62-.62-.93-1.4-.93-2.34v-28.56c0-.98.31-1.78.93-2.37.62-.6,1.4-.9,2.34-.9s1.78.3,2.37.9c.6.6.9,1.39.9,2.37v28.56c0,.94-.3,1.72-.9,2.34-.6.62-1.39.93-2.37.93h0ZM162.27,29.47c-1.16,0-2.15-.42-2.98-1.25-.83-.83-1.25-1.83-1.25-2.98s.42-2.15,1.25-2.98c.83-.83,1.83-1.25,2.98-1.25s2.15.42,2.98,1.25c.83.83,1.25,1.83,1.25,2.98s-.42,2.15-1.25,2.98c-.83.83-1.83,1.25-2.98,1.25h0ZM195.19,34.86c2.95,0,5.6.64,7.96,1.93,2.35,1.28,4.19,3.15,5.52,5.62,1.33,2.46,1.99,5.42,1.99,8.89v15.79c0,.94-.31,1.72-.93,2.34-.62.62-1.4.93-2.34.93s-1.72-.31-2.34-.93c-.62-.62-.93-1.4-.93-2.34v-15.79c0-3.47-.93-6.09-2.79-7.86-1.86-1.78-4.33-2.66-7.41-2.66-1.8,0-3.43.36-4.91,1.09-1.48.73-2.63,1.71-3.47,2.95-.83,1.24-1.25,2.63-1.25,4.17v18.1c0,.94-.3,1.72-.9,2.34-.6.62-1.39.93-2.37.93s-1.72-.31-2.34-.93c-.62-.62-.93-1.4-.93-2.34v-28.62c0-.98.31-1.78.93-2.37.62-.6,1.4-.9,2.34-.9s1.78.3,2.37.9c.6.6.9,1.39.9,2.37v.71c1.37-1.37,2.99-2.43,4.88-3.18,1.88-.75,3.89-1.12,6.03-1.12Z"/>
  <path class="cls-4" d="M162.27,71.58c-.63,0-1.22-.11-1.77-.33-.56-.22-1.06-.55-1.49-.98-.43-.43-.76-.93-.98-1.49-.22-.55-.33-1.14-.33-1.77v-28.56c0-.65.11-1.25.32-1.8.22-.57.56-1.07,1.01-1.51.44-.42.93-.74,1.49-.95.54-.21,1.12-.31,1.75-.31s1.24.1,1.79.31c.58.22,1.08.54,1.5.97.43.43.75.93.97,1.51.21.55.31,1.14.31,1.79v28.56c0,.63-.1,1.21-.31,1.75-.21.55-.53,1.05-.95,1.49-.43.45-.93.78-1.5,1.01-.55.22-1.15.32-1.8.32h0ZM161.46,68.84c.23.09.5.14.81.14.33,0,.62-.05.86-.14.22-.09.41-.22.58-.39.18-.18.31-.39.39-.61.09-.24.14-.52.14-.83v-28.56c0-.34-.05-.63-.14-.87-.08-.22-.21-.41-.38-.58-.17-.17-.36-.3-.58-.38-.24-.09-.54-.14-.87-.14-.31,0-.59.05-.83.14-.23.09-.43.22-.61.39-.17.17-.3.36-.39.58-.09.24-.14.53-.14.86v28.56c0,.31.05.59.14.81.09.22.22.42.41.61.19.19.39.33.61.41h0ZM162.27,30.77c-.75,0-1.46-.14-2.12-.41-.65-.27-1.25-.68-1.79-1.22-.53-.53-.94-1.13-1.22-1.79-.28-.66-.42-1.36-.42-2.11s.14-1.45.41-2.11h0c.27-.65.68-1.25,1.22-1.79h0c.54-.55,1.14-.95,1.78-1.22.66-.28,1.36-.41,2.12-.41s1.46.14,2.11.41c.65.27,1.25.68,1.79,1.22.54.54.94,1.13,1.22,1.79h0c.28.66.41,1.37.41,2.11s-.14,1.46-.41,2.12c-.28.66-.68,1.25-1.22,1.79h0c-.54.54-1.13.95-1.78,1.22-.66.28-1.36.41-2.11.41h0ZM161.17,27.95c.34.14.71.21,1.11.21s.77-.07,1.11-.21c.34-.14.66-.36.96-.66.3-.3.52-.62.66-.95h0c.14-.34.21-.71.21-1.11s-.07-.78-.21-1.11c-.14-.34-.36-.66-.66-.95-.3-.3-.62-.52-.96-.66-.34-.14-.71-.21-1.11-.21s-.77.07-1.11.21c-.34.14-.66.36-.95.65h0c-.29.3-.51.62-.65.96-.14.33-.21.7-.21,1.11s.07.77.21,1.11h0c.14.34.36.66.66.95s.62.52.95.66h0ZM195.19,33.56c1.57,0,3.07.17,4.51.52,1.44.35,2.79.87,4.07,1.57,2.58,1.41,4.6,3.45,6.04,6.14.72,1.33,1.25,2.8,1.61,4.4.35,1.59.53,3.29.53,5.1v15.79c0,.63-.11,1.22-.33,1.77-.22.56-.55,1.06-.98,1.49h0c-.43.44-.93.77-1.49.99-.55.22-1.14.33-1.77.33s-1.22-.11-1.77-.33c-.56-.22-1.06-.55-1.49-.98-.43-.43-.76-.93-.98-1.49-.22-.55-.33-1.14-.33-1.77v-15.79c0-1.59-.21-2.97-.62-4.13-.4-1.11-.98-2.04-1.76-2.79-.8-.76-1.73-1.34-2.79-1.72-1.08-.39-2.33-.58-3.73-.58-.82,0-1.58.08-2.3.24-.71.16-1.39.4-2.04.72-.64.32-1.21.68-1.7,1.11h0c-.48.41-.9.88-1.25,1.4-.34.51-.6,1.05-.77,1.62-.17.57-.26,1.18-.26,1.83v18.1c0,.62-.11,1.2-.32,1.75h0c-.21.55-.53,1.05-.95,1.49-.43.45-.94.78-1.51,1.01-.55.22-1.15.32-1.8.32s-1.22-.11-1.77-.33c-.56-.22-1.06-.55-1.49-.98h0c-.43-.44-.76-.93-.98-1.49-.22-.55-.33-1.14-.33-1.77v-28.62c0-.65.11-1.25.32-1.8.22-.57.56-1.07,1.01-1.51.44-.42.93-.74,1.49-.95.54-.21,1.12-.31,1.75-.31s1.24.1,1.79.31c.57.22,1.08.54,1.51.97.42.42.74.91.96,1.48.18-.13.37-.26.56-.38.88-.57,1.83-1.06,2.86-1.47,1.02-.41,2.08-.71,3.16-.91,1.1-.2,2.21-.31,3.35-.31h0ZM199.09,36.6c-1.21-.29-2.51-.44-3.9-.44-1,0-1.96.09-2.88.26-.92.17-1.82.43-2.68.77-.86.34-1.66.75-2.4,1.24-.73.48-1.41,1.03-2.03,1.65l-2.22,2.22v-3.84c0-.34-.05-.63-.14-.87-.08-.22-.21-.41-.38-.58-.17-.17-.37-.3-.58-.38-.24-.09-.54-.14-.87-.14-.31,0-.59.05-.83.14-.23.09-.43.22-.61.39-.17.17-.3.36-.39.58-.09.24-.14.53-.14.86v28.62c0,.31.05.59.14.81.09.22.22.42.41.61.19.19.4.33.61.41.23.09.5.14.81.14.33,0,.62-.05.86-.14.22-.09.41-.22.58-.39.18-.18.31-.39.39-.61h0c.09-.23.13-.51.13-.83v-18.1c0-.89.12-1.75.37-2.57.24-.82.61-1.59,1.11-2.32.48-.71,1.06-1.36,1.73-1.93.66-.57,1.41-1.05,2.24-1.46.83-.41,1.7-.71,2.63-.92.92-.2,1.88-.31,2.85-.31,1.68,0,3.21.25,4.6.75,1.41.51,2.65,1.27,3.71,2.28,1.08,1.03,1.89,2.3,2.42,3.81.52,1.45.77,3.12.77,5v15.79c0,.31.05.59.14.81.09.22.22.42.41.61.19.19.39.33.61.41.23.09.5.14.81.14s.59-.05.81-.14c.22-.09.42-.22.61-.41.19-.19.32-.39.41-.61.09-.23.14-.5.14-.81v-15.79c0-1.65-.15-3.17-.46-4.54-.3-1.36-.76-2.6-1.37-3.73-1.21-2.24-2.87-3.93-5-5.09-1.08-.59-2.22-1.03-3.44-1.32Z"/>
  <path class="cls-5" d="M245.27,70.92c-4.58,0-8.76-1.13-12.55-3.4-3.79-2.27-6.77-5.37-8.95-9.3-2.18-3.94-3.27-8.28-3.27-13.03s1.09-9.02,3.27-12.93c2.18-3.91,5.17-7.02,8.95-9.3,3.79-2.29,7.97-3.43,12.55-3.43,3.25,0,6.06.43,8.44,1.28s4.78,2.27,7.22,4.24c.51.38.86.78,1.03,1.19.17.41.26.89.26,1.44,0,.86-.31,1.56-.93,2.12-.62.56-1.34.83-2.15.83s-1.56-.28-2.25-.83c-1.75-1.5-3.47-2.58-5.13-3.24-1.67-.66-3.83-.99-6.48-.99-3.34,0-6.41.88-9.21,2.63-2.8,1.75-5.03,4.14-6.67,7.15-1.65,3.02-2.47,6.3-2.47,9.85s.82,6.89,2.47,9.88c1.65,2.99,3.87,5.37,6.67,7.12,2.8,1.75,5.87,2.63,9.21,2.63,4.11,0,8.04-1.41,11.81-4.24.73-.51,1.43-.77,2.12-.77.81,0,1.49.29,2.02.87.53.58.8,1.34.8,2.28s-.34,1.69-1.03,2.37c-4.62,3.72-9.86,5.58-15.72,5.58h0ZM300.97,52.18c0,.81-.28,1.49-.83,2.02-.56.53-1.26.8-2.12.8h-24.38c.47,2.99,1.83,5.41,4.08,7.25,2.25,1.84,4.99,2.76,8.25,2.76,1.28,0,2.62-.24,4.01-.71,1.39-.47,2.53-1.05,3.43-1.73.6-.47,1.3-.71,2.12-.71s1.45.21,1.92.64c.77.64,1.16,1.37,1.16,2.18,0,.77-.34,1.41-1.03,1.93-1.45,1.16-3.26,2.1-5.42,2.82-2.16.73-4.22,1.09-6.19,1.09-3.51,0-6.65-.76-9.43-2.28-2.78-1.52-4.95-3.63-6.51-6.32-1.56-2.7-2.34-5.75-2.34-9.18s.74-6.49,2.21-9.21c1.48-2.72,3.53-4.83,6.16-6.35,2.63-1.52,5.61-2.28,8.95-2.28s6.14.73,8.53,2.18c2.4,1.45,4.24,3.49,5.52,6.1,1.28,2.61,1.93,5.6,1.93,8.98h0ZM284.99,40.44c-3.12,0-5.66.86-7.6,2.57-1.95,1.71-3.18,4-3.69,6.87h21.37c-.39-2.87-1.45-5.15-3.21-6.87-1.75-1.71-4.04-2.57-6.87-2.57h0ZM326.51,34.79c2.27,0,4.04.34,5.33,1.03,1.28.68,1.92,1.54,1.92,2.57,0,.3-.02.51-.06.64-.38,1.37-1.24,2.05-2.57,2.05-.21,0-.53-.04-.96-.13-1.71-.3-3.1-.45-4.17-.45-3.08,0-5.56.71-7.44,2.12-1.88,1.41-2.82,3.32-2.82,5.71v18.74c0,1.03-.27,1.82-.8,2.37-.53.56-1.34.83-2.41.83s-1.82-.27-2.37-.8c-.56-.53-.83-1.34-.83-2.41v-28.68c0-1.03.28-1.82.83-2.37.56-.56,1.35-.83,2.37-.83,2.14,0,3.21,1.07,3.21,3.21v1.22c1.28-1.5,2.87-2.67,4.75-3.53,1.88-.86,3.89-1.28,6.03-1.28h0ZM353.85,70.54c-3.38,0-6.42-.77-9.11-2.31-2.7-1.54-4.8-3.67-6.32-6.39-1.52-2.72-2.28-5.74-2.28-9.08s.74-6.49,2.21-9.21c1.48-2.72,3.54-4.83,6.19-6.35,2.65-1.52,5.65-2.28,8.98-2.28,5.05,0,9.24,1.93,12.58,5.77.43.47.64,1.03.64,1.67,0,.94-.47,1.73-1.41,2.37-.43.3-.92.45-1.48.45-.98,0-1.82-.39-2.5-1.15-1.07-1.16-2.24-2-3.5-2.53-1.26-.53-2.71-.8-4.33-.8-3.29,0-5.97,1.1-8.02,3.3-2.05,2.2-3.08,5.12-3.08,8.76,0,2.31.48,4.37,1.44,6.19.96,1.82,2.31,3.24,4.04,4.27,1.73,1.03,3.71,1.54,5.94,1.54,2.91,0,5.26-.75,7.06-2.25.81-.6,1.6-.9,2.37-.9.6,0,1.16.19,1.67.58.81.68,1.22,1.45,1.22,2.31,0,.64-.26,1.22-.77,1.73-3.08,2.87-6.93,4.3-11.55,4.3h0ZM393.95,34.86c2.95,0,5.6.64,7.96,1.93,2.35,1.28,4.19,3.15,5.52,5.62,1.33,2.46,1.99,5.42,1.99,8.89v15.79c0,.94-.31,1.72-.93,2.34-.62.62-1.4.93-2.34.93s-1.72-.31-2.34-.93c-.62-.62-.93-1.4-.93-2.34v-15.79c0-3.47-.93-6.09-2.79-7.86-1.86-1.78-4.33-2.66-7.41-2.66-1.8,0-3.43.36-4.91,1.09-1.48.73-2.63,1.71-3.47,2.95-.83,1.24-1.25,2.63-1.25,4.17v18.1c0,.94-.3,1.72-.9,2.34-.6.62-1.39.93-2.37.93s-1.72-.31-2.34-.93c-.62-.62-.93-1.4-.93-2.34V23.43c0-.98.31-1.78.93-2.37.62-.6,1.4-.9,2.34-.9s1.78.3,2.37.9c.6.6.9,1.39.9,2.37v15.72c1.37-1.37,2.99-2.43,4.88-3.18,1.88-.75,3.89-1.12,6.03-1.12h0ZM424.24,70.28c-.94,0-1.72-.31-2.34-.93-.62-.62-.93-1.4-.93-2.34v-28.56c0-.98.31-1.78.93-2.37.62-.6,1.4-.9,2.34-.9s1.78.3,2.37.9c.6.6.9,1.39.9,2.37v28.56c0,.94-.3,1.72-.9,2.34-.6.62-1.39.93-2.37.93h0ZM424.24,29.47c-1.16,0-2.15-.42-2.98-1.25-.83-.83-1.25-1.83-1.25-2.98s.42-2.15,1.25-2.98c.83-.83,1.83-1.25,2.98-1.25s2.15.42,2.98,1.25c.83.83,1.25,1.83,1.25,2.98s-.42,2.15-1.25,2.98c-.83.83-1.83,1.25-2.98,1.25h0ZM455.62,70.54c-3.42,0-6.48-.76-9.18-2.28-2.7-1.52-4.79-3.63-6.29-6.32-1.5-2.7-2.25-5.75-2.25-9.18s.75-6.55,2.25-9.24c1.5-2.7,3.59-4.8,6.29-6.32,2.7-1.52,5.75-2.28,9.18-2.28s6.41.76,9.08,2.28c2.67,1.52,4.77,3.63,6.29,6.32s2.28,5.78,2.28,9.24-.75,6.48-2.25,9.18c-1.5,2.7-3.58,4.8-6.26,6.32-2.67,1.52-5.72,2.28-9.14,2.28h0ZM455.62,64.76c2.18,0,4.14-.51,5.87-1.54,1.73-1.03,3.08-2.45,4.04-4.27.96-1.82,1.44-3.88,1.44-6.19s-.48-4.39-1.44-6.22c-.96-1.84-2.31-3.27-4.04-4.3-1.73-1.03-3.69-1.54-5.87-1.54s-4.14.51-5.87,1.54c-1.73,1.03-3.09,2.46-4.07,4.3-.98,1.84-1.48,3.91-1.48,6.22s.49,4.37,1.48,6.19c.98,1.82,2.34,3.24,4.07,4.27,1.73,1.03,3.69,1.54,5.87,1.54Z"/>
  <path class="cls-5" d="M245.27,72.22c-2.4,0-4.7-.3-6.9-.9-2.2-.6-4.31-1.5-6.31-2.69-1.99-1.19-3.78-2.61-5.35-4.24-1.57-1.63-2.93-3.48-4.07-5.55-2.29-4.14-3.44-8.69-3.44-13.66s1.15-9.45,3.44-13.56c1.15-2.06,2.5-3.9,4.07-5.53,1.57-1.64,3.35-3.06,5.34-4.26,1.99-1.2,4.09-2.11,6.31-2.71,2.21-.61,4.52-.91,6.91-.91,1.69,0,3.27.11,4.74.34,1.48.22,2.85.57,4.13,1.03,1.26.46,2.53,1.06,3.8,1.8,1.26.74,2.53,1.62,3.79,2.64.32.24.59.49.81.75.26.3.46.62.6.95.13.3.22.62.28.95.06.32.08.65.08,1,0,.6-.11,1.17-.34,1.69h0c-.23.52-.57.99-1.02,1.39-.43.38-.9.67-1.4.87-.51.2-1.05.3-1.61.3s-1.09-.1-1.62-.29h0c-.5-.18-.98-.46-1.44-.83l-.03-.02c-.83-.71-1.65-1.32-2.45-1.82-.79-.5-1.57-.9-2.32-1.2-.73-.29-1.59-.51-2.59-.66-1.01-.16-2.15-.23-3.42-.23-1.55,0-3.03.2-4.45.61-1.43.41-2.79,1.02-4.07,1.82h0c-1.3.82-2.47,1.78-3.51,2.89-1.04,1.12-1.95,2.38-2.72,3.79-.77,1.4-1.34,2.88-1.73,4.42-.38,1.53-.58,3.14-.58,4.81s.19,3.31.58,4.85c.38,1.54.96,3.01,1.73,4.41.77,1.4,1.68,2.66,2.71,3.76,1.03,1.1,2.21,2.07,3.51,2.88h0c1.29.81,2.65,1.42,4.07,1.83,1.42.4,2.9.61,4.45.61,1.91,0,3.78-.33,5.59-.98,1.84-.66,3.66-1.66,5.43-2.99l.03-.03c.45-.32.92-.57,1.38-.74.5-.18,1-.27,1.48-.27.58,0,1.12.11,1.62.32.5.21.95.54,1.35.96.77.83,1.15,1.88,1.15,3.16,0,.63-.12,1.22-.36,1.78h0c-.24.56-.59,1.06-1.04,1.51l-.11.09c-2.42,1.95-5.02,3.42-7.78,4.4-2.76.98-5.68,1.47-8.76,1.47h0ZM239.03,68.82c1.98.54,4.06.8,6.23.8,2.79,0,5.42-.44,7.89-1.32,2.45-.87,4.77-2.18,6.94-3.91.22-.22.37-.45.47-.67h0c.1-.23.15-.48.15-.76,0-.61-.15-1.07-.45-1.4-.14-.15-.29-.26-.46-.33-.17-.07-.37-.11-.61-.11-.2,0-.4.04-.6.11-.24.09-.5.23-.77.42-1.98,1.48-4.01,2.59-6.09,3.33-2.12.76-4.27,1.14-6.47,1.14-1.79,0-3.51-.24-5.16-.71-1.64-.47-3.22-1.18-4.73-2.12h0c-1.5-.93-2.84-2.04-4.03-3.31-1.19-1.27-2.22-2.7-3.1-4.29-.88-1.6-1.54-3.27-1.97-5.03-.44-1.76-.66-3.58-.66-5.48s.22-3.69.66-5.44c.44-1.74,1.1-3.42,1.97-5.03.88-1.61,1.91-3.05,3.09-4.31,1.19-1.28,2.54-2.39,4.03-3.32h0c1.51-.94,3.09-1.65,4.73-2.12,1.65-.47,3.37-.71,5.16-.71,1.39,0,2.66.09,3.8.26,1.17.18,2.22.45,3.16.83.91.36,1.83.83,2.75,1.41.91.58,1.83,1.26,2.75,2.04.22.17.45.3.68.39h0c.22.09.46.13.72.13s.48-.04.68-.12c.21-.08.41-.21.61-.38.17-.15.29-.32.37-.5.08-.18.12-.4.12-.65,0-.21-.01-.39-.04-.55-.03-.15-.06-.28-.11-.39-.03-.07-.09-.16-.17-.26-.11-.13-.26-.26-.44-.4l-.04-.03c-1.17-.95-2.33-1.76-3.48-2.43-1.13-.67-2.26-1.2-3.37-1.6-1.09-.39-2.31-.69-3.65-.9-1.34-.2-2.79-.31-4.36-.31-2.19,0-4.26.27-6.23.81-1.96.54-3.85,1.35-5.65,2.44-1.8,1.09-3.4,2.36-4.81,3.83-1.42,1.47-2.64,3.14-3.68,4.99-2.07,3.71-3.1,7.81-3.1,12.3s1.04,8.66,3.1,12.4c1.04,1.87,2.26,3.54,3.68,5.01,1.41,1.47,3.02,2.74,4.81,3.81,1.79,1.07,3.67,1.87,5.65,2.41h0ZM302.27,52.18c0,.57-.1,1.11-.31,1.61-.21.51-.52.96-.93,1.35-.41.39-.87.68-1.39.88-.5.19-1.05.29-1.63.29h-22.77c.22.76.52,1.46.89,2.12.6,1.06,1.4,2,2.39,2.82,2.01,1.64,4.48,2.46,7.42,2.46.57,0,1.15-.05,1.74-.16.61-.11,1.23-.27,1.85-.48.64-.22,1.22-.46,1.73-.71.49-.25.93-.52,1.31-.81.41-.32.87-.57,1.37-.74.5-.16,1.01-.25,1.55-.25,1.15,0,2.08.33,2.8.98.5.42.88.89,1.14,1.38.29.56.44,1.14.44,1.76s-.14,1.15-.41,1.67c-.26.48-.63.9-1.11,1.27-1.57,1.25-3.51,2.26-5.82,3.04-1.15.39-2.27.68-3.36.87-1.11.19-2.19.29-3.25.29-1.85,0-3.61-.2-5.29-.61-1.68-.41-3.27-1.02-4.76-1.83-1.5-.82-2.83-1.79-4-2.93-1.17-1.14-2.18-2.43-3.02-3.88-.84-1.46-1.47-3-1.89-4.65-.42-1.63-.63-3.36-.63-5.18,0-3.64.79-6.91,2.38-9.83.79-1.46,1.75-2.77,2.86-3.91,1.11-1.14,2.37-2.12,3.8-2.95,1.43-.82,2.94-1.44,4.54-1.85,1.6-.41,3.29-.61,5.06-.61s3.4.2,4.92.59c1.54.39,2.96.99,4.28,1.79,1.31.79,2.46,1.74,3.47,2.85,1,1.1,1.85,2.36,2.54,3.78.69,1.4,1.21,2.91,1.55,4.51.34,1.59.51,3.28.51,5.05h0ZM299.56,52.8c.07-.17.11-.38.11-.62,0-1.61-.15-3.11-.45-4.51-.3-1.39-.74-2.69-1.34-3.9h0c-.59-1.2-1.3-2.26-2.14-3.19-.84-.92-1.8-1.72-2.89-2.38-1.08-.65-2.27-1.15-3.58-1.48-1.32-.34-2.74-.5-4.28-.5s-3.03.18-4.42.53c-1.39.35-2.68.88-3.89,1.57-1.21.7-2.28,1.53-3.23,2.51-.94.97-1.76,2.09-2.44,3.34-1.37,2.52-2.05,5.38-2.05,8.59,0,1.6.18,3.12.55,4.54.36,1.42.9,2.75,1.62,3.99.72,1.24,1.58,2.35,2.58,3.32,1,.97,2.15,1.81,3.43,2.51,1.29.7,2.67,1.23,4.13,1.59,1.46.35,3.02.53,4.68.53.91,0,1.84-.08,2.8-.25.98-.17,1.97-.43,2.98-.77,2.01-.68,3.69-1.55,5.03-2.61l.03-.02c.19-.14.32-.29.4-.44.07-.12.1-.27.1-.45,0-.19-.05-.38-.14-.55-.11-.21-.3-.43-.55-.64l-.05-.04c-.22-.2-.57-.3-1.05-.3-.28,0-.52.04-.73.11-.2.07-.4.17-.58.32h-.01c-.51.4-1.09.76-1.74,1.08-.63.32-1.32.6-2.07.86-.76.26-1.51.45-2.24.58-.74.13-1.48.2-2.19.2-3.56,0-6.58-1.02-9.07-3.05-1.25-1.02-2.25-2.21-3.01-3.56-.75-1.34-1.26-2.84-1.52-4.5l-.24-1.5h25.9c.27,0,.51-.04.71-.11.19-.07.35-.18.5-.32.15-.14.26-.3.33-.46h0ZM284.99,41.74c-2.8,0-5.05.75-6.75,2.24-.86.75-1.56,1.63-2.1,2.64-.32.6-.59,1.25-.81,1.95h18.16c-.18-.72-.41-1.4-.7-2.02-.47-1-1.08-1.87-1.85-2.62-.75-.73-1.61-1.28-2.58-1.64-.99-.37-2.12-.56-3.38-.56h0ZM276.53,42.03c-1.09.96-1.98,2.08-2.67,3.36-.68,1.26-1.16,2.68-1.44,4.25l-.27,1.53h24.4l-.2-1.47c-.21-1.56-.61-2.97-1.2-4.24-.6-1.29-1.4-2.42-2.39-3.38-1.01-.98-2.17-1.72-3.48-2.21-1.3-.49-2.73-.73-4.29-.73-3.45,0-6.27.96-8.46,2.89h0ZM326.51,33.49c1.21,0,2.3.09,3.28.28,1.01.19,1.9.5,2.66.9.81.43,1.43.94,1.87,1.52.5.66.75,1.39.75,2.19,0,.4-.04.73-.12.99-.26.95-.72,1.68-1.37,2.2-.67.54-1.48.81-2.45.81-.3,0-.7-.05-1.22-.15-.84-.15-1.57-.25-2.21-.32-.63-.07-1.2-.1-1.71-.1-1.42,0-2.69.16-3.82.48-1.09.31-2.04.77-2.85,1.37-.77.58-1.35,1.26-1.73,2.02-.38.77-.57,1.65-.57,2.65v18.74c0,1.37-.39,2.46-1.17,3.27-.41.42-.91.74-1.52.95-.55.19-1.16.28-1.83.28s-1.24-.09-1.77-.27h0c-.58-.19-1.07-.49-1.49-.9-.43-.41-.74-.92-.95-1.52-.19-.55-.28-1.16-.28-1.83v-28.68c0-.65.1-1.25.28-1.79.21-.59.52-1.09.93-1.5.41-.41.92-.72,1.5-.93.54-.19,1.14-.29,1.79-.29,1.42,0,2.53.39,3.32,1.18h0c.46.47.79,1.04.98,1.71l.28-.22c.87-.65,1.82-1.2,2.84-1.67,1.02-.47,2.09-.82,3.18-1.05,1.1-.23,2.23-.35,3.38-.35h0ZM329.3,36.32c-.8-.15-1.73-.23-2.79-.23-.99,0-1.93.1-2.84.29-.91.19-1.8.49-2.66.88-.86.39-1.65.85-2.36,1.38-.71.53-1.36,1.13-1.94,1.81l-2.29,2.67v-4.73c0-.71-.14-1.21-.42-1.49h0c-.28-.28-.77-.42-1.49-.42-.37,0-.69.04-.94.13-.2.07-.38.18-.52.32s-.25.32-.32.52c-.09.25-.13.56-.13.94v28.68c0,.4.04.73.13.98.07.2.17.36.3.49.14.13.31.23.53.31.25.09.57.13.95.13.4,0,.73-.04.98-.13.2-.07.36-.17.49-.3.29-.3.44-.79.44-1.48v-18.74c0-1.4.28-2.66.84-3.8.56-1.13,1.4-2.12,2.5-2.95,1.07-.81,2.31-1.41,3.69-1.8,1.36-.39,2.87-.58,4.53-.58.56,0,1.22.04,1.98.12.75.08,1.55.2,2.41.35h.03c.34.07.58.11.71.11.36,0,.64-.07.82-.22h0c.21-.17.37-.46.49-.88l.02-.06s0-.06,0-.23c0-.23-.07-.44-.22-.63-.2-.27-.54-.54-1.02-.79-.52-.28-1.16-.49-1.93-.64h0ZM353.85,71.84c2.46,0,4.73-.39,6.81-1.16,2.09-.78,3.97-1.94,5.63-3.49l.04-.04c.37-.37.65-.77.84-1.2h0c.21-.47.31-.95.31-1.44,0-.64-.15-1.25-.46-1.82-.28-.53-.69-1.02-1.23-1.48l-.06-.05c-.36-.27-.75-.48-1.16-.62-.42-.15-.85-.22-1.29-.22-.54,0-1.08.1-1.63.31-.51.19-1.01.47-1.51.84l-.06.05c-1.55,1.29-3.63,1.94-6.23,1.94-1.01,0-1.96-.11-2.83-.34-.87-.22-1.68-.56-2.45-1.02-.76-.45-1.44-.99-2.03-1.61-.59-.62-1.1-1.34-1.52-2.14-.43-.81-.75-1.68-.97-2.6-.22-.93-.33-1.93-.33-2.99,0-1.68.23-3.18.69-4.49.45-1.28,1.13-2.41,2.04-3.38.9-.96,1.93-1.69,3.09-2.16,1.17-.48,2.5-.72,3.98-.72.75,0,1.44.06,2.07.17s1.22.29,1.76.52c.53.22,1.05.52,1.56.89.52.38,1.01.81,1.47,1.31h0c.46.52.98.92,1.57,1.18.59.27,1.23.41,1.91.41.4,0,.78-.06,1.16-.17.37-.11.72-.28,1.05-.5.63-.43,1.11-.92,1.44-1.49.36-.6.54-1.25.54-1.96,0-.47-.08-.92-.25-1.36-.17-.44-.41-.83-.73-1.18-3.59-4.14-8.11-6.2-13.54-6.2-1.77,0-3.46.2-5.06.61-1.62.41-3.14,1.02-4.57,1.84-1.43.82-2.7,1.8-3.82,2.95-1.11,1.14-2.07,2.45-2.86,3.91-1.58,2.92-2.38,6.19-2.38,9.83,0,1.77.2,3.47.61,5.09.41,1.62,1.02,3.16,1.84,4.62.82,1.46,1.8,2.77,2.93,3.92,1.14,1.15,2.43,2.14,3.88,2.96h0c1.45.83,2.99,1.45,4.62,1.86,1.63.41,3.34.62,5.13.62h0ZM349.35,68.7c-1.4-.36-2.73-.89-3.97-1.6-1.25-.71-2.36-1.56-3.33-2.54-.97-.98-1.81-2.1-2.51-3.35-.7-1.25-1.23-2.59-1.58-3.99-.35-1.41-.53-2.89-.53-4.46,0-3.21.68-6.07,2.05-8.59.68-1.25,1.5-2.37,2.45-3.34.94-.97,2.03-1.8,3.25-2.5,1.22-.7,2.53-1.23,3.9-1.58,1.39-.35,2.87-.53,4.43-.53,4.66,0,8.52,1.77,11.6,5.32l.02.03c.11.12.19.24.23.36.05.12.07.27.07.44,0,.24-.06.45-.17.64-.14.23-.36.45-.67.66h0c-.1.08-.21.13-.32.17-.11.03-.25.05-.41.05-.31,0-.58-.06-.82-.17-.25-.12-.49-.3-.71-.55l-.02-.02c-.6-.65-1.22-1.21-1.86-1.67-.65-.47-1.35-.87-2.08-1.18-.72-.3-1.48-.53-2.3-.68-.81-.15-1.66-.23-2.54-.23-1.81,0-3.47.31-4.97.93-1.51.62-2.85,1.55-4,2.79-1.15,1.23-2.01,2.67-2.58,4.3-.56,1.6-.85,3.39-.85,5.34,0,1.25.13,2.44.4,3.58.27,1.14.67,2.21,1.2,3.22.54,1.01,1.18,1.92,1.94,2.72.76.8,1.62,1.49,2.59,2.06.97.57,2.01,1,3.12,1.29,1.11.29,2.27.43,3.48.43,3.18,0,5.79-.83,7.83-2.5.31-.23.61-.4.89-.51.24-.09.48-.14.71-.14.16,0,.31.02.44.07.14.05.29.13.43.23.25.22.44.44.56.67.1.19.15.4.15.61,0,.15-.02.27-.08.39-.06.13-.15.27-.29.4-1.41,1.31-3,2.3-4.76,2.95-1.77.66-3.74.99-5.9.99-1.59,0-3.09-.18-4.5-.54h0ZM393.95,33.56c1.57,0,3.07.17,4.51.52,1.43.35,2.79.87,4.07,1.57,2.58,1.41,4.6,3.45,6.04,6.14.72,1.33,1.25,2.8,1.61,4.4.35,1.59.53,3.29.53,5.1v15.79c0,.63-.11,1.22-.33,1.77-.22.56-.55,1.06-.98,1.49h0c-.43.44-.93.76-1.49.99-.55.22-1.14.33-1.77.33s-1.22-.11-1.77-.33c-.56-.22-1.06-.55-1.49-.98h0c-.43-.44-.76-.93-.98-1.49-.22-.55-.33-1.14-.33-1.77v-15.79c0-1.59-.21-2.97-.62-4.13-.4-1.11-.98-2.04-1.76-2.79-.8-.76-1.73-1.34-2.79-1.72-1.08-.39-2.33-.58-3.73-.58-.82,0-1.58.08-2.3.24-.71.16-1.39.4-2.04.72-.64.32-1.21.68-1.7,1.11-.49.42-.91.89-1.26,1.4-.34.51-.6,1.05-.77,1.62-.17.57-.26,1.18-.26,1.83v18.1c0,.63-.1,1.21-.31,1.75h0c-.21.56-.53,1.06-.95,1.49-.43.45-.93.78-1.51,1.01-.55.22-1.15.32-1.8.32s-1.22-.11-1.77-.33c-.56-.22-1.06-.55-1.49-.98h0c-.43-.44-.76-.93-.98-1.49-.22-.55-.33-1.14-.33-1.77V23.43c0-.65.11-1.25.32-1.8.22-.57.56-1.07,1.01-1.51.44-.42.93-.74,1.49-.95.54-.21,1.13-.31,1.75-.31s1.24.1,1.79.31c.57.21,1.07.54,1.5.97.43.43.75.93.97,1.5.21.55.31,1.14.31,1.79v12.97l.24-.16c.88-.57,1.84-1.06,2.86-1.47,1.02-.41,2.08-.71,3.16-.91,1.1-.2,2.21-.31,3.35-.31h0ZM397.85,36.6c-1.21-.29-2.51-.44-3.9-.44-1,0-1.96.09-2.88.26-.92.17-1.82.43-2.68.77-.86.34-1.66.75-2.4,1.24-.73.48-1.41,1.03-2.03,1.65l-2.22,2.22v-18.86c0-.34-.05-.63-.14-.87-.08-.22-.21-.41-.38-.58h0c-.17-.17-.36-.3-.58-.38-.24-.09-.54-.14-.87-.14-.31,0-.59.05-.83.14-.23.09-.43.22-.61.39-.17.17-.3.36-.39.58-.09.24-.14.53-.14.86v43.64c0,.31.05.59.14.81.09.22.22.42.41.61.19.19.39.32.61.41.23.09.5.14.81.14.33,0,.62-.05.86-.14.22-.09.41-.22.58-.39.18-.19.31-.39.4-.61h0c.09-.24.14-.52.14-.83v-18.1c0-.89.12-1.75.37-2.57.24-.82.61-1.59,1.11-2.32.49-.72,1.06-1.37,1.73-1.93.66-.56,1.41-1.05,2.24-1.46.83-.41,1.7-.71,2.63-.92.92-.2,1.88-.31,2.85-.31,1.68,0,3.21.25,4.6.75,1.41.51,2.65,1.27,3.71,2.28,1.08,1.03,1.89,2.3,2.42,3.81.52,1.45.77,3.12.77,5v15.79c0,.31.05.59.14.81.09.22.22.42.41.61.19.19.39.33.61.41.23.09.5.14.81.14s.59-.05.81-.14c.22-.09.42-.22.61-.41.19-.18.33-.39.41-.61.09-.23.14-.5.14-.81v-15.79c0-1.65-.15-3.17-.46-4.54-.3-1.36-.76-2.6-1.37-3.73-1.21-2.24-2.87-3.93-5-5.09-1.08-.59-2.22-1.03-3.44-1.32h0ZM424.24,71.58c-.63,0-1.22-.11-1.77-.33-.56-.22-1.06-.55-1.49-.98h0c-.43-.44-.76-.93-.98-1.49-.22-.55-.33-1.14-.33-1.77v-28.56c0-.65.11-1.25.32-1.8.22-.57.56-1.07,1.01-1.51.44-.42.93-.74,1.49-.95.54-.21,1.13-.31,1.75-.31s1.24.1,1.79.31c.58.22,1.08.54,1.5.97.43.43.75.94.97,1.51.21.55.31,1.14.31,1.79v28.56c0,.63-.1,1.21-.31,1.75-.21.55-.53,1.05-.95,1.49-.43.45-.93.78-1.5,1.01-.55.22-1.15.32-1.8.32h0ZM423.43,68.84c.23.09.5.14.81.14.33,0,.62-.05.86-.14.22-.09.41-.22.58-.39.18-.18.31-.39.39-.61.09-.24.14-.52.14-.83v-28.56c0-.34-.05-.63-.14-.87-.08-.22-.21-.42-.37-.58h0c-.17-.17-.36-.3-.58-.38-.24-.09-.54-.14-.87-.14-.31,0-.59.05-.83.14-.23.09-.43.22-.61.39-.17.17-.3.36-.39.58-.09.24-.14.53-.14.86v28.56c0,.31.05.59.14.81.09.22.22.42.41.61.19.19.39.32.61.41h0ZM424.24,30.77c-.75,0-1.46-.14-2.12-.41-.65-.27-1.24-.68-1.78-1.22h0c-.53-.53-.94-1.13-1.22-1.79-.28-.66-.42-1.36-.42-2.11s.14-1.45.41-2.11h0c.27-.66.68-1.26,1.22-1.79.54-.54,1.13-.94,1.79-1.22.66-.28,1.36-.41,2.12-.41s1.46.14,2.11.41c.65.27,1.24.68,1.78,1.22h0c.54.55.95,1.14,1.22,1.79h0c.28.66.41,1.37.41,2.11s-.14,1.46-.41,2.12c-.28.66-.68,1.25-1.22,1.79-.54.54-1.13.94-1.79,1.22-.66.28-1.36.41-2.11.41h0ZM423.13,27.95c.34.14.71.21,1.11.21s.77-.07,1.11-.21c.34-.14.66-.36.96-.66s.52-.62.66-.95h0c.14-.34.21-.71.21-1.11s-.07-.78-.21-1.11c-.15-.34-.37-.66-.66-.95h0c-.29-.3-.61-.51-.96-.66-.34-.14-.71-.21-1.11-.21s-.77.07-1.11.21c-.34.14-.66.36-.95.66-.3.3-.52.62-.66.95-.14.33-.21.7-.21,1.11s.07.77.21,1.11h0c.14.34.36.66.66.95.29.3.61.51.95.66h0ZM455.62,71.84c-1.81,0-3.53-.2-5.17-.61-1.65-.41-3.19-1.02-4.64-1.84-1.45-.82-2.74-1.8-3.88-2.94-1.13-1.14-2.1-2.43-2.91-3.89-.81-1.45-1.41-3-1.81-4.64-.4-1.64-.6-3.36-.6-5.17,0-3.68.8-6.97,2.41-9.87.81-1.45,1.78-2.75,2.91-3.89,1.14-1.14,2.43-2.12,3.88-2.94,1.45-.81,2.99-1.43,4.64-1.84,1.64-.41,3.36-.61,5.17-.61s3.5.2,5.12.61c1.62.41,3.16,1.02,4.6,1.84,1.44.82,2.73,1.8,3.86,2.93,1.13,1.14,2.11,2.43,2.93,3.88.81,1.45,1.43,3,1.84,4.66.41,1.65.61,3.39.61,5.22,0,3.64-.8,6.91-2.41,9.81-.81,1.45-1.77,2.75-2.9,3.89-1.12,1.14-2.41,2.11-3.85,2.93-1.44.82-2.98,1.43-4.62,1.84-1.63.41-3.35.61-5.16.61h0ZM451.07,68.71c1.42.35,2.94.53,4.55.53s3.13-.18,4.54-.53c1.41-.35,2.73-.88,3.96-1.58,1.23-.7,2.33-1.54,3.29-2.51.96-.97,1.78-2.07,2.47-3.32,1.39-2.49,2.08-5.34,2.08-8.55,0-1.64-.18-3.17-.53-4.6-.35-1.42-.88-2.76-1.58-4.01-.7-1.25-1.54-2.36-2.5-3.32-.96-.97-2.06-1.81-3.3-2.51-1.23-.7-2.55-1.22-3.95-1.58-1.41-.35-2.9-.53-4.49-.53s-3.13.18-4.55.53c-1.41.35-2.74.88-3.99,1.58-1.25.7-2.35,1.54-3.31,2.5-.96.97-1.79,2.08-2.48,3.32-1.39,2.49-2.08,5.36-2.08,8.61,0,1.62.17,3.14.52,4.56.35,1.41.87,2.75,1.56,3.99.69,1.24,1.52,2.35,2.48,3.32.96.96,2.06,1.8,3.31,2.5,1.25.7,2.58,1.23,3.99,1.58h0ZM455.62,63.46c.99,0,1.91-.11,2.77-.34h0c.85-.22,1.66-.56,2.43-1.02.76-.45,1.44-.99,2.03-1.61.59-.62,1.1-1.34,1.52-2.14.43-.81.75-1.68.97-2.6.22-.93.33-1.93.33-2.99s-.11-2.06-.33-3c-.22-.93-.54-1.81-.97-2.63-.42-.81-.93-1.53-1.53-2.16-.59-.63-1.26-1.17-2.03-1.62-.77-.45-1.58-.79-2.43-1.02h0c-.86-.23-1.79-.34-2.77-.34s-1.91.11-2.77.34h0c-.85.22-1.67.56-2.43,1.02-.76.45-1.44.99-2.04,1.62-.6.63-1.12,1.36-1.55,2.17-.43.81-.76,1.69-.99,2.63-.22.94-.33,1.93-.33,2.99s.11,2.05.33,2.98c.22.92.55,1.79.99,2.6.44.81.95,1.52,1.55,2.15.59.62,1.27,1.16,2.04,1.61.77.45,1.58.79,2.43,1.02h0c.86.23,1.79.34,2.77.34h0ZM459.06,65.63c1.1-.29,2.13-.72,3.1-1.29.97-.57,1.83-1.26,2.59-2.06.76-.8,1.4-1.71,1.94-2.72.53-1.01.93-2.08,1.2-3.22.26-1.13.4-2.33.4-3.58s-.13-2.44-.4-3.58c-.26-1.14-.66-2.22-1.2-3.25-.54-1.03-1.18-1.94-1.94-2.74-.76-.81-1.62-1.5-2.59-2.07-.96-.57-2-1-3.1-1.29-1.09-.29-2.24-.43-3.43-.43s-2.34.14-3.43.43c-1.1.29-2.13.72-3.1,1.29-.97.57-1.83,1.26-2.6,2.07-.76.8-1.41,1.71-1.96,2.74-.55,1.03-.96,2.11-1.23,3.25-.27,1.14-.4,2.33-.4,3.59s.14,2.45.4,3.58c.27,1.14.68,2.21,1.23,3.23.55,1.01,1.2,1.92,1.96,2.71.76.8,1.63,1.49,2.6,2.06.96.57,2,1,3.1,1.29,1.09.29,2.24.43,3.43.43s2.34-.14,3.43-.43Z"/>
  <path class="cls-4" d="M171.91,84.26c.43,0,.78.13,1.05.4.26.27.4.61.4,1.05v12.94c0,1.48-.34,2.81-1.04,4.01-.69,1.2-1.63,2.15-2.81,2.84-1.18.69-2.5,1.04-3.96,1.04s-2.79-.34-3.99-1.04-2.14-1.64-2.82-2.84c-.68-1.2-1.02-2.54-1.02-4.01s.32-2.81.95-4.01c.63-1.2,1.5-2.14,2.61-2.82,1.11-.68,2.34-1.02,3.7-1.02,1.1,0,2.12.23,3.06.68.95.45,1.75,1.09,2.41,1.9v-7.66c0-.44.14-.78.41-1.05.27-.26.62-.4,1.04-.4h0ZM165.56,103.97c.95,0,1.8-.23,2.57-.7.77-.46,1.37-1.1,1.8-1.92.44-.81.65-1.72.65-2.72s-.22-1.91-.65-2.71c-.43-.8-1.04-1.44-1.8-1.9-.77-.46-1.62-.7-2.57-.7s-1.8.23-2.57.7c-.77.46-1.37,1.1-1.82,1.9-.44.8-.67,1.71-.67,2.71s.22,1.91.67,2.72c.44.81,1.05,1.45,1.82,1.92.77.46,1.62.7,2.57.7h0ZM185.5,106.53c-1.51,0-2.87-.34-4.06-1.01-1.19-.67-2.12-1.6-2.78-2.79-.66-1.19-.99-2.54-.99-4.06s.33-2.89.99-4.09c.66-1.19,1.59-2.12,2.78-2.79,1.19-.67,2.54-1.01,4.06-1.01s2.83.34,4.01,1.01c1.18.67,2.11,1.6,2.78,2.79.67,1.19,1.01,2.55,1.01,4.09s-.33,2.87-.99,4.06c-.66,1.19-1.58,2.12-2.77,2.79-1.18.67-2.53,1.01-4.04,1.01h0ZM185.5,103.97c.96,0,1.83-.23,2.6-.68.77-.45,1.36-1.08,1.79-1.89.43-.8.64-1.72.64-2.74s-.21-1.94-.64-2.75c-.43-.81-1.02-1.45-1.79-1.9-.77-.45-1.63-.68-2.6-.68s-1.83.23-2.6.68c-.77.45-1.37,1.09-1.8,1.9s-.65,1.73-.65,2.75.22,1.93.65,2.74c.44.8,1.04,1.43,1.8,1.89.77.45,1.63.68,2.6.68h0ZM204.23,103.58c.34,0,.63.13.87.4.24.26.35.61.35,1.02s-.16.76-.47,1.02-.71.4-1.21.4h-.51c-.93,0-1.77-.24-2.54-.72-.77-.48-1.37-1.14-1.8-1.97-.44-.83-.65-1.77-.65-2.81v-7.01h-1.31c-.4,0-.72-.11-.96-.34-.25-.23-.37-.51-.37-.85,0-.38.12-.68.37-.91.25-.23.57-.34.96-.34h1.31v-4.09c0-.42.13-.76.4-1.02.26-.26.61-.4,1.02-.4s.76.13,1.02.4c.27.26.4.61.4,1.02v4.09h2.41c.4,0,.72.11.96.34.25.23.37.53.37.91,0,.34-.12.62-.37.85-.25.23-.57.34-.96.34h-2.41v7.01c0,.76.21,1.39.62,1.9.42.51.93.77,1.53.77h.96ZM215.61,103.58c.34,0,.63.13.87.4.24.26.35.61.35,1.02s-.16.76-.47,1.02-.71.4-1.21.4h-.51c-.93,0-1.77-.24-2.54-.72-.77-.48-1.37-1.14-1.8-1.97-.44-.83-.65-1.77-.65-2.81v-7.01h-1.31c-.4,0-.72-.11-.96-.34-.25-.23-.37-.51-.37-.85,0-.38.12-.68.37-.91.25-.23.57-.34.96-.34h1.31v-4.09c0-.42.13-.76.4-1.02.26-.26.61-.4,1.02-.4s.76.13,1.02.4c.26.26.4.61.4,1.02v4.09h2.41c.4,0,.72.11.96.34.25.23.37.53.37.91,0,.34-.12.62-.37.85-.25.23-.57.34-.96.34h-2.41v7.01c0,.76.21,1.39.62,1.9.42.51.93.77,1.53.77h.96ZM221.19,106.87c-.53,0-.99-.19-1.38-.58-.39-.39-.58-.85-.58-1.38s.19-1.02.58-1.4c.39-.39.85-.58,1.38-.58s.99.19,1.38.58c.39.39.58.86.58,1.4s-.19.99-.57,1.38c-.38.39-.84.58-1.39.58h0ZM256.43,84.26c.42,0,.77.14,1.05.43.28.28.43.63.43,1.05v19.21c0,.42-.15.77-.44,1.05-.29.28-.64.43-1.04.43s-.77-.14-1.05-.43c-.28-.28-.43-.63-.43-1.05v-14.1l-6.87,13.99c-.32.49-.75.74-1.28.74-.62,0-1.08-.29-1.36-.88l-6.78-13.59v13.85c0,.42-.14.77-.43,1.05-.28.28-.63.43-1.05.43s-.77-.14-1.05-.43-.43-.63-.43-1.05v-19.21c0-.42.14-.77.43-1.05.28-.28.63-.43,1.05-.43.57,0,1,.26,1.31.79l8.43,16.88,8.2-16.88c.3-.53.74-.79,1.31-.79h0ZM270.34,90.78c1.46,0,2.78.35,3.96,1.04,1.18.69,2.12,1.64,2.81,2.84.69,1.2,1.04,2.54,1.04,4.01v6.33c0,.42-.14.76-.41,1.04s-.62.41-1.04.41-.76-.14-1.04-.41c-.27-.27-.41-.62-.41-1.04v-1.05c-.66.81-1.47,1.45-2.41,1.9-.95.45-1.97.68-3.06.68-1.36,0-2.6-.34-3.7-1.02-1.11-.68-1.98-1.62-2.61-2.82-.63-1.2-.95-2.54-.95-4.01s.34-2.81,1.02-4.01c.68-1.2,1.62-2.15,2.82-2.84,1.2-.69,2.53-1.04,3.99-1.04h0ZM270.34,103.97c.95,0,1.8-.23,2.57-.7.77-.46,1.37-1.1,1.8-1.9.44-.8.65-1.71.65-2.71s-.22-1.91-.65-2.72c-.43-.81-1.04-1.45-1.8-1.92-.77-.46-1.62-.7-2.57-.7s-1.8.23-2.57.7c-.77.46-1.37,1.1-1.82,1.92-.44.81-.67,1.72-.67,2.72s.22,1.91.67,2.71,1.05,1.44,1.82,1.9c.77.46,1.62.7,2.57.7h0ZM289.06,103.58c.34,0,.63.13.87.4.24.26.35.61.35,1.02s-.16.76-.47,1.02-.71.4-1.21.4h-.51c-.93,0-1.77-.24-2.54-.72-.77-.48-1.37-1.14-1.8-1.97-.44-.83-.65-1.77-.65-2.81v-7.01h-1.3c-.4,0-.72-.11-.96-.34-.25-.23-.37-.51-.37-.85,0-.38.12-.68.37-.91.25-.23.57-.34.96-.34h1.3v-4.09c0-.42.13-.76.4-1.02.26-.26.61-.4,1.02-.4s.76.13,1.02.4c.26.26.4.61.4,1.02v4.09h2.41c.4,0,.72.11.96.34.25.23.37.53.37.91,0,.34-.12.62-.37.85-.25.23-.57.34-.96.34h-2.41v7.01c0,.76.21,1.39.62,1.9.42.51.93.77,1.53.77h.96ZM300.44,103.58c.34,0,.63.13.87.4.24.26.35.61.35,1.02s-.16.76-.47,1.02-.71.4-1.21.4h-.51c-.93,0-1.77-.24-2.54-.72-.77-.48-1.37-1.14-1.8-1.97-.44-.83-.65-1.77-.65-2.81v-7.01h-1.31c-.4,0-.72-.11-.96-.34-.25-.23-.37-.51-.37-.85,0-.38.12-.68.37-.91.25-.23.57-.34.96-.34h1.31v-4.09c0-.42.13-.76.4-1.02.26-.26.61-.4,1.02-.4s.76.13,1.02.4c.27.26.4.61.4,1.02v4.09h2.41c.4,0,.72.11.96.34.25.23.37.53.37.91,0,.34-.12.62-.37.85-.25.23-.57.34-.96.34h-2.41v7.01c0,.76.21,1.39.62,1.9.42.51.93.77,1.53.77h.96ZM319.14,98.41c0,.36-.12.66-.37.89-.25.24-.56.35-.94.35h-10.78c.21,1.32.81,2.39,1.8,3.21.99.81,2.21,1.22,3.65,1.22.57,0,1.16-.1,1.77-.31.61-.21,1.12-.46,1.52-.77.26-.21.58-.31.94-.31s.64.09.85.28c.34.28.51.61.51.96,0,.34-.15.62-.45.85-.64.51-1.44.93-2.4,1.25-.96.32-1.87.48-2.74.48-1.55,0-2.94-.34-4.17-1.01-1.23-.67-2.19-1.6-2.88-2.79-.69-1.19-1.04-2.54-1.04-4.06s.33-2.87.98-4.07c.65-1.2,1.56-2.14,2.72-2.81,1.16-.67,2.48-1.01,3.96-1.01s2.71.32,3.77.96c1.06.64,1.87,1.54,2.44,2.7.57,1.15.85,2.48.85,3.97h0ZM312.07,93.22c-1.38,0-2.5.38-3.36,1.14-.86.76-1.4,1.77-1.63,3.04h9.45c-.17-1.27-.64-2.28-1.42-3.04-.78-.76-1.79-1.14-3.04-1.14h0ZM329.29,106.53c-1.51,0-2.87-.34-4.06-1.01-1.19-.67-2.12-1.6-2.78-2.79-.66-1.19-.99-2.54-.99-4.06s.33-2.89.99-4.09c.66-1.19,1.59-2.12,2.78-2.79,1.19-.67,2.54-1.01,4.06-1.01s2.83.34,4.01,1.01c1.18.67,2.11,1.6,2.78,2.79.67,1.19,1.01,2.55,1.01,4.09s-.33,2.87-.99,4.06c-.66,1.19-1.58,2.12-2.77,2.79-1.18.67-2.53,1.01-4.04,1.01h0ZM329.29,103.97c.96,0,1.83-.23,2.6-.68.77-.45,1.36-1.08,1.79-1.89.43-.8.64-1.72.64-2.74s-.21-1.94-.64-2.75c-.43-.81-1.02-1.45-1.79-1.9-.77-.45-1.63-.68-2.6-.68s-1.83.23-2.6.68c-.77.45-1.37,1.09-1.8,1.9-.44.81-.65,1.73-.65,2.75s.22,1.93.65,2.74c.44.8,1.04,1.43,1.8,1.89.77.45,1.63.68,2.6.68h0ZM357.04,106.7c-1.83,0-3.5-.42-5.01-1.25-1.5-.83-2.54-1.92-3.11-3.26-.09-.23-.14-.42-.14-.57,0-.28.1-.53.31-.75.21-.22.49-.36.85-.44.06-.02.15-.03.28-.03.3,0,.59.09.87.27.27.18.48.42.61.72.34.74,1.01,1.36,2.01,1.87,1,.51,2.11.77,3.32.77,1.42,0,2.62-.33,3.6-.98.98-.65,1.48-1.55,1.48-2.68s-.42-2-1.25-2.77c-.83-.77-2.1-1.23-3.8-1.4-2.35-.23-4.19-.91-5.53-2.06-1.34-1.14-2.01-2.58-2.01-4.3,0-1.21.34-2.26,1.04-3.14.69-.88,1.64-1.55,2.84-2.01,1.2-.46,2.55-.7,4.04-.7,1.63,0,3,.33,4.11.99,1.12.66,2.06,1.61,2.84,2.84.23.36.34.7.34,1.02,0,.42-.19.76-.57,1.02-.21.13-.45.2-.74.2s-.55-.07-.79-.21c-.25-.14-.44-.34-.57-.58-.51-.85-1.15-1.5-1.92-1.94-.77-.44-1.74-.67-2.91-.67-1.44,0-2.6.28-3.49.84-.89.56-1.33,1.37-1.33,2.43,0,.98.4,1.81,1.19,2.47.79.66,2.21,1.1,4.26,1.31,2.27.23,4.03.91,5.28,2.06,1.25,1.14,1.87,2.65,1.87,4.53,0,1.36-.37,2.53-1.11,3.5-.74.97-1.72,1.7-2.94,2.18-1.22.48-2.53.72-3.93.72h0ZM375.85,103.58c.34,0,.63.13.87.4.24.26.35.61.35,1.02s-.16.76-.47,1.02-.71.4-1.21.4h-.51c-.93,0-1.77-.24-2.54-.72-.77-.48-1.37-1.14-1.8-1.97-.44-.83-.65-1.77-.65-2.81v-7.01h-1.3c-.4,0-.72-.11-.96-.34-.25-.23-.37-.51-.37-.85,0-.38.12-.68.37-.91.25-.23.57-.34.96-.34h1.3v-4.09c0-.42.13-.76.4-1.02.26-.26.61-.4,1.02-.4s.76.13,1.02.4c.26.26.4.61.4,1.02v4.09h2.41c.4,0,.72.11.96.34.25.23.37.53.37.91,0,.34-.12.62-.37.85-.25.23-.57.34-.96.34h-2.41v7.01c0,.76.21,1.39.62,1.9.42.51.93.77,1.53.77h.96ZM382.35,106.41c-.42,0-.76-.14-1.04-.41-.27-.27-.41-.62-.41-1.04v-12.63c0-.43.14-.78.41-1.05.27-.26.62-.4,1.04-.4s.78.13,1.05.4c.26.26.4.61.4,1.05v12.63c0,.42-.13.76-.4,1.04-.26.27-.61.41-1.05.41h0ZM382.35,88.37c-.51,0-.95-.18-1.32-.55-.37-.37-.55-.81-.55-1.32s.18-.95.55-1.32c.37-.37.81-.55,1.32-.55s.95.18,1.32.55c.37.37.55.81.55,1.32s-.18.95-.55,1.32c-.37.37-.81.55-1.32.55h0ZM403.12,98.41c0,.36-.12.66-.37.89-.25.24-.56.35-.94.35h-10.78c.21,1.32.81,2.39,1.8,3.21.99.81,2.21,1.22,3.65,1.22.57,0,1.16-.1,1.77-.31.61-.21,1.12-.46,1.52-.77.26-.21.58-.31.94-.31s.64.09.85.28c.34.28.51.61.51.96,0,.34-.15.62-.45.85-.64.51-1.44.93-2.4,1.25-.96.32-1.87.48-2.74.48-1.55,0-2.94-.34-4.17-1.01-1.23-.67-2.19-1.6-2.88-2.79s-1.04-2.54-1.04-4.06.33-2.87.98-4.07c.65-1.2,1.56-2.14,2.72-2.81,1.16-.67,2.48-1.01,3.96-1.01s2.71.32,3.77.96c1.06.64,1.87,1.54,2.44,2.7.57,1.15.85,2.48.85,3.97h0ZM396.05,93.22c-1.38,0-2.5.38-3.36,1.14-.86.76-1.4,1.77-1.63,3.04h9.45c-.17-1.27-.64-2.28-1.42-3.04-.78-.76-1.79-1.14-3.04-1.14h0ZM418.18,91.09c.25.11.44.27.57.47.13.2.2.42.2.67,0,.17-.05.35-.14.54l-6.01,12.68c-.28.62-.72.94-1.31.94-.32,0-.59-.07-.79-.21-.21-.14-.4-.38-.57-.72l-6.02-12.68c-.08-.15-.11-.32-.11-.51,0-.51.26-.9.79-1.16.17-.09.37-.14.6-.14s.44.06.65.18c.21.12.37.3.48.52l4.94,10.64,4.88-10.64c.11-.23.28-.4.5-.52.22-.12.45-.18.7-.18s.46.05.65.14h0ZM428.26,90.78c1.46,0,2.78.35,3.96,1.04,1.18.69,2.12,1.64,2.81,2.84.69,1.2,1.04,2.54,1.04,4.01v6.33c0,.42-.14.76-.41,1.04s-.62.41-1.04.41-.76-.14-1.04-.41c-.27-.27-.41-.62-.41-1.04v-1.05c-.66.81-1.47,1.45-2.41,1.9-.95.45-1.97.68-3.06.68-1.36,0-2.6-.34-3.7-1.02-1.11-.68-1.98-1.62-2.61-2.82-.63-1.2-.95-2.54-.95-4.01s.34-2.81,1.02-4.01c.68-1.2,1.62-2.15,2.82-2.84,1.2-.69,2.53-1.04,3.99-1.04h0ZM428.26,103.97c.95,0,1.8-.23,2.57-.7.77-.46,1.37-1.1,1.8-1.9.44-.8.65-1.71.65-2.71s-.22-1.91-.65-2.72c-.43-.81-1.04-1.45-1.8-1.92-.77-.46-1.62-.7-2.57-.7s-1.8.23-2.57.7c-.77.46-1.37,1.1-1.82,1.92-.44.81-.67,1.72-.67,2.72s.22,1.91.67,2.71c.44.8,1.05,1.44,1.82,1.9.77.46,1.62.7,2.57.7h0ZM448.09,90.75c1.31,0,2.48.28,3.52.85s1.85,1.39,2.44,2.48c.59,1.09.88,2.4.88,3.93v6.98c0,.42-.14.76-.41,1.04s-.62.41-1.04.41-.76-.14-1.04-.41c-.27-.27-.41-.62-.41-1.04v-6.98c0-1.53-.41-2.69-1.23-3.48-.82-.78-1.92-1.18-3.28-1.18-.79,0-1.52.16-2.17.48-.65.32-1.16.76-1.53,1.31-.37.55-.55,1.16-.55,1.84v8c0,.42-.13.76-.4,1.04-.26.27-.61.41-1.05.41s-.76-.14-1.04-.41-.41-.62-.41-1.04v-12.65c0-.43.14-.78.41-1.05.27-.26.62-.4,1.04-.4s.78.13,1.05.4c.26.26.4.61.4,1.05v.31c.61-.61,1.32-1.07,2.16-1.4.83-.33,1.72-.5,2.67-.5h0ZM466.76,106.53c-1.51,0-2.87-.34-4.06-1.01-1.19-.67-2.12-1.6-2.78-2.79-.66-1.19-.99-2.54-.99-4.06s.33-2.89.99-4.09c.66-1.19,1.59-2.12,2.78-2.79,1.19-.67,2.54-1.01,4.06-1.01s2.83.34,4.01,1.01c1.18.67,2.11,1.6,2.78,2.79.67,1.19,1.01,2.55,1.01,4.09s-.33,2.87-.99,4.06c-.66,1.19-1.58,2.12-2.77,2.79-1.18.67-2.53,1.01-4.04,1.01h0ZM466.76,103.97c.96,0,1.83-.23,2.6-.68.77-.45,1.36-1.08,1.79-1.89.43-.8.64-1.72.64-2.74s-.21-1.94-.64-2.75c-.43-.81-1.02-1.45-1.79-1.9-.77-.45-1.63-.68-2.6-.68s-1.83.23-2.6.68c-.77.45-1.37,1.09-1.8,1.9-.44.81-.65,1.73-.65,2.75s.22,1.93.65,2.74c.44.8,1.04,1.43,1.8,1.89.77.45,1.63.68,2.6.68Z"/>
  <g>
    <path class="cls-5" d="M162.58,120.28c.91,0,1.73.21,2.48.64.75.43,1.33,1.02,1.76,1.77.42.75.64,1.58.64,2.5s-.2,1.75-.59,2.5c-.39.75-.94,1.33-1.62,1.76-.69.42-1.46.64-2.3.64-.68,0-1.32-.14-1.91-.42-.59-.28-1.09-.68-1.5-1.18v4.77c0,.27-.08.49-.25.65s-.38.25-.65.25-.47-.08-.64-.25c-.17-.16-.26-.38-.26-.65v-8.05c0-.92.21-1.75.64-2.5.43-.75,1.01-1.34,1.75-1.77.74-.43,1.56-.64,2.46-.64h0ZM162.58,128.49c.59,0,1.12-.14,1.6-.43.48-.29.85-.68,1.13-1.18.28-.5.41-1.06.41-1.69s-.14-1.19-.41-1.69c-.28-.51-.65-.9-1.13-1.19-.48-.29-1.01-.43-1.6-.43s-1.12.14-1.6.43c-.48.29-.85.69-1.12,1.19s-.41,1.07-.41,1.69.14,1.19.41,1.69c.27.5.64.89,1.12,1.18.48.29,1.01.43,1.6.43h0ZM173.65,130.07c-.8,0-1.55-.12-2.26-.37s-1.26-.57-1.66-.97c-.15-.15-.23-.34-.23-.55,0-.28.12-.51.35-.69.22-.16.43-.25.62-.25.24,0,.46.11.67.32.22.25.56.46,1.01.64.45.18.92.27,1.43.27.67,0,1.19-.11,1.56-.34.37-.22.56-.52.56-.9s-.18-.67-.55-.91c-.36-.24-.98-.44-1.85-.61-2.26-.44-3.39-1.37-3.39-2.79,0-.58.17-1.07.51-1.47.34-.4.79-.7,1.34-.9.55-.2,1.14-.3,1.77-.3.76,0,1.45.12,2.06.37.61.25,1.09.59,1.44,1.02.15.19.23.38.23.56,0,.2-.1.38-.3.55-.13.09-.29.14-.49.14-.31,0-.58-.11-.83-.34-.29-.27-.61-.46-.94-.57-.33-.11-.73-.17-1.2-.17-.54,0-.99.09-1.33.27-.35.18-.52.44-.52.77,0,.24.06.43.18.59.12.16.34.31.67.44.33.14.81.27,1.43.4,1.28.26,2.19.62,2.73,1.08.54.46.8,1.05.8,1.78,0,.54-.15,1.03-.44,1.47-.29.44-.73.79-1.3,1.04s-1.26.38-2.06.38h0ZM180.8,130c-.26,0-.47-.09-.64-.26-.17-.17-.26-.39-.26-.64v-7.86c0-.27.09-.49.26-.65.17-.16.39-.25.64-.25s.49.08.65.25.25.38.25.65v7.86c0,.26-.08.47-.25.64-.16.17-.38.26-.65.26h0ZM180.8,118.78c-.32,0-.59-.11-.82-.34-.23-.23-.34-.5-.34-.82s.11-.59.34-.82c.23-.23.5-.34.82-.34s.59.11.82.34c.23.23.34.5.34.82s-.11.59-.34.82-.5.34-.82.34h0ZM189.43,130.07c-.93,0-1.77-.21-2.51-.64-.74-.42-1.32-1.01-1.74-1.76-.42-.75-.63-1.58-.63-2.5s.2-1.79.61-2.53c.41-.75.97-1.33,1.7-1.75.73-.42,1.55-.63,2.47-.63,1.39,0,2.54.53,3.46,1.59.12.13.18.28.18.46,0,.26-.13.48-.39.65-.12.08-.25.12-.41.12-.27,0-.5-.11-.69-.32-.29-.32-.61-.55-.96-.7-.35-.15-.74-.22-1.19-.22-.91,0-1.64.3-2.21.91-.56.61-.85,1.41-.85,2.41,0,.64.13,1.2.4,1.7.26.5.64.89,1.11,1.17.48.28,1.02.42,1.63.42.8,0,1.45-.21,1.94-.62.22-.16.44-.25.65-.25.16,0,.32.05.46.16.22.19.34.4.34.64,0,.18-.07.34-.21.48-.85.79-1.91,1.18-3.18,1.18h0ZM200.04,130.07c-.94,0-1.78-.21-2.52-.63-.74-.42-1.32-1-1.73-1.74-.41-.74-.62-1.58-.62-2.52s.21-1.8.62-2.54c.41-.74.99-1.32,1.73-1.74.74-.42,1.58-.63,2.52-.63s1.76.21,2.5.63c.74.42,1.31,1,1.73,1.74.42.74.63,1.59.63,2.54s-.21,1.78-.62,2.52c-.41.74-.99,1.32-1.72,1.74-.74.42-1.57.63-2.52.63h0ZM200.04,128.49c.6,0,1.14-.14,1.62-.42.48-.28.85-.67,1.11-1.17.27-.5.4-1.07.4-1.7s-.13-1.21-.4-1.71c-.26-.51-.64-.9-1.11-1.18-.48-.28-1.02-.42-1.62-.42s-1.14.14-1.62.42c-.48.28-.85.68-1.12,1.18-.27.51-.41,1.08-.41,1.71s.14,1.2.41,1.7c.27.5.64.89,1.12,1.17.48.28,1.02.42,1.62.42h0ZM209.87,130c-.51,0-.96-.14-1.37-.42-.41-.28-.72-.66-.94-1.16-.22-.5-.34-1.06-.34-1.69v-9.64c0-.26.08-.47.25-.64.16-.16.38-.25.64-.25s.47.08.64.25c.16.16.25.38.25.64v9.64c0,.44.08.79.25,1.08.16.28.38.42.64.42h.44c.24,0,.43.08.57.25.15.16.22.38.22.64s-.11.47-.34.64c-.22.16-.51.25-.87.25h-.04ZM216.72,130.07c-.94,0-1.78-.21-2.52-.63-.74-.42-1.32-1-1.73-1.74-.41-.74-.62-1.58-.62-2.52s.21-1.8.62-2.54c.41-.74.99-1.32,1.73-1.74.74-.42,1.58-.63,2.52-.63s1.76.21,2.5.63c.74.42,1.31,1,1.73,1.74.42.74.63,1.59.63,2.54s-.21,1.78-.62,2.52c-.41.74-.99,1.32-1.72,1.74-.74.42-1.57.63-2.52.63h0ZM216.72,128.49c.6,0,1.14-.14,1.62-.42.48-.28.85-.67,1.11-1.17.26-.5.4-1.07.4-1.7s-.13-1.21-.4-1.71c-.26-.51-.64-.9-1.11-1.18-.48-.28-1.02-.42-1.62-.42s-1.14.14-1.62.42c-.48.28-.85.68-1.12,1.18-.27.51-.41,1.08-.41,1.71s.14,1.2.41,1.7c.27.5.64.89,1.12,1.17.48.28,1.02.42,1.62.42h0ZM228.64,120.28c.93,0,1.76.21,2.5.63.74.42,1.31,1,1.73,1.74.42.74.63,1.59.63,2.54v3.81c0,.93-.21,1.78-.62,2.54-.41.77-.99,1.37-1.74,1.81-.75.44-1.59.66-2.53.66-.85,0-1.64-.17-2.37-.5-.73-.34-1.34-.82-1.84-1.44-.13-.17-.19-.33-.19-.49,0-.25.12-.46.37-.64.16-.11.33-.16.49-.16.29,0,.54.12.72.37.32.41.72.73,1.2.94.48.22,1.03.33,1.64.33.58,0,1.1-.14,1.57-.41.47-.28.85-.68,1.13-1.22.28-.54.42-1.17.42-1.92v-.87c-.36.65-.85,1.15-1.45,1.52-.6.37-1.28.55-2.03.55-.87,0-1.65-.21-2.34-.63-.69-.42-1.22-1-1.61-1.74-.38-.74-.57-1.58-.57-2.52s.21-1.8.62-2.54c.41-.74.99-1.32,1.73-1.74.74-.42,1.58-.63,2.52-.63h0ZM228.64,128.49c.6,0,1.14-.14,1.62-.42.48-.28.85-.67,1.11-1.17.27-.5.4-1.07.4-1.7s-.13-1.21-.4-1.71c-.26-.51-.64-.9-1.11-1.18-.48-.28-1.02-.42-1.62-.42s-1.14.14-1.62.42c-.48.28-.85.68-1.12,1.18-.27.51-.41,1.08-.41,1.71s.14,1.2.41,1.7c.27.5.64.89,1.12,1.17.48.28,1.01.42,1.62.42h0ZM237.26,130c-.26,0-.47-.09-.64-.26-.17-.17-.26-.39-.26-.64v-7.86c0-.27.09-.49.26-.65.17-.16.39-.25.64-.25s.49.08.65.25.25.38.25.65v7.86c0,.26-.08.47-.25.64-.16.17-.38.26-.65.26h0ZM237.26,118.78c-.32,0-.59-.11-.82-.34-.23-.23-.34-.5-.34-.82s.11-.59.34-.82c.23-.23.5-.34.82-.34s.59.11.82.34c.23.23.34.5.34.82s-.11.59-.34.82-.5.34-.82.34h0ZM245.89,120.28c.91,0,1.73.21,2.46.64.74.43,1.32,1.02,1.75,1.77.43.75.64,1.58.64,2.5v3.94c0,.26-.09.47-.26.64-.17.17-.39.26-.64.26s-.47-.09-.64-.26c-.17-.17-.26-.39-.26-.64v-.65c-.41.51-.91.9-1.5,1.18-.59.28-1.22.42-1.91.42-.85,0-1.62-.21-2.3-.64-.69-.42-1.23-1.01-1.62-1.76-.39-.75-.59-1.58-.59-2.5s.21-1.75.64-2.5c.42-.75,1.01-1.34,1.76-1.77.75-.43,1.57-.64,2.48-.64h0ZM245.89,128.49c.59,0,1.12-.14,1.6-.43.48-.29.85-.68,1.12-1.18.27-.5.41-1.06.41-1.69s-.14-1.19-.41-1.69-.64-.9-1.12-1.19c-.48-.29-1.01-.43-1.6-.43s-1.12.14-1.6.43c-.48.29-.85.69-1.13,1.19-.28.51-.41,1.07-.41,1.69s.14,1.19.41,1.69c.28.5.65.89,1.13,1.18.48.29,1.01.43,1.6.43h0ZM272.44,125.03c0,.22-.08.41-.23.56-.15.15-.35.22-.58.22h-6.71c.13.82.5,1.49,1.12,1.99.62.51,1.37.76,2.27.76.35,0,.72-.06,1.1-.19.38-.13.7-.29.94-.48.16-.13.36-.19.58-.19s.4.06.53.18c.21.18.32.38.32.6,0,.21-.09.39-.28.53-.4.32-.9.58-1.49.78-.59.2-1.16.3-1.7.3-.97,0-1.83-.21-2.6-.63-.76-.42-1.36-1-1.79-1.74-.43-.74-.64-1.58-.64-2.52s.2-1.79.61-2.53c.41-.75.97-1.33,1.69-1.75.72-.42,1.54-.63,2.46-.63s1.69.2,2.35.6c.66.4,1.17.96,1.52,1.68.35.72.53,1.54.53,2.47h0ZM268.04,121.79c-.86,0-1.56.24-2.09.71-.54.47-.87,1.1-1.02,1.89h5.88c-.11-.79-.4-1.42-.88-1.89-.48-.47-1.11-.71-1.89-.71h0ZM282.71,116.22c.27,0,.49.08.65.25.16.16.25.38.25.65v8.05c0,.92-.21,1.75-.64,2.5-.43.75-1.01,1.34-1.75,1.77-.74.43-1.56.64-2.46.64s-1.73-.21-2.48-.64c-.75-.43-1.33-1.02-1.76-1.77-.42-.75-.64-1.58-.64-2.5s.2-1.75.59-2.5c.39-.75.94-1.33,1.62-1.76.69-.42,1.46-.64,2.3-.64.68,0,1.32.14,1.91.42s1.09.68,1.5,1.18v-4.77c0-.27.09-.49.26-.65.17-.16.39-.25.64-.25h0ZM278.76,128.49c.59,0,1.12-.14,1.6-.43.48-.29.85-.69,1.12-1.19.27-.51.41-1.07.41-1.69s-.14-1.19-.41-1.69c-.27-.5-.64-.89-1.12-1.18-.48-.29-1.01-.43-1.6-.43s-1.12.14-1.6.43c-.48.29-.85.68-1.13,1.18-.28.5-.41,1.06-.41,1.69s.14,1.19.41,1.69c.28.51.65.9,1.13,1.19.48.29,1.01.43,1.6.43h0ZM294.75,120.33c.27,0,.49.08.65.25.16.16.25.38.25.65v7.87c0,.26-.08.47-.25.64-.16.17-.38.26-.65.26s-.47-.09-.64-.26c-.17-.17-.26-.39-.26-.64v-.19c-.38.38-.82.67-1.34.87-.52.21-1.07.31-1.66.31-.81,0-1.54-.18-2.19-.53-.65-.35-1.15-.87-1.52-1.54-.36-.68-.55-1.49-.55-2.45v-4.34c0-.26.09-.47.26-.64s.39-.26.64-.26.47.09.64.26.26.39.26.64v4.34c0,.95.26,1.67.77,2.16.51.49,1.19.73,2.04.73.49,0,.94-.1,1.35-.3.41-.2.72-.47.95-.81.23-.34.34-.72.34-1.15v-4.98c0-.27.09-.49.26-.65.17-.16.39-.25.64-.25h0ZM303.21,130.07c-.93,0-1.77-.21-2.51-.64-.74-.42-1.32-1.01-1.74-1.76-.42-.75-.63-1.58-.63-2.5s.2-1.79.61-2.53c.41-.75.97-1.33,1.7-1.75.73-.42,1.55-.63,2.47-.63,1.39,0,2.54.53,3.46,1.59.12.13.18.28.18.46,0,.26-.13.48-.39.65-.12.08-.25.12-.41.12-.27,0-.5-.11-.69-.32-.29-.32-.61-.55-.96-.7-.35-.15-.74-.22-1.19-.22-.91,0-1.64.3-2.21.91-.56.61-.85,1.41-.85,2.41,0,.64.13,1.2.4,1.7.26.5.64.89,1.11,1.17.48.28,1.02.42,1.63.42.8,0,1.45-.21,1.94-.62.22-.16.44-.25.65-.25.16,0,.32.05.46.16.22.19.34.4.34.64,0,.18-.07.34-.21.48-.85.79-1.91,1.18-3.18,1.18h0ZM313.82,120.28c.91,0,1.73.21,2.46.64.74.43,1.32,1.02,1.75,1.77.43.75.64,1.58.64,2.5v3.94c0,.26-.09.47-.26.64s-.39.26-.64.26-.47-.09-.64-.26c-.17-.17-.26-.39-.26-.64v-.65c-.41.51-.91.9-1.5,1.18-.59.28-1.22.42-1.91.42-.85,0-1.62-.21-2.3-.64-.69-.42-1.23-1.01-1.62-1.76-.39-.75-.59-1.58-.59-2.5s.21-1.75.64-2.5c.42-.75,1.01-1.34,1.76-1.77.75-.43,1.57-.64,2.48-.64h0ZM313.82,128.49c.59,0,1.12-.14,1.6-.43.48-.29.85-.68,1.12-1.18.27-.5.41-1.06.41-1.69s-.14-1.19-.41-1.69-.64-.9-1.12-1.19c-.48-.29-1.01-.43-1.6-.43s-1.12.14-1.6.43c-.48.29-.85.69-1.13,1.19-.28.51-.41,1.07-.41,1.69s.14,1.19.41,1.69c.28.5.65.89,1.13,1.18.48.29,1.01.43,1.6.43h0ZM327.77,128.34c.55,0,.83.28.83.83s-.28.83-.83.83h-6.02c-.55,0-.83-.28-.83-.83,0-.24.05-.42.16-.57l5-6.6h-4.5c-.55,0-.83-.28-.83-.83s.28-.83.83-.83h6.02c.55,0,.83.28.83.83,0,.24-.05.42-.16.56l-4.98,6.6h4.48ZM331.97,130c-.26,0-.47-.09-.64-.26s-.26-.39-.26-.64v-7.86c0-.27.09-.49.26-.65.17-.16.39-.25.64-.25s.49.08.65.25c.16.17.25.38.25.65v7.86c0,.26-.08.47-.25.64-.16.17-.38.26-.65.26h0ZM331.97,118.78c-.32,0-.59-.11-.82-.34-.23-.23-.34-.5-.34-.82s.11-.59.34-.82c.23-.23.5-.34.82-.34s.59.11.82.34c.23.23.34.5.34.82s-.11.59-.34.82-.5.34-.82.34h0ZM340.6,130.07c-.94,0-1.78-.21-2.52-.63-.74-.42-1.32-1-1.73-1.74-.41-.74-.62-1.58-.62-2.52s.21-1.8.62-2.54c.41-.74.99-1.32,1.73-1.74.74-.42,1.58-.63,2.52-.63s1.76.21,2.5.63c.74.42,1.31,1,1.73,1.74.42.74.63,1.59.63,2.54s-.21,1.78-.62,2.52c-.41.74-.99,1.32-1.72,1.74-.74.42-1.57.63-2.52.63h0ZM340.6,128.49c.6,0,1.14-.14,1.62-.42.48-.28.85-.67,1.11-1.17.26-.5.4-1.07.4-1.7s-.13-1.21-.4-1.71c-.26-.51-.64-.9-1.11-1.18-.48-.28-1.02-.42-1.62-.42s-1.14.14-1.62.42c-.48.28-.85.68-1.12,1.18-.27.51-.41,1.08-.41,1.71s.14,1.2.41,1.7c.27.5.64.89,1.12,1.17.48.28,1.02.42,1.62.42h0ZM352.94,120.26c.81,0,1.54.18,2.19.53.65.35,1.15.87,1.52,1.54.36.68.55,1.49.55,2.44v4.34c0,.26-.09.47-.26.64s-.39.26-.64.26-.47-.09-.64-.26-.26-.39-.26-.64v-4.34c0-.95-.26-1.67-.77-2.16s-1.19-.73-2.04-.73c-.49,0-.94.1-1.35.3-.41.2-.72.47-.95.81-.23.34-.34.72-.34,1.15v4.98c0,.26-.08.47-.25.64-.16.17-.38.26-.65.26s-.47-.09-.64-.26c-.17-.17-.26-.39-.26-.64v-7.87c0-.27.09-.49.26-.65.17-.16.39-.25.64-.25s.49.08.65.25c.16.17.25.38.25.65v.19c.38-.38.82-.67,1.34-.87.52-.21,1.07-.31,1.66-.31h0ZM368.85,125.03c0,.22-.08.41-.23.56-.15.15-.35.22-.58.22h-6.71c.13.82.5,1.49,1.12,1.99.62.51,1.37.76,2.27.76.35,0,.72-.06,1.1-.19.38-.13.7-.29.94-.48.16-.13.36-.19.58-.19s.4.06.53.18c.21.18.32.38.32.6,0,.21-.09.39-.28.53-.4.32-.9.58-1.49.78-.59.2-1.16.3-1.7.3-.97,0-1.83-.21-2.6-.63-.77-.42-1.36-1-1.79-1.74-.43-.74-.64-1.58-.64-2.52s.2-1.79.61-2.53c.41-.75.97-1.33,1.69-1.75.72-.42,1.54-.63,2.46-.63s1.69.2,2.35.6c.66.4,1.16.96,1.52,1.68.35.72.53,1.54.53,2.47h0ZM364.45,121.79c-.86,0-1.56.24-2.09.71-.54.47-.87,1.1-1.02,1.89h5.88c-.11-.79-.4-1.42-.88-1.89-.48-.47-1.11-.71-1.89-.71h0ZM386.7,120.28c.85,0,1.62.21,2.3.64.69.42,1.23,1.01,1.62,1.76.39.75.59,1.58.59,2.5s-.21,1.75-.64,2.5c-.42.75-1.01,1.34-1.76,1.77-.75.43-1.57.64-2.48.64s-1.73-.21-2.46-.64c-.74-.43-1.32-1.02-1.75-1.77-.43-.75-.64-1.58-.64-2.5v-8.05c0-.27.09-.49.26-.65.17-.16.39-.25.64-.25s.49.08.65.25c.16.16.25.38.25.65v4.77c.41-.51.91-.9,1.5-1.18s1.22-.42,1.91-.42h0ZM386.34,128.49c.59,0,1.12-.14,1.6-.43.48-.29.85-.69,1.13-1.19.28-.51.41-1.07.41-1.69s-.14-1.19-.41-1.69c-.28-.5-.65-.89-1.13-1.18-.48-.29-1.01-.43-1.6-.43s-1.12.14-1.6.43c-.48.29-.85.68-1.12,1.18-.27.5-.41,1.06-.41,1.69s.14,1.19.41,1.69c.27.51.64.9,1.12,1.19.48.29,1.01.43,1.6.43Z"/>
    <path class="cls-5" d="M402.57,125.03c0,.22-.08.41-.23.56-.15.15-.35.22-.58.22h-6.71c.13.82.5,1.49,1.12,1.99.62.51,1.37.76,2.27.76.35,0,.72-.06,1.1-.19.38-.13.7-.29.94-.48.16-.13.36-.19.58-.19s.4.06.53.18c.21.18.32.38.32.6,0,.21-.09.39-.28.53-.4.32-.9.58-1.49.78-.59.2-1.16.3-1.7.3-.97,0-1.83-.21-2.6-.63-.77-.42-1.36-1-1.79-1.74-.43-.74-.64-1.58-.64-2.52s.2-1.79.61-2.53c.41-.75.97-1.33,1.69-1.75.72-.42,1.54-.63,2.46-.63s1.69.2,2.35.6c.66.4,1.17.96,1.52,1.68.35.72.53,1.54.53,2.47h0ZM398.17,121.79c-.86,0-1.56.24-2.09.71-.54.47-.87,1.1-1.02,1.89h5.88c-.11-.79-.4-1.42-.88-1.89-.48-.47-1.11-.71-1.89-.71h0ZM409.66,120.26c.81,0,1.54.18,2.19.53.65.35,1.15.87,1.52,1.54.36.68.55,1.49.55,2.44v4.34c0,.26-.09.47-.26.64s-.39.26-.64.26-.47-.09-.64-.26c-.17-.17-.26-.39-.26-.64v-4.34c0-.95-.26-1.67-.77-2.16-.51-.49-1.19-.73-2.04-.73-.49,0-.94.1-1.35.3-.41.2-.72.47-.95.81s-.34.72-.34,1.15v4.98c0,.26-.08.47-.25.64-.16.17-.38.26-.65.26s-.47-.09-.64-.26-.26-.39-.26-.64v-7.87c0-.27.09-.49.26-.65.17-.16.39-.25.64-.25s.49.08.65.25c.16.17.25.38.25.65v.19c.38-.38.82-.67,1.34-.87.52-.21,1.07-.31,1.66-.31h0ZM425.57,125.03c0,.22-.08.41-.23.56-.15.15-.35.22-.58.22h-6.71c.13.82.5,1.49,1.12,1.99.62.51,1.37.76,2.27.76.35,0,.72-.06,1.1-.19.38-.13.7-.29.94-.48.16-.13.36-.19.58-.19s.4.06.53.18c.21.18.32.38.32.6,0,.21-.09.39-.28.53-.4.32-.9.58-1.49.78-.59.2-1.16.3-1.7.3-.97,0-1.83-.21-2.6-.63-.77-.42-1.36-1-1.79-1.74-.43-.74-.64-1.58-.64-2.52s.2-1.79.61-2.53c.41-.75.97-1.33,1.69-1.75.72-.42,1.54-.63,2.46-.63s1.69.2,2.35.6c.66.4,1.16.96,1.52,1.68.35.72.53,1.54.53,2.47h0ZM421.17,121.79c-.86,0-1.56.24-2.09.71-.54.47-.87,1.1-1.02,1.89h5.88c-.11-.79-.4-1.42-.88-1.89-.48-.47-1.11-.71-1.89-.71h0ZM431.38,130.07c-.8,0-1.55-.12-2.26-.37-.71-.25-1.26-.57-1.66-.97-.15-.15-.23-.34-.23-.55,0-.28.12-.51.35-.69.22-.16.43-.25.62-.25.24,0,.46.11.67.32.22.25.56.46,1.01.64.45.18.92.27,1.43.27.67,0,1.19-.11,1.56-.34.37-.22.56-.52.56-.9s-.18-.67-.55-.91c-.36-.24-.98-.44-1.85-.61-2.26-.44-3.39-1.37-3.39-2.79,0-.58.17-1.07.51-1.47.34-.4.79-.7,1.34-.9.55-.2,1.14-.3,1.77-.3.76,0,1.45.12,2.06.37.61.25,1.09.59,1.44,1.02.15.19.23.38.23.56,0,.2-.1.38-.3.55-.13.09-.29.14-.49.14-.31,0-.58-.11-.83-.34-.29-.27-.61-.46-.94-.57-.33-.11-.73-.17-1.2-.17-.54,0-.99.09-1.33.27-.35.18-.52.44-.52.77,0,.24.06.43.18.59.12.16.34.31.67.44.33.14.81.27,1.43.4,1.28.26,2.19.62,2.73,1.08.54.46.8,1.05.8,1.78,0,.54-.15,1.03-.44,1.47-.29.44-.73.79-1.3,1.04s-1.26.38-2.06.38h0ZM440.96,130.07c-.8,0-1.55-.12-2.26-.37s-1.26-.57-1.66-.97c-.15-.15-.23-.34-.23-.55,0-.28.12-.51.35-.69.22-.16.43-.25.62-.25.24,0,.46.11.67.32.22.25.56.46,1.01.64.45.18.92.27,1.43.27.67,0,1.19-.11,1.56-.34.37-.22.56-.52.56-.9s-.18-.67-.55-.91c-.36-.24-.98-.44-1.85-.61-2.26-.44-3.39-1.37-3.39-2.79,0-.58.17-1.07.51-1.47.34-.4.79-.7,1.34-.9.55-.2,1.14-.3,1.77-.3.76,0,1.45.12,2.06.37.61.25,1.09.59,1.44,1.02.15.19.23.38.23.56,0,.2-.1.38-.3.55-.13.09-.29.14-.49.14-.31,0-.58-.11-.83-.34-.29-.27-.61-.46-.94-.57-.33-.11-.73-.17-1.2-.17-.54,0-.99.09-1.33.27-.35.18-.52.44-.52.77,0,.24.06.43.18.59.12.16.34.31.67.44.33.14.81.27,1.43.4,1.28.26,2.19.62,2.73,1.08.54.46.8,1.05.8,1.78,0,.54-.15,1.03-.44,1.47-.29.44-.73.79-1.3,1.04s-1.26.38-2.06.38h0ZM455.7,125.03c0,.22-.08.41-.23.56-.15.15-.35.22-.58.22h-6.71c.13.82.5,1.49,1.12,1.99.62.51,1.37.76,2.27.76.35,0,.72-.06,1.1-.19.38-.13.7-.29.94-.48.16-.13.36-.19.58-.19s.4.06.53.18c.21.18.32.38.32.6,0,.21-.09.39-.28.53-.4.32-.9.58-1.49.78-.59.2-1.16.3-1.7.3-.97,0-1.83-.21-2.59-.63-.77-.42-1.36-1-1.79-1.74-.43-.74-.64-1.58-.64-2.52s.2-1.79.61-2.53c.41-.75.97-1.33,1.69-1.75.72-.42,1.54-.63,2.46-.63s1.69.2,2.35.6c.66.4,1.17.96,1.52,1.68.35.72.53,1.54.53,2.47h0ZM451.31,121.79c-.86,0-1.56.24-2.09.71-.54.47-.87,1.1-1.02,1.89h5.88c-.11-.79-.4-1.42-.88-1.89-.48-.47-1.11-.71-1.89-.71h0ZM462.73,120.24c.62,0,1.11.09,1.47.28.35.19.53.42.53.71,0,.08,0,.14-.02.18-.11.38-.34.56-.71.56-.06,0-.15-.01-.26-.04-.47-.08-.85-.12-1.15-.12-.85,0-1.53.19-2.05.58-.52.39-.78.91-.78,1.57v5.15c0,.28-.07.5-.22.65-.15.15-.37.23-.66.23s-.5-.07-.65-.22c-.15-.15-.23-.37-.23-.66v-7.89c0-.28.08-.5.23-.65.15-.15.37-.23.65-.23.59,0,.88.29.88.88v.34c.35-.41.79-.74,1.31-.97.52-.24,1.07-.35,1.66-.35h0ZM474.54,125.03c0,.22-.08.41-.23.56-.15.15-.35.22-.58.22h-6.71c.13.82.5,1.49,1.12,1.99.62.51,1.37.76,2.27.76.35,0,.72-.06,1.1-.19.38-.13.7-.29.94-.48.16-.13.36-.19.58-.19s.4.06.53.18c.21.18.32.38.32.6,0,.21-.09.39-.28.53-.4.32-.9.58-1.49.78-.59.2-1.16.3-1.7.3-.97,0-1.83-.21-2.6-.63-.76-.42-1.36-1-1.79-1.74-.43-.74-.64-1.58-.64-2.52s.2-1.79.61-2.53c.41-.75.97-1.33,1.69-1.75.72-.42,1.54-.63,2.46-.63s1.69.2,2.35.6c.66.4,1.17.96,1.52,1.68.35.72.53,1.54.53,2.47h0ZM470.14,121.79c-.86,0-1.56.24-2.09.71-.54.47-.87,1.1-1.02,1.89h5.88c-.11-.79-.4-1.42-.88-1.89-.48-.47-1.11-.71-1.89-.71Z"/>
  </g>
  <circle class="cls-3" cx="257.03" cy="125.17" r="1.99"/>
  <circle class="cls-3" cx="375.16" cy="125.17" r="1.99"/>
</svg>