<?xml version="1.0" encoding="UTF-8" standalone="yes"?>
<svg xml:space="preserve" baseProfile="tiny-ps" version="1.2" viewBox="0 0 56.7 56.7" xmlns="http://www.w3.org/2000/svg">
  <title>bimi-svg-tiny-12-ps</title>
  <path fill="#FFF" d="M0 0h56.2v56.7H0z"/>
  <g fill="#00957F">
    <path d="M26.6 26.2c0 2.5 2 4.5 4.5 4.5s4.5-2 4.5-4.5-2-4.5-4.5-4.5-4.5 2-4.5 4.5zM44.9 45c-3.5-.1-5.1-3.4-5.6-4l-1.4-2-.5-.7c-.9-1.2-1.8-2.3-2.6-3.5l-.3-.6c-.1-.2 0-.4.1-.6.1-.1.1-.3.1-.5s-.4-.6-.5-.9c-.9.5-2 .7-3.1.7-3.8 0-6.9-3.1-6.9-6.9s3.1-6.9 6.9-6.9S38 22.2 38 26c0 2-.8 3.8-2.2 5 .2.3.6.7.8.7.1 0 .3.1.4 0 .2-.1.4-.1.6 0 .2.2.4.3.5.5.5.6 1 1.3 1.4 1.9 2.7-2.1 4.3-5.5 4.3-9.1 0-5.9-4.3-9.6-11.2-9.8H21.8c-.4 0-.7 0-1.1.1-.9.1-1.6.9-1.7 1.8v.1c0 .8.5 1.4 1.2 1.8.9.4.9 1.4.9 2.9l.1 24.3c3.9.8 7.1.3 7.1-4.6l-.3-4.7c2.3.1 3.2 1.2 5.8 6.8 1.9 4.2 4.7 5 6.9 5 2.7 0 4.9-2.1 4.9-3.1 0-.2-.3-.6-.7-.6zM17.6 13.9c-2 3.5-.8 5.8-.6 6.2-.4-.3-2.1-2.2-6.1-1.5 2.1-3.1.7-6 .6-6.3.3.3 2.5 2.6 6.1 1.6zM20.6 8.9c-1.3 2.2-.5 3.6-.4 3.9-.2-.2-1.3-1.4-3.8-1 1.3-1.9.4-3.7.4-3.9.2.2 1.6 1.6 3.8 1zM14.5 8c-.8 1.3-.3 2.2-.2 2.4-.1-.1-.8-.9-2.3-.6.8-1.2.3-2.3.2-2.4.1.1.9 1 2.3.6z"/>
  </g>
</svg>