<?xml version="1.0" encoding="UTF-8"?>
<svg id="Livello_2" data-name="Livello 2" xmlns="http://www.w3.org/2000/svg" viewBox="0 0 158.82 51.72">
  <defs>
    <style>
      .cls-1 {
        font-family: Intro-Book-Alt, 'Intro Book Alt';
        font-size: 8px;
      }

      .cls-1, .cls-2, .cls-3 {
        fill: #fff;
      }

      .cls-2 {
        stroke-width: 0px;
      }

      .cls-3 {
        font-family: Intro-Bold-Alt, 'Intro Bold Alt';
        font-size: 28px;
        font-weight: 700;
      }
    </style>
  </defs>
  <g id="Livello_1-2" data-name="Livello 1">
    <path class="cls-2" d="M19.49,22.48c0,3.21,2.72,5.82,6.06,5.82s6.06-2.61,6.06-5.82-2.72-5.82-6.06-5.82-6.06,2.61-6.06,5.82ZM44.09,46.62c-4.67-.09-6.89-4.34-7.55-5.14l-1.84-2.52-.62-.87c-1.17-1.48-2.34-2.97-3.51-4.45-.17-.22-.31-.48-.41-.74-.1-.26-.06-.52.14-.77.11-.15.15-.4.1-.58-.05-.22-.48-.81-.71-1.17-1.25.61-2.65.96-4.14.96-5.08,0-9.22-3.97-9.22-8.85s4.14-8.85,9.22-8.85,9.22,3.97,9.22,8.85c0,2.55-1.13,4.84-2.93,6.45.32.38.78.87,1.06.95.15.05.35.06.49,0,.28-.13.53-.11.75.06.26.19.52.4.72.65.65.81,1.29,1.63,1.93,2.44,3.55-2.7,5.83-7.03,5.83-11.7,0-7.56-5.77-12.4-15.07-12.64h-14.32s-.03,0-.05,0h-.16,0c-.47.01-.95.04-1.44.09-1.26.13-2.22,1.14-2.22,2.36v.11c0,1,.66,1.85,1.61,2.25,1.19.5,1.21,1.85,1.2,3.71l.08,31.31c5.22,1.06,9.49.45,9.44-5.92l-.43-6.08s.03,0,.04,0c3.11.1,4.3,1.52,7.8,8.8,2.57,5.35,6.33,6.39,9.25,6.39,3.64,0,6.56-2.73,6.59-4.03.01-.52-.3-1.06-.84-1.07Z"/>
    <g>
      <path class="cls-2" d="M7.24,7.01c-2.2,3.82-.83,6.24-.65,6.72h0s0,0,0,0c-.39-.33-2.22-2.43-6.59-1.68,2.28-3.35.77-6.48.62-6.76,0,0,0,0,0-.01,0,0,0,0,.01.01,0,0,0,0,0,0,.23.24,2.68,2.71,6.62,1.72Z"/>
      <path class="cls-2" d="M10.47,1.61c-1.37,2.38-.52,3.88-.4,4.18h0s0,0,0,0c-.24-.21-1.38-1.51-4.1-1.04,1.42-2.08.48-4.03.38-4.21,0,0,0,0,0,0,0,0,0,0,0,0,0,0,0,0,0,0,.14.15,1.67,1.68,4.12,1.07Z"/>
      <path class="cls-2" d="M3.84.65c-.83,1.45-.31,2.36-.25,2.54h0s0,0,0,0c-.15-.12-.84-.92-2.49-.63C1.97,1.3,1.39.11,1.34,0c0,0,0,0,0,0,0,0,0,0,0,0,0,0,0,0,0,0,.09.09,1.01,1.02,2.5.65Z"/>
    </g>
    <text class="cls-3" transform="translate(55.49 33.25)"><tspan x="0" y="0">rivelio</tspan></text>
    <text class="cls-1" transform="translate(56.3 45.42)"><tspan x="0" y="0">cogli opportunità nascoste</tspan></text>
  </g>
</svg>