<svg xmlns="http://www.w3.org/2000/svg" xmlns:xlink="http://www.w3.org/1999/xlink" width="283" zoomAndPan="magnify" viewBox="0 0 212.25 98.999997" height="132" preserveAspectRatio="xMidYMid meet" version="1.0"><defs><g/><clipPath id="20b59c8a7b"><path d="M 5.191406 27.195312 L 42.277344 27.195312 L 42.277344 72 L 5.191406 72 Z M 5.191406 27.195312 " clip-rule="nonzero"/></clipPath><clipPath id="1d46ad22c6"><path d="M 41.386719 66.699219 C 36.523438 66.605469 34.210938 62.179688 33.523438 61.347656 L 31.605469 58.722656 L 30.960938 57.816406 C 29.742188 56.273438 28.523438 54.722656 27.304688 53.179688 L 26.984375 52.683594 L 26.816406 51.871094 L 27.171875 51.191406 C 27.066406 50.777344 26.628906 50.160156 26.390625 49.785156 C 25.085938 50.421875 23.628906 50.785156 22.078125 50.785156 C 16.789062 50.785156 12.476562 46.652344 12.476562 41.570312 C 12.476562 36.488281 16.789062 32.351562 22.078125 32.351562 C 27.367188 32.351562 31.679688 36.488281 31.679688 41.570312 C 31.679688 44.214844 30.503906 46.609375 28.628906 48.285156 L 29.441406 49.191406 L 30.105469 49.347656 L 30.804688 49.171875 L 31.574219 49.765625 C 32.460938 50.871094 33.128906 51.722656 33.792969 52.566406 C 37.492188 49.753906 39.863281 45.246094 39.863281 40.394531 C 39.855469 32.5 33.847656 27.457031 24.160156 27.207031 L 9.246094 27.207031 C 9.226562 27.207031 9.214844 27.207031 9.195312 27.207031 L 9.027344 27.207031 L 9.027344 27.21875 L 8.039062 27.261719 C 6.21875 27.4375 5.21875 28.488281 5.207031 29.761719 L 5.207031 29.875 C 5.195312 30.917969 5.894531 31.800781 6.882812 32.21875 C 8.121094 32.738281 8.144531 34.144531 8.132812 36.082031 L 8.214844 68.6875 C 13.652344 69.792969 18.101562 69.167969 18.046875 62.523438 L 17.601562 56.191406 C 17.621094 56.191406 17.632812 56.179688 17.640625 56.179688 C 20.878906 56.285156 22.121094 57.765625 25.765625 65.34375 C 28.441406 70.917969 32.355469 72 35.398438 72 C 39.1875 72 42.230469 69.15625 42.261719 67.804688 L 41.949219 66.699219 M 15.757812 41.558594 C 15.757812 44.902344 18.589844 47.621094 22.066406 47.621094 C 25.546875 47.621094 28.378906 44.902344 28.378906 41.558594 C 28.378906 38.214844 25.546875 35.5 22.066406 35.5 C 18.589844 35.5 15.757812 38.214844 15.757812 41.558594 " clip-rule="nonzero"/></clipPath></defs><g fill="#177287" fill-opacity="1"><g transform="translate(49.655152, 55.596811)"><g><path d="M 5.828125 -11.25 C 6.078125 -11.96875 6.539062 -12.515625 7.21875 -12.890625 C 7.894531 -13.273438 8.648438 -13.46875 9.484375 -13.46875 C 10.566406 -13.507812 11.5 -13.234375 12.28125 -12.640625 L 11.4375 -9.46875 C 10.675781 -9.96875 9.863281 -10.203125 9 -10.171875 C 8.132812 -10.171875 7.40625 -9.894531 6.8125 -9.34375 C 6.226562 -8.789062 5.9375 -8.035156 5.9375 -7.078125 L 5.9375 0 L 2.21875 0 L 2.21875 -9.21875 C 2.21875 -9.851562 2.132812 -10.300781 1.96875 -10.5625 C 1.8125 -10.820312 1.460938 -10.90625 0.921875 -10.8125 L 0.921875 -13.140625 C 1.609375 -13.253906 2.300781 -13.328125 3 -13.359375 C 3.695312 -13.398438 4.320312 -13.238281 4.875 -12.875 C 5.4375 -12.507812 5.753906 -11.96875 5.828125 -11.25 Z M 5.828125 -11.25 "/></g></g></g><g fill="#177287" fill-opacity="1"><g transform="translate(62.176507, 55.596811)"><g><path d="M 2.15625 -15.203125 C 1.695312 -15.609375 1.46875 -16.148438 1.46875 -16.828125 C 1.46875 -17.515625 1.695312 -18.050781 2.15625 -18.4375 C 2.613281 -18.832031 3.125 -19.03125 3.6875 -19.03125 C 4.25 -19.03125 4.757812 -18.832031 5.21875 -18.4375 C 5.675781 -18.050781 5.90625 -17.515625 5.90625 -16.828125 C 5.90625 -16.148438 5.675781 -15.609375 5.21875 -15.203125 C 4.757812 -14.804688 4.25 -14.609375 3.6875 -14.609375 C 3.125 -14.609375 2.613281 -14.804688 2.15625 -15.203125 Z M 5.578125 -12.90625 L 5.578125 0 L 1.796875 0 L 1.796875 -12.90625 Z M 5.578125 -12.90625 "/></g></g></g><g fill="#177287" fill-opacity="1"><g transform="translate(69.548391, 55.596811)"><g><path d="M 8.375 -2.8125 C 9.332031 -2.8125 10.023438 -3.222656 10.453125 -4.046875 C 10.878906 -4.867188 11.054688 -5.875 10.984375 -7.0625 C 10.910156 -8.25 10.765625 -9.367188 10.546875 -10.421875 C 10.328125 -11.484375 10.070312 -12.363281 9.78125 -13.0625 L 13.53125 -13.0625 C 13.925781 -11.882812 14.234375 -10.734375 14.453125 -9.609375 C 14.671875 -8.484375 14.757812 -7.3125 14.71875 -6.09375 C 14.6875 -4.882812 14.472656 -3.832031 14.078125 -2.9375 C 13.691406 -2.039062 13.015625 -1.300781 12.046875 -0.71875 C 11.078125 -0.144531 9.851562 0.140625 8.375 0.140625 C 6.4375 0.140625 4.878906 -0.351562 3.703125 -1.34375 C 2.535156 -2.34375 1.953125 -3.773438 1.953125 -5.640625 L 1.953125 -9 C 1.953125 -9.394531 1.941406 -9.6875 1.921875 -9.875 C 1.898438 -10.070312 1.847656 -10.273438 1.765625 -10.484375 C 1.691406 -10.703125 1.554688 -10.847656 1.359375 -10.921875 C 1.160156 -10.992188 0.890625 -11.019531 0.546875 -11 L 0.546875 -13.140625 C 1.429688 -13.304688 2.257812 -13.378906 3.03125 -13.359375 C 3.8125 -13.347656 4.460938 -13.070312 4.984375 -12.53125 C 5.515625 -12 5.78125 -11.21875 5.78125 -10.1875 L 5.78125 -5.640625 C 5.757812 -4.804688 5.984375 -4.125 6.453125 -3.59375 C 6.921875 -3.070312 7.5625 -2.8125 8.375 -2.8125 Z M 8.375 -2.8125 "/></g></g></g><g fill="#177287" fill-opacity="1"><g transform="translate(85.484657, 55.596811)"><g><path d="M 13.171875 -3.734375 L 13.3125 -0.8125 C 12.207031 -0.175781 10.648438 0.179688 8.640625 0.265625 C 6.273438 0.335938 4.410156 -0.203125 3.046875 -1.359375 C 1.679688 -2.515625 1 -4.257812 1 -6.59375 C 1 -8.707031 1.644531 -10.363281 2.9375 -11.5625 C 4.226562 -12.757812 5.796875 -13.378906 7.640625 -13.421875 C 8.710938 -13.453125 9.691406 -13.332031 10.578125 -13.0625 C 11.460938 -12.789062 12.210938 -12.296875 12.828125 -11.578125 C 13.441406 -10.867188 13.738281 -9.984375 13.71875 -8.921875 C 13.644531 -7.648438 13.132812 -6.671875 12.1875 -5.984375 C 11.238281 -5.304688 10.113281 -4.945312 8.8125 -4.90625 C 7.164062 -4.8125 5.765625 -5.09375 4.609375 -5.75 C 4.640625 -4.675781 5.046875 -3.894531 5.828125 -3.40625 C 6.609375 -2.925781 7.628906 -2.703125 8.890625 -2.734375 C 10.429688 -2.773438 11.859375 -3.109375 13.171875 -3.734375 Z M 4.828125 -8.15625 C 5.117188 -7.957031 5.585938 -7.785156 6.234375 -7.640625 C 6.890625 -7.492188 7.492188 -7.441406 8.046875 -7.484375 C 8.628906 -7.503906 9.101562 -7.628906 9.46875 -7.859375 C 9.84375 -8.097656 10.039062 -8.453125 10.0625 -8.921875 C 10.0625 -9.460938 9.820312 -9.859375 9.34375 -10.109375 C 8.863281 -10.359375 8.316406 -10.484375 7.703125 -10.484375 C 6.148438 -10.398438 5.191406 -9.625 4.828125 -8.15625 Z M 4.828125 -8.15625 "/></g></g></g><g fill="#177287" fill-opacity="1"><g transform="translate(100.228416, 55.596811)"><g><path d="M 1.65625 -19.84375 L 5.390625 -19.84375 L 5.390625 -4.96875 C 5.390625 -3.988281 5.585938 -3.347656 5.984375 -3.046875 C 6.390625 -2.753906 7.0625 -2.6875 8 -2.84375 L 8.140625 0 C 5.984375 0.375 4.363281 0.203125 3.28125 -0.515625 C 2.195312 -1.234375 1.65625 -2.71875 1.65625 -4.96875 Z M 1.65625 -19.84375 "/></g></g></g><g fill="#177287" fill-opacity="1"><g transform="translate(108.603088, 55.596811)"><g><path d="M 2.15625 -15.203125 C 1.695312 -15.609375 1.46875 -16.148438 1.46875 -16.828125 C 1.46875 -17.515625 1.695312 -18.050781 2.15625 -18.4375 C 2.613281 -18.832031 3.125 -19.03125 3.6875 -19.03125 C 4.25 -19.03125 4.757812 -18.832031 5.21875 -18.4375 C 5.675781 -18.050781 5.90625 -17.515625 5.90625 -16.828125 C 5.90625 -16.148438 5.675781 -15.609375 5.21875 -15.203125 C 4.757812 -14.804688 4.25 -14.609375 3.6875 -14.609375 C 3.125 -14.609375 2.613281 -14.804688 2.15625 -15.203125 Z M 5.578125 -12.90625 L 5.578125 0 L 1.796875 0 L 1.796875 -12.90625 Z M 5.578125 -12.90625 "/></g></g></g><g fill="#177287" fill-opacity="1"><g transform="translate(115.974972, 55.596811)"><g><path d="M 14.828125 -6.59375 C 14.828125 -4.414062 14.140625 -2.722656 12.765625 -1.515625 C 11.390625 -0.304688 9.757812 0.296875 7.875 0.296875 C 6 0.296875 4.378906 -0.304688 3.015625 -1.515625 C 1.648438 -2.722656 0.96875 -4.414062 0.96875 -6.59375 C 0.96875 -8.738281 1.648438 -10.414062 3.015625 -11.625 C 4.378906 -12.84375 6 -13.453125 7.875 -13.453125 C 9.757812 -13.453125 11.390625 -12.84375 12.765625 -11.625 C 14.140625 -10.414062 14.828125 -8.738281 14.828125 -6.59375 Z M 5.671875 -9.1875 C 5.054688 -8.570312 4.75 -7.703125 4.75 -6.578125 C 4.75 -5.460938 5.054688 -4.59375 5.671875 -3.96875 C 6.296875 -3.34375 7.039062 -3.03125 7.90625 -3.03125 C 8.78125 -3.03125 9.523438 -3.34375 10.140625 -3.96875 C 10.753906 -4.59375 11.0625 -5.46875 11.0625 -6.59375 C 11.0625 -7.6875 10.75 -8.546875 10.125 -9.171875 C 9.5 -9.796875 8.765625 -10.109375 7.921875 -10.109375 C 7.046875 -10.109375 6.296875 -9.800781 5.671875 -9.1875 Z M 5.671875 -9.1875 "/></g></g></g><g fill="#177287" fill-opacity="1"><g transform="translate(131.775729, 55.596811)"><g/></g></g><g fill="#009c82" fill-opacity="1"><g transform="translate(138.423906, 55.596811)"><g><path d="M 6.75 -17.109375 L 6.75 -13.046875 L 11 -13.046875 L 11 -10.1875 L 6.75 -10.1875 L 6.75 -5.125 C 6.75 -4.269531 6.96875 -3.628906 7.40625 -3.203125 C 7.851562 -2.785156 8.398438 -2.597656 9.046875 -2.640625 C 9.703125 -2.691406 10.410156 -2.832031 11.171875 -3.0625 L 11.515625 -0.1875 C 10.347656 0.132812 9.269531 0.304688 8.28125 0.328125 C 7.289062 0.347656 6.394531 0.203125 5.59375 -0.109375 C 4.789062 -0.429688 4.160156 -1.007812 3.703125 -1.84375 C 3.253906 -2.675781 3.03125 -3.742188 3.03125 -5.046875 L 3.03125 -10.1875 L 0.5625 -10.4375 L 0.5625 -13.046875 L 3.3125 -13.046875 L 3.71875 -17.109375 Z M 6.75 -17.109375 "/></g></g></g><g fill="#009c82" fill-opacity="1"><g transform="translate(150.620034, 55.596811)"><g><path d="M 13.171875 -3.734375 L 13.3125 -0.8125 C 12.207031 -0.175781 10.648438 0.179688 8.640625 0.265625 C 6.273438 0.335938 4.410156 -0.203125 3.046875 -1.359375 C 1.679688 -2.515625 1 -4.257812 1 -6.59375 C 1 -8.707031 1.644531 -10.363281 2.9375 -11.5625 C 4.226562 -12.757812 5.796875 -13.378906 7.640625 -13.421875 C 8.710938 -13.453125 9.691406 -13.332031 10.578125 -13.0625 C 11.460938 -12.789062 12.210938 -12.296875 12.828125 -11.578125 C 13.441406 -10.867188 13.738281 -9.984375 13.71875 -8.921875 C 13.644531 -7.648438 13.132812 -6.671875 12.1875 -5.984375 C 11.238281 -5.304688 10.113281 -4.945312 8.8125 -4.90625 C 7.164062 -4.8125 5.765625 -5.09375 4.609375 -5.75 C 4.640625 -4.675781 5.046875 -3.894531 5.828125 -3.40625 C 6.609375 -2.925781 7.628906 -2.703125 8.890625 -2.734375 C 10.429688 -2.773438 11.859375 -3.109375 13.171875 -3.734375 Z M 4.828125 -8.15625 C 5.117188 -7.957031 5.585938 -7.785156 6.234375 -7.640625 C 6.890625 -7.492188 7.492188 -7.441406 8.046875 -7.484375 C 8.628906 -7.503906 9.101562 -7.628906 9.46875 -7.859375 C 9.84375 -8.097656 10.039062 -8.453125 10.0625 -8.921875 C 10.0625 -9.460938 9.820312 -9.859375 9.34375 -10.109375 C 8.863281 -10.359375 8.316406 -10.484375 7.703125 -10.484375 C 6.148438 -10.398438 5.191406 -9.625 4.828125 -8.15625 Z M 4.828125 -8.15625 "/></g></g></g><g fill="#009c82" fill-opacity="1"><g transform="translate(165.363793, 55.596811)"><g><path d="M 14.390625 -8.34375 L 10.796875 -8.34375 C 10.578125 -8.925781 10.222656 -9.367188 9.734375 -9.671875 C 9.242188 -9.984375 8.703125 -10.140625 8.109375 -10.140625 C 7.222656 -10.140625 6.441406 -9.820312 5.765625 -9.1875 C 5.085938 -8.550781 4.75 -7.6875 4.75 -6.59375 C 4.75 -5.445312 5.085938 -4.546875 5.765625 -3.890625 C 6.453125 -3.242188 7.242188 -2.941406 8.140625 -2.984375 C 8.734375 -3.003906 9.273438 -3.1875 9.765625 -3.53125 C 10.265625 -3.882812 10.625 -4.378906 10.84375 -5.015625 L 14.453125 -5.015625 C 14.191406 -3.367188 13.460938 -2.082031 12.265625 -1.15625 C 11.066406 -0.238281 9.679688 0.234375 8.109375 0.265625 C 6.210938 0.328125 4.546875 -0.242188 3.109375 -1.453125 C 1.679688 -2.671875 0.96875 -4.382812 0.96875 -6.59375 C 0.96875 -8.78125 1.679688 -10.484375 3.109375 -11.703125 C 4.546875 -12.921875 6.210938 -13.507812 8.109375 -13.46875 C 9.640625 -13.4375 11 -12.976562 12.1875 -12.09375 C 13.375 -11.207031 14.109375 -9.957031 14.390625 -8.34375 Z M 14.390625 -8.34375 "/></g></g></g><g fill="#009c82" fill-opacity="1"><g transform="translate(180.649605, 55.596811)"><g><path d="M 5.5625 -7.484375 L 5.5625 0.03125 L 1.765625 0.03125 L 1.765625 -19.8125 L 5.5625 -19.8125 L 5.5625 -11.296875 C 6.5 -12.734375 7.925781 -13.40625 9.84375 -13.3125 C 12.5 -13.1875 14.050781 -11.773438 14.5 -9.078125 C 14.570312 -8.515625 14.609375 -7.894531 14.609375 -7.21875 L 14.609375 -3.71875 C 14.609375 -3.113281 14.691406 -2.722656 14.859375 -2.546875 C 15.035156 -2.378906 15.441406 -2.316406 16.078125 -2.359375 L 16.078125 -0.078125 C 14.398438 0.265625 13.101562 0.1875 12.1875 -0.3125 C 11.269531 -0.820312 10.8125 -1.894531 10.8125 -3.53125 L 10.8125 -6.015625 C 10.8125 -7.085938 10.785156 -7.828125 10.734375 -8.234375 C 10.628906 -8.960938 10.394531 -9.5 10.03125 -9.84375 C 9.664062 -10.1875 9.101562 -10.359375 8.34375 -10.359375 C 7.570312 -10.359375 6.914062 -10.097656 6.375 -9.578125 C 5.832031 -9.066406 5.5625 -8.367188 5.5625 -7.484375 Z M 5.5625 -7.484375 "/></g></g></g><g fill="#177287" fill-opacity="1"><g transform="translate(49.655152, 66.763528)"><g><path d="M 0.3125 -1.046875 L 0.90625 -1.046875 C 0.914062 -0.828125 1.023438 -0.660156 1.234375 -0.546875 C 1.441406 -0.441406 1.6875 -0.390625 1.96875 -0.390625 C 2.25 -0.390625 2.488281 -0.445312 2.6875 -0.5625 C 2.894531 -0.6875 3.003906 -0.851562 3.015625 -1.0625 C 3.015625 -1.257812 2.9375 -1.398438 2.78125 -1.484375 C 2.632812 -1.566406 2.363281 -1.632812 1.96875 -1.6875 C 1.800781 -1.707031 1.65625 -1.726562 1.53125 -1.75 C 1.40625 -1.78125 1.265625 -1.816406 1.109375 -1.859375 C 0.960938 -1.910156 0.84375 -1.96875 0.75 -2.03125 C 0.65625 -2.101562 0.578125 -2.195312 0.515625 -2.3125 C 0.453125 -2.425781 0.414062 -2.554688 0.40625 -2.703125 C 0.394531 -3.066406 0.539062 -3.34375 0.84375 -3.53125 C 1.15625 -3.71875 1.523438 -3.8125 1.953125 -3.8125 C 2.378906 -3.8125 2.75 -3.71875 3.0625 -3.53125 C 3.375 -3.34375 3.523438 -3.082031 3.515625 -2.75 L 2.921875 -2.75 C 2.921875 -2.9375 2.828125 -3.078125 2.640625 -3.171875 C 2.453125 -3.273438 2.222656 -3.328125 1.953125 -3.328125 C 1.691406 -3.328125 1.460938 -3.273438 1.265625 -3.171875 C 1.066406 -3.066406 0.972656 -2.914062 0.984375 -2.71875 C 0.984375 -2.550781 1.0625 -2.429688 1.21875 -2.359375 C 1.375 -2.285156 1.644531 -2.21875 2.03125 -2.15625 C 2.207031 -2.132812 2.335938 -2.113281 2.421875 -2.09375 C 2.515625 -2.082031 2.632812 -2.0625 2.78125 -2.03125 C 2.925781 -2 3.039062 -1.957031 3.125 -1.90625 C 3.207031 -1.863281 3.289062 -1.800781 3.375 -1.71875 C 3.46875 -1.644531 3.53125 -1.550781 3.5625 -1.4375 C 3.601562 -1.332031 3.617188 -1.207031 3.609375 -1.0625 C 3.609375 -0.707031 3.453125 -0.425781 3.140625 -0.21875 C 2.828125 -0.0195312 2.4375 0.0820312 1.96875 0.09375 C 1.507812 0.09375 1.125 0.00390625 0.8125 -0.171875 C 0.507812 -0.359375 0.34375 -0.648438 0.3125 -1.046875 Z M 0.3125 -1.046875 "/></g></g></g><g fill="#177287" fill-opacity="1"><g transform="translate(53.592408, 66.763528)"><g><path d="M 4.28125 -1.875 C 4.28125 -1.5625 4.222656 -1.28125 4.109375 -1.03125 C 3.992188 -0.78125 3.84375 -0.578125 3.65625 -0.421875 C 3.476562 -0.265625 3.269531 -0.144531 3.03125 -0.0625 C 2.800781 0.0195312 2.5625 0.0625 2.3125 0.0625 C 2.0625 0.0625 1.816406 0.0195312 1.578125 -0.0625 C 1.347656 -0.144531 1.140625 -0.265625 0.953125 -0.421875 C 0.773438 -0.578125 0.628906 -0.78125 0.515625 -1.03125 C 0.398438 -1.28125 0.34375 -1.5625 0.34375 -1.875 C 0.34375 -2.1875 0.398438 -2.46875 0.515625 -2.71875 C 0.628906 -2.976562 0.773438 -3.1875 0.953125 -3.34375 C 1.140625 -3.5 1.347656 -3.617188 1.578125 -3.703125 C 1.816406 -3.785156 2.0625 -3.828125 2.3125 -3.828125 C 2.5625 -3.828125 2.800781 -3.785156 3.03125 -3.703125 C 3.269531 -3.617188 3.476562 -3.5 3.65625 -3.34375 C 3.84375 -3.1875 3.992188 -2.976562 4.109375 -2.71875 C 4.222656 -2.46875 4.28125 -2.1875 4.28125 -1.875 Z M 1.15625 -2.65625 C 1.03125 -2.4375 0.96875 -2.175781 0.96875 -1.875 C 0.96875 -1.570312 1.03125 -1.304688 1.15625 -1.078125 C 1.289062 -0.859375 1.457031 -0.695312 1.65625 -0.59375 C 1.863281 -0.5 2.082031 -0.453125 2.3125 -0.453125 C 2.550781 -0.453125 2.769531 -0.5 2.96875 -0.59375 C 3.175781 -0.695312 3.347656 -0.859375 3.484375 -1.078125 C 3.617188 -1.304688 3.6875 -1.570312 3.6875 -1.875 C 3.6875 -2.175781 3.617188 -2.4375 3.484375 -2.65625 C 3.347656 -2.882812 3.175781 -3.046875 2.96875 -3.140625 C 2.769531 -3.242188 2.550781 -3.296875 2.3125 -3.296875 C 2.082031 -3.296875 1.863281 -3.242188 1.65625 -3.140625 C 1.457031 -3.046875 1.289062 -2.882812 1.15625 -2.65625 Z M 1.15625 -2.65625 "/></g></g></g><g fill="#177287" fill-opacity="1"><g transform="translate(58.218107, 66.763528)"><g><path d="M 4.046875 -2.59375 L 3.46875 -2.59375 C 3.375 -2.8125 3.222656 -2.976562 3.015625 -3.09375 C 2.804688 -3.21875 2.578125 -3.28125 2.328125 -3.28125 C 1.960938 -3.28125 1.640625 -3.15625 1.359375 -2.90625 C 1.085938 -2.664062 0.953125 -2.320312 0.953125 -1.875 C 0.953125 -1.4375 1.085938 -1.09375 1.359375 -0.84375 C 1.640625 -0.59375 1.960938 -0.46875 2.328125 -0.46875 C 2.585938 -0.46875 2.820312 -0.535156 3.03125 -0.671875 C 3.25 -0.804688 3.40625 -1 3.5 -1.25 L 4.09375 -1.25 C 3.976562 -0.832031 3.753906 -0.507812 3.421875 -0.28125 C 3.085938 -0.0507812 2.71875 0.0625 2.3125 0.0625 C 1.78125 0.0625 1.316406 -0.109375 0.921875 -0.453125 C 0.535156 -0.796875 0.34375 -1.273438 0.34375 -1.890625 C 0.34375 -2.503906 0.539062 -2.984375 0.9375 -3.328125 C 1.34375 -3.671875 1.816406 -3.835938 2.359375 -3.828125 C 2.753906 -3.816406 3.109375 -3.703125 3.421875 -3.484375 C 3.734375 -3.273438 3.941406 -2.976562 4.046875 -2.59375 Z M 4.046875 -2.59375 "/></g></g></g><g fill="#177287" fill-opacity="1"><g transform="translate(62.596276, 66.763528)"><g><path d="M 0.53125 -4.96875 C 0.53125 -5.082031 0.566406 -5.171875 0.640625 -5.234375 C 0.722656 -5.304688 0.8125 -5.34375 0.90625 -5.34375 C 1.007812 -5.34375 1.097656 -5.304688 1.171875 -5.234375 C 1.253906 -5.171875 1.296875 -5.082031 1.296875 -4.96875 C 1.296875 -4.851562 1.257812 -4.757812 1.1875 -4.6875 C 1.113281 -4.625 1.023438 -4.585938 0.921875 -4.578125 C 0.816406 -4.578125 0.722656 -4.609375 0.640625 -4.671875 C 0.566406 -4.742188 0.53125 -4.84375 0.53125 -4.96875 Z M 1.203125 -3.703125 L 1.203125 0 L 0.609375 0 L 0.609375 -3.703125 Z M 1.203125 -3.703125 "/></g></g></g><g fill="#177287" fill-opacity="1"><g transform="translate(64.406327, 66.763528)"><g><path d="M 3.703125 -0.6875 L 3.71875 -0.203125 C 3.351562 -0.0351562 2.921875 0.0507812 2.421875 0.0625 C 1.753906 0.0703125 1.226562 -0.109375 0.84375 -0.484375 C 0.46875 -0.867188 0.304688 -1.394531 0.359375 -2.0625 C 0.398438 -2.613281 0.59375 -3.039062 0.9375 -3.34375 C 1.289062 -3.65625 1.734375 -3.816406 2.265625 -3.828125 C 2.546875 -3.828125 2.804688 -3.785156 3.046875 -3.703125 C 3.285156 -3.628906 3.484375 -3.492188 3.640625 -3.296875 C 3.804688 -3.109375 3.882812 -2.875 3.875 -2.59375 C 3.863281 -2.34375 3.773438 -2.132812 3.609375 -1.96875 C 3.453125 -1.800781 3.269531 -1.679688 3.0625 -1.609375 C 2.863281 -1.546875 2.644531 -1.507812 2.40625 -1.5 C 1.757812 -1.5 1.269531 -1.625 0.9375 -1.875 C 0.914062 -1.394531 1.039062 -1.03125 1.3125 -0.78125 C 1.582031 -0.539062 1.960938 -0.421875 2.453125 -0.421875 C 2.890625 -0.429688 3.304688 -0.519531 3.703125 -0.6875 Z M 0.984375 -2.34375 C 1.128906 -2.21875 1.320312 -2.125 1.5625 -2.0625 C 1.8125 -2 2.054688 -1.96875 2.296875 -1.96875 C 2.546875 -1.96875 2.765625 -2.019531 2.953125 -2.125 C 3.148438 -2.226562 3.257812 -2.390625 3.28125 -2.609375 C 3.300781 -2.835938 3.203125 -3.015625 2.984375 -3.140625 C 2.773438 -3.265625 2.535156 -3.328125 2.265625 -3.328125 C 1.941406 -3.328125 1.664062 -3.242188 1.4375 -3.078125 C 1.207031 -2.910156 1.054688 -2.664062 0.984375 -2.34375 Z M 0.984375 -2.34375 "/></g></g></g><g fill="#177287" fill-opacity="1"><g transform="translate(68.591112, 66.763528)"><g><path d="M 1.578125 -4.875 L 1.578125 -3.71875 L 2.953125 -3.71875 L 2.953125 -3.28125 L 1.578125 -3.28125 L 1.578125 -1.453125 C 1.578125 -0.984375 1.710938 -0.671875 1.984375 -0.515625 C 2.253906 -0.367188 2.613281 -0.382812 3.0625 -0.5625 L 3.140625 -0.0625 C 2.703125 0.0625 2.320312 0.101562 2 0.0625 C 1.6875 0.03125 1.4375 -0.109375 1.25 -0.359375 C 1.0625 -0.617188 0.96875 -0.976562 0.96875 -1.4375 L 0.96875 -3.28125 L 0.171875 -3.3125 L 0.171875 -3.71875 L 1.015625 -3.71875 L 1.078125 -4.875 Z M 1.578125 -4.875 "/></g></g></g><g fill="#177287" fill-opacity="1"><g transform="translate(71.847665, 66.763528)"><g><path d="M 3.9375 -3.46875 L 3.9375 -1.015625 C 3.9375 -0.898438 3.9375 -0.816406 3.9375 -0.765625 C 3.945312 -0.710938 3.960938 -0.65625 3.984375 -0.59375 C 4.015625 -0.53125 4.0625 -0.488281 4.125 -0.46875 C 4.1875 -0.457031 4.273438 -0.457031 4.390625 -0.46875 L 4.390625 -0.015625 C 3.753906 0.0859375 3.4375 -0.125 3.4375 -0.65625 L 3.4375 -0.78125 C 3.320312 -0.507812 3.140625 -0.300781 2.890625 -0.15625 C 2.640625 -0.0195312 2.359375 0.046875 2.046875 0.046875 C 1.503906 0.046875 1.085938 -0.140625 0.796875 -0.515625 C 0.503906 -0.890625 0.359375 -1.351562 0.359375 -1.90625 C 0.367188 -2.507812 0.5625 -2.976562 0.9375 -3.3125 C 1.320312 -3.644531 1.820312 -3.8125 2.4375 -3.8125 C 2.9375 -3.8125 3.4375 -3.695312 3.9375 -3.46875 Z M 3.34375 -1.90625 L 3.34375 -3.09375 C 3.039062 -3.238281 2.726562 -3.3125 2.40625 -3.3125 C 1.976562 -3.3125 1.632812 -3.1875 1.375 -2.9375 C 1.113281 -2.695312 0.976562 -2.351562 0.96875 -1.90625 C 0.96875 -1.5 1.070312 -1.160156 1.28125 -0.890625 C 1.5 -0.628906 1.796875 -0.5 2.171875 -0.5 C 2.546875 -0.5 2.832031 -0.628906 3.03125 -0.890625 C 3.238281 -1.148438 3.34375 -1.488281 3.34375 -1.90625 Z M 2.71875 -4.546875 L 2.25 -4.546875 L 1.671875 -5.28125 L 1.671875 -5.328125 L 2.171875 -5.53125 L 2.71875 -4.59375 Z M 2.71875 -4.546875 "/></g></g></g><g fill="#177287" fill-opacity="1"><g transform="translate(76.481097, 66.763528)"><g/></g></g><g fill="#177287" fill-opacity="1"><g transform="translate(78.484533, 66.763528)"><g><path d="M 3.9375 -3.46875 L 3.9375 -1.015625 C 3.9375 -0.898438 3.9375 -0.816406 3.9375 -0.765625 C 3.945312 -0.710938 3.960938 -0.65625 3.984375 -0.59375 C 4.015625 -0.53125 4.0625 -0.488281 4.125 -0.46875 C 4.1875 -0.457031 4.273438 -0.457031 4.390625 -0.46875 L 4.390625 -0.015625 C 3.753906 0.0859375 3.4375 -0.125 3.4375 -0.65625 L 3.4375 -0.78125 C 3.320312 -0.507812 3.140625 -0.300781 2.890625 -0.15625 C 2.640625 -0.0195312 2.359375 0.046875 2.046875 0.046875 C 1.503906 0.046875 1.085938 -0.140625 0.796875 -0.515625 C 0.503906 -0.890625 0.359375 -1.351562 0.359375 -1.90625 C 0.367188 -2.507812 0.5625 -2.976562 0.9375 -3.3125 C 1.320312 -3.644531 1.820312 -3.8125 2.4375 -3.8125 C 2.9375 -3.8125 3.4375 -3.695312 3.9375 -3.46875 Z M 3.34375 -1.90625 L 3.34375 -3.09375 C 3.039062 -3.238281 2.726562 -3.3125 2.40625 -3.3125 C 1.976562 -3.3125 1.632812 -3.1875 1.375 -2.9375 C 1.113281 -2.695312 0.976562 -2.351562 0.96875 -1.90625 C 0.96875 -1.5 1.070312 -1.160156 1.28125 -0.890625 C 1.5 -0.628906 1.796875 -0.5 2.171875 -0.5 C 2.546875 -0.5 2.832031 -0.628906 3.03125 -0.890625 C 3.238281 -1.148438 3.34375 -1.488281 3.34375 -1.90625 Z M 3.34375 -1.90625 "/></g></g></g><g fill="#177287" fill-opacity="1"><g transform="translate(83.117964, 66.763528)"><g/></g></g><g fill="#177287" fill-opacity="1"><g transform="translate(85.1214, 66.763528)"><g><path d="M 1.25 -3.234375 C 1.445312 -3.648438 1.828125 -3.859375 2.390625 -3.859375 C 2.722656 -3.859375 3.015625 -3.765625 3.265625 -3.578125 L 3.109375 -3.0625 C 2.859375 -3.226562 2.597656 -3.3125 2.328125 -3.3125 C 2.046875 -3.3125 1.800781 -3.21875 1.59375 -3.03125 C 1.394531 -2.84375 1.296875 -2.609375 1.296875 -2.328125 L 1.296875 0 L 0.703125 0 L 0.703125 -2.859375 C 0.703125 -2.960938 0.695312 -3.039062 0.6875 -3.09375 C 0.6875 -3.144531 0.671875 -3.195312 0.640625 -3.25 C 0.609375 -3.300781 0.5625 -3.335938 0.5 -3.359375 C 0.4375 -3.378906 0.351562 -3.382812 0.25 -3.375 L 0.234375 -3.78125 C 0.554688 -3.832031 0.800781 -3.820312 0.96875 -3.75 C 1.144531 -3.675781 1.238281 -3.503906 1.25 -3.234375 Z M 1.25 -3.234375 "/></g></g></g><g fill="#177287" fill-opacity="1"><g transform="translate(88.463043, 66.763528)"><g><path d="M 3.703125 -0.6875 L 3.71875 -0.203125 C 3.351562 -0.0351562 2.921875 0.0507812 2.421875 0.0625 C 1.753906 0.0703125 1.226562 -0.109375 0.84375 -0.484375 C 0.46875 -0.867188 0.304688 -1.394531 0.359375 -2.0625 C 0.398438 -2.613281 0.59375 -3.039062 0.9375 -3.34375 C 1.289062 -3.65625 1.734375 -3.816406 2.265625 -3.828125 C 2.546875 -3.828125 2.804688 -3.785156 3.046875 -3.703125 C 3.285156 -3.628906 3.484375 -3.492188 3.640625 -3.296875 C 3.804688 -3.109375 3.882812 -2.875 3.875 -2.59375 C 3.863281 -2.34375 3.773438 -2.132812 3.609375 -1.96875 C 3.453125 -1.800781 3.269531 -1.679688 3.0625 -1.609375 C 2.863281 -1.546875 2.644531 -1.507812 2.40625 -1.5 C 1.757812 -1.5 1.269531 -1.625 0.9375 -1.875 C 0.914062 -1.394531 1.039062 -1.03125 1.3125 -0.78125 C 1.582031 -0.539062 1.960938 -0.421875 2.453125 -0.421875 C 2.890625 -0.429688 3.304688 -0.519531 3.703125 -0.6875 Z M 0.984375 -2.34375 C 1.128906 -2.21875 1.320312 -2.125 1.5625 -2.0625 C 1.8125 -2 2.054688 -1.96875 2.296875 -1.96875 C 2.546875 -1.96875 2.765625 -2.019531 2.953125 -2.125 C 3.148438 -2.226562 3.257812 -2.390625 3.28125 -2.609375 C 3.300781 -2.835938 3.203125 -3.015625 2.984375 -3.140625 C 2.773438 -3.265625 2.535156 -3.328125 2.265625 -3.328125 C 1.941406 -3.328125 1.664062 -3.242188 1.4375 -3.078125 C 1.207031 -2.910156 1.054688 -2.664062 0.984375 -2.34375 Z M 0.984375 -2.34375 "/></g></g></g><g fill="#177287" fill-opacity="1"><g transform="translate(92.647828, 66.763528)"><g><path d="M 0.3125 -1.046875 L 0.90625 -1.046875 C 0.914062 -0.828125 1.023438 -0.660156 1.234375 -0.546875 C 1.441406 -0.441406 1.6875 -0.390625 1.96875 -0.390625 C 2.25 -0.390625 2.488281 -0.445312 2.6875 -0.5625 C 2.894531 -0.6875 3.003906 -0.851562 3.015625 -1.0625 C 3.015625 -1.257812 2.9375 -1.398438 2.78125 -1.484375 C 2.632812 -1.566406 2.363281 -1.632812 1.96875 -1.6875 C 1.800781 -1.707031 1.65625 -1.726562 1.53125 -1.75 C 1.40625 -1.78125 1.265625 -1.816406 1.109375 -1.859375 C 0.960938 -1.910156 0.84375 -1.96875 0.75 -2.03125 C 0.65625 -2.101562 0.578125 -2.195312 0.515625 -2.3125 C 0.453125 -2.425781 0.414062 -2.554688 0.40625 -2.703125 C 0.394531 -3.066406 0.539062 -3.34375 0.84375 -3.53125 C 1.15625 -3.71875 1.523438 -3.8125 1.953125 -3.8125 C 2.378906 -3.8125 2.75 -3.71875 3.0625 -3.53125 C 3.375 -3.34375 3.523438 -3.082031 3.515625 -2.75 L 2.921875 -2.75 C 2.921875 -2.9375 2.828125 -3.078125 2.640625 -3.171875 C 2.453125 -3.273438 2.222656 -3.328125 1.953125 -3.328125 C 1.691406 -3.328125 1.460938 -3.273438 1.265625 -3.171875 C 1.066406 -3.066406 0.972656 -2.914062 0.984375 -2.71875 C 0.984375 -2.550781 1.0625 -2.429688 1.21875 -2.359375 C 1.375 -2.285156 1.644531 -2.21875 2.03125 -2.15625 C 2.207031 -2.132812 2.335938 -2.113281 2.421875 -2.09375 C 2.515625 -2.082031 2.632812 -2.0625 2.78125 -2.03125 C 2.925781 -2 3.039062 -1.957031 3.125 -1.90625 C 3.207031 -1.863281 3.289062 -1.800781 3.375 -1.71875 C 3.46875 -1.644531 3.53125 -1.550781 3.5625 -1.4375 C 3.601562 -1.332031 3.617188 -1.207031 3.609375 -1.0625 C 3.609375 -0.707031 3.453125 -0.425781 3.140625 -0.21875 C 2.828125 -0.0195312 2.4375 0.0820312 1.96875 0.09375 C 1.507812 0.09375 1.125 0.00390625 0.8125 -0.171875 C 0.507812 -0.359375 0.34375 -0.648438 0.3125 -1.046875 Z M 0.3125 -1.046875 "/></g></g></g><g fill="#177287" fill-opacity="1"><g transform="translate(96.585084, 66.763528)"><g><path d="M 3.6875 -1.890625 C 3.6875 -2.296875 3.578125 -2.628906 3.359375 -2.890625 C 3.148438 -3.160156 2.851562 -3.296875 2.46875 -3.296875 C 2.101562 -3.296875 1.816406 -3.164062 1.609375 -2.90625 C 1.398438 -2.65625 1.296875 -2.328125 1.296875 -1.921875 C 1.296875 -1.503906 1.394531 -1.148438 1.59375 -0.859375 C 1.800781 -0.578125 2.09375 -0.4375 2.46875 -0.4375 C 2.863281 -0.4375 3.164062 -0.570312 3.375 -0.84375 C 3.582031 -1.113281 3.6875 -1.460938 3.6875 -1.890625 Z M 1.265625 1.90625 L 0.703125 1.90625 L 0.703125 -2.84375 C 0.703125 -2.851562 0.703125 -2.867188 0.703125 -2.890625 C 0.703125 -2.972656 0.695312 -3.035156 0.6875 -3.078125 C 0.6875 -3.117188 0.671875 -3.164062 0.640625 -3.21875 C 0.617188 -3.269531 0.578125 -3.300781 0.515625 -3.3125 C 0.453125 -3.332031 0.367188 -3.34375 0.265625 -3.34375 L 0.25 -3.78125 C 0.882812 -3.894531 1.203125 -3.679688 1.203125 -3.140625 L 1.203125 -3.03125 C 1.328125 -3.300781 1.507812 -3.503906 1.75 -3.640625 C 1.988281 -3.785156 2.269531 -3.859375 2.59375 -3.859375 C 3.132812 -3.859375 3.550781 -3.664062 3.84375 -3.28125 C 4.132812 -2.90625 4.28125 -2.441406 4.28125 -1.890625 C 4.28125 -1.328125 4.132812 -0.859375 3.84375 -0.484375 C 3.5625 -0.109375 3.148438 0.078125 2.609375 0.078125 C 1.972656 0.078125 1.523438 -0.171875 1.265625 -0.671875 Z M 1.265625 1.90625 "/></g></g></g><g fill="#177287" fill-opacity="1"><g transform="translate(101.218515, 66.763528)"><g><path d="M 4.28125 -1.875 C 4.28125 -1.5625 4.222656 -1.28125 4.109375 -1.03125 C 3.992188 -0.78125 3.84375 -0.578125 3.65625 -0.421875 C 3.476562 -0.265625 3.269531 -0.144531 3.03125 -0.0625 C 2.800781 0.0195312 2.5625 0.0625 2.3125 0.0625 C 2.0625 0.0625 1.816406 0.0195312 1.578125 -0.0625 C 1.347656 -0.144531 1.140625 -0.265625 0.953125 -0.421875 C 0.773438 -0.578125 0.628906 -0.78125 0.515625 -1.03125 C 0.398438 -1.28125 0.34375 -1.5625 0.34375 -1.875 C 0.34375 -2.1875 0.398438 -2.46875 0.515625 -2.71875 C 0.628906 -2.976562 0.773438 -3.1875 0.953125 -3.34375 C 1.140625 -3.5 1.347656 -3.617188 1.578125 -3.703125 C 1.816406 -3.785156 2.0625 -3.828125 2.3125 -3.828125 C 2.5625 -3.828125 2.800781 -3.785156 3.03125 -3.703125 C 3.269531 -3.617188 3.476562 -3.5 3.65625 -3.34375 C 3.84375 -3.1875 3.992188 -2.976562 4.109375 -2.71875 C 4.222656 -2.46875 4.28125 -2.1875 4.28125 -1.875 Z M 1.15625 -2.65625 C 1.03125 -2.4375 0.96875 -2.175781 0.96875 -1.875 C 0.96875 -1.570312 1.03125 -1.304688 1.15625 -1.078125 C 1.289062 -0.859375 1.457031 -0.695312 1.65625 -0.59375 C 1.863281 -0.5 2.082031 -0.453125 2.3125 -0.453125 C 2.550781 -0.453125 2.769531 -0.5 2.96875 -0.59375 C 3.175781 -0.695312 3.347656 -0.859375 3.484375 -1.078125 C 3.617188 -1.304688 3.6875 -1.570312 3.6875 -1.875 C 3.6875 -2.175781 3.617188 -2.4375 3.484375 -2.65625 C 3.347656 -2.882812 3.175781 -3.046875 2.96875 -3.140625 C 2.769531 -3.242188 2.550781 -3.296875 2.3125 -3.296875 C 2.082031 -3.296875 1.863281 -3.242188 1.65625 -3.140625 C 1.457031 -3.046875 1.289062 -2.882812 1.15625 -2.65625 Z M 1.15625 -2.65625 "/></g></g></g><g fill="#177287" fill-opacity="1"><g transform="translate(105.844213, 66.763528)"><g><path d="M 0.234375 -3.359375 L 0.234375 -3.765625 C 0.546875 -3.835938 0.796875 -3.816406 0.984375 -3.703125 C 1.171875 -3.585938 1.265625 -3.390625 1.265625 -3.109375 C 1.484375 -3.578125 1.921875 -3.8125 2.578125 -3.8125 C 3.054688 -3.8125 3.425781 -3.660156 3.6875 -3.359375 C 3.945312 -3.066406 4.078125 -2.6875 4.078125 -2.21875 L 4.078125 -0.828125 C 4.085938 -0.648438 4.117188 -0.53125 4.171875 -0.46875 C 4.234375 -0.414062 4.359375 -0.398438 4.546875 -0.421875 L 4.546875 0 C 4.179688 0.0625 3.910156 0.0351562 3.734375 -0.078125 C 3.554688 -0.191406 3.46875 -0.4375 3.46875 -0.8125 L 3.46875 -2.21875 C 3.46875 -2.550781 3.367188 -2.816406 3.171875 -3.015625 C 2.972656 -3.210938 2.722656 -3.3125 2.421875 -3.3125 C 2.097656 -3.3125 1.832031 -3.207031 1.625 -3 C 1.414062 -2.800781 1.3125 -2.53125 1.3125 -2.1875 L 1.3125 0 L 0.703125 0 L 0.703125 -2.671875 C 0.703125 -2.691406 0.703125 -2.722656 0.703125 -2.765625 C 0.703125 -2.847656 0.703125 -2.90625 0.703125 -2.9375 C 0.703125 -2.96875 0.703125 -3.007812 0.703125 -3.0625 C 0.703125 -3.125 0.695312 -3.164062 0.6875 -3.1875 C 0.675781 -3.207031 0.660156 -3.234375 0.640625 -3.265625 C 0.628906 -3.296875 0.613281 -3.316406 0.59375 -3.328125 C 0.570312 -3.335938 0.539062 -3.347656 0.5 -3.359375 C 0.46875 -3.367188 0.429688 -3.375 0.390625 -3.375 C 0.347656 -3.375 0.296875 -3.367188 0.234375 -3.359375 Z M 0.234375 -3.359375 "/></g></g></g><g fill="#177287" fill-opacity="1"><g transform="translate(110.547261, 66.763528)"><g><path d="M 0.3125 -1.046875 L 0.90625 -1.046875 C 0.914062 -0.828125 1.023438 -0.660156 1.234375 -0.546875 C 1.441406 -0.441406 1.6875 -0.390625 1.96875 -0.390625 C 2.25 -0.390625 2.488281 -0.445312 2.6875 -0.5625 C 2.894531 -0.6875 3.003906 -0.851562 3.015625 -1.0625 C 3.015625 -1.257812 2.9375 -1.398438 2.78125 -1.484375 C 2.632812 -1.566406 2.363281 -1.632812 1.96875 -1.6875 C 1.800781 -1.707031 1.65625 -1.726562 1.53125 -1.75 C 1.40625 -1.78125 1.265625 -1.816406 1.109375 -1.859375 C 0.960938 -1.910156 0.84375 -1.96875 0.75 -2.03125 C 0.65625 -2.101562 0.578125 -2.195312 0.515625 -2.3125 C 0.453125 -2.425781 0.414062 -2.554688 0.40625 -2.703125 C 0.394531 -3.066406 0.539062 -3.34375 0.84375 -3.53125 C 1.15625 -3.71875 1.523438 -3.8125 1.953125 -3.8125 C 2.378906 -3.8125 2.75 -3.71875 3.0625 -3.53125 C 3.375 -3.34375 3.523438 -3.082031 3.515625 -2.75 L 2.921875 -2.75 C 2.921875 -2.9375 2.828125 -3.078125 2.640625 -3.171875 C 2.453125 -3.273438 2.222656 -3.328125 1.953125 -3.328125 C 1.691406 -3.328125 1.460938 -3.273438 1.265625 -3.171875 C 1.066406 -3.066406 0.972656 -2.914062 0.984375 -2.71875 C 0.984375 -2.550781 1.0625 -2.429688 1.21875 -2.359375 C 1.375 -2.285156 1.644531 -2.21875 2.03125 -2.15625 C 2.207031 -2.132812 2.335938 -2.113281 2.421875 -2.09375 C 2.515625 -2.082031 2.632812 -2.0625 2.78125 -2.03125 C 2.925781 -2 3.039062 -1.957031 3.125 -1.90625 C 3.207031 -1.863281 3.289062 -1.800781 3.375 -1.71875 C 3.46875 -1.644531 3.53125 -1.550781 3.5625 -1.4375 C 3.601562 -1.332031 3.617188 -1.207031 3.609375 -1.0625 C 3.609375 -0.707031 3.453125 -0.425781 3.140625 -0.21875 C 2.828125 -0.0195312 2.4375 0.0820312 1.96875 0.09375 C 1.507812 0.09375 1.125 0.00390625 0.8125 -0.171875 C 0.507812 -0.359375 0.34375 -0.648438 0.3125 -1.046875 Z M 0.3125 -1.046875 "/></g></g></g><g fill="#177287" fill-opacity="1"><g transform="translate(114.484517, 66.763528)"><g><path d="M 3.9375 -3.46875 L 3.9375 -1.015625 C 3.9375 -0.898438 3.9375 -0.816406 3.9375 -0.765625 C 3.945312 -0.710938 3.960938 -0.65625 3.984375 -0.59375 C 4.015625 -0.53125 4.0625 -0.488281 4.125 -0.46875 C 4.1875 -0.457031 4.273438 -0.457031 4.390625 -0.46875 L 4.390625 -0.015625 C 3.753906 0.0859375 3.4375 -0.125 3.4375 -0.65625 L 3.4375 -0.78125 C 3.320312 -0.507812 3.140625 -0.300781 2.890625 -0.15625 C 2.640625 -0.0195312 2.359375 0.046875 2.046875 0.046875 C 1.503906 0.046875 1.085938 -0.140625 0.796875 -0.515625 C 0.503906 -0.890625 0.359375 -1.351562 0.359375 -1.90625 C 0.367188 -2.507812 0.5625 -2.976562 0.9375 -3.3125 C 1.320312 -3.644531 1.820312 -3.8125 2.4375 -3.8125 C 2.9375 -3.8125 3.4375 -3.695312 3.9375 -3.46875 Z M 3.34375 -1.90625 L 3.34375 -3.09375 C 3.039062 -3.238281 2.726562 -3.3125 2.40625 -3.3125 C 1.976562 -3.3125 1.632812 -3.1875 1.375 -2.9375 C 1.113281 -2.695312 0.976562 -2.351562 0.96875 -1.90625 C 0.96875 -1.5 1.070312 -1.160156 1.28125 -0.890625 C 1.5 -0.628906 1.796875 -0.5 2.171875 -0.5 C 2.546875 -0.5 2.832031 -0.628906 3.03125 -0.890625 C 3.238281 -1.148438 3.34375 -1.488281 3.34375 -1.90625 Z M 3.34375 -1.90625 "/></g></g></g><g fill="#177287" fill-opacity="1"><g transform="translate(119.117948, 66.763528)"><g><path d="M 1.15625 -1.828125 L 1.15625 -0.625 C 1.5 -0.488281 1.816406 -0.421875 2.109375 -0.421875 C 2.535156 -0.421875 2.875 -0.539062 3.125 -0.78125 C 3.375 -1.019531 3.503906 -1.367188 3.515625 -1.828125 C 3.515625 -2.285156 3.40625 -2.640625 3.1875 -2.890625 C 2.96875 -3.148438 2.671875 -3.28125 2.296875 -3.28125 C 1.929688 -3.28125 1.648438 -3.132812 1.453125 -2.84375 C 1.253906 -2.550781 1.15625 -2.210938 1.15625 -1.828125 Z M 0.5625 -0.25 L 0.5625 -5.625 L 1.125 -5.625 L 1.125 -3.046875 C 1.394531 -3.546875 1.835938 -3.796875 2.453125 -3.796875 C 2.921875 -3.796875 3.320312 -3.625 3.65625 -3.28125 C 3.988281 -2.945312 4.144531 -2.46875 4.125 -1.84375 C 4.101562 -1.195312 3.898438 -0.710938 3.515625 -0.390625 C 3.140625 -0.0664062 2.648438 0.09375 2.046875 0.09375 C 1.554688 0.09375 1.0625 -0.0195312 0.5625 -0.25 Z M 0.5625 -0.25 "/></g></g></g><g fill="#177287" fill-opacity="1"><g transform="translate(123.58894, 66.763528)"><g><path d="M 0.53125 -4.96875 C 0.53125 -5.082031 0.566406 -5.171875 0.640625 -5.234375 C 0.722656 -5.304688 0.8125 -5.34375 0.90625 -5.34375 C 1.007812 -5.34375 1.097656 -5.304688 1.171875 -5.234375 C 1.253906 -5.171875 1.296875 -5.082031 1.296875 -4.96875 C 1.296875 -4.851562 1.257812 -4.757812 1.1875 -4.6875 C 1.113281 -4.625 1.023438 -4.585938 0.921875 -4.578125 C 0.816406 -4.578125 0.722656 -4.609375 0.640625 -4.671875 C 0.566406 -4.742188 0.53125 -4.84375 0.53125 -4.96875 Z M 1.203125 -3.703125 L 1.203125 0 L 0.609375 0 L 0.609375 -3.703125 Z M 1.203125 -3.703125 "/></g></g></g><g fill="#177287" fill-opacity="1"><g transform="translate(125.398991, 66.763528)"><g><path d="M 0.546875 -5.6875 L 1.15625 -5.6875 L 1.15625 -1.34375 C 1.15625 -0.96875 1.21875 -0.710938 1.34375 -0.578125 C 1.46875 -0.453125 1.71875 -0.414062 2.09375 -0.46875 L 2.125 0.015625 C 1.550781 0.109375 1.144531 0.0507812 0.90625 -0.15625 C 0.664062 -0.375 0.546875 -0.769531 0.546875 -1.34375 Z M 0.546875 -5.6875 "/></g></g></g><g fill="#177287" fill-opacity="1"><g transform="translate(127.526195, 66.763528)"><g><path d="M 0.53125 -4.96875 C 0.53125 -5.082031 0.566406 -5.171875 0.640625 -5.234375 C 0.722656 -5.304688 0.8125 -5.34375 0.90625 -5.34375 C 1.007812 -5.34375 1.097656 -5.304688 1.171875 -5.234375 C 1.253906 -5.171875 1.296875 -5.082031 1.296875 -4.96875 C 1.296875 -4.851562 1.257812 -4.757812 1.1875 -4.6875 C 1.113281 -4.625 1.023438 -4.585938 0.921875 -4.578125 C 0.816406 -4.578125 0.722656 -4.609375 0.640625 -4.671875 C 0.566406 -4.742188 0.53125 -4.84375 0.53125 -4.96875 Z M 1.203125 -3.703125 L 1.203125 0 L 0.609375 0 L 0.609375 -3.703125 Z M 1.203125 -3.703125 "/></g></g></g><g fill="#177287" fill-opacity="1"><g transform="translate(129.336247, 66.763528)"><g><path d="M 1.578125 -4.875 L 1.578125 -3.71875 L 2.953125 -3.71875 L 2.953125 -3.28125 L 1.578125 -3.28125 L 1.578125 -1.453125 C 1.578125 -0.984375 1.710938 -0.671875 1.984375 -0.515625 C 2.253906 -0.367188 2.613281 -0.382812 3.0625 -0.5625 L 3.140625 -0.0625 C 2.703125 0.0625 2.320312 0.101562 2 0.0625 C 1.6875 0.03125 1.4375 -0.109375 1.25 -0.359375 C 1.0625 -0.617188 0.96875 -0.976562 0.96875 -1.4375 L 0.96875 -3.28125 L 0.171875 -3.3125 L 0.171875 -3.71875 L 1.015625 -3.71875 L 1.078125 -4.875 Z M 1.578125 -4.875 "/></g></g></g><g fill="#177287" fill-opacity="1"><g transform="translate(132.5928, 66.763528)"><g><path d="M 3.9375 -3.46875 L 3.9375 -1.015625 C 3.9375 -0.898438 3.9375 -0.816406 3.9375 -0.765625 C 3.945312 -0.710938 3.960938 -0.65625 3.984375 -0.59375 C 4.015625 -0.53125 4.0625 -0.488281 4.125 -0.46875 C 4.1875 -0.457031 4.273438 -0.457031 4.390625 -0.46875 L 4.390625 -0.015625 C 3.753906 0.0859375 3.4375 -0.125 3.4375 -0.65625 L 3.4375 -0.78125 C 3.320312 -0.507812 3.140625 -0.300781 2.890625 -0.15625 C 2.640625 -0.0195312 2.359375 0.046875 2.046875 0.046875 C 1.503906 0.046875 1.085938 -0.140625 0.796875 -0.515625 C 0.503906 -0.890625 0.359375 -1.351562 0.359375 -1.90625 C 0.367188 -2.507812 0.5625 -2.976562 0.9375 -3.3125 C 1.320312 -3.644531 1.820312 -3.8125 2.4375 -3.8125 C 2.9375 -3.8125 3.4375 -3.695312 3.9375 -3.46875 Z M 3.34375 -1.90625 L 3.34375 -3.09375 C 3.039062 -3.238281 2.726562 -3.3125 2.40625 -3.3125 C 1.976562 -3.3125 1.632812 -3.1875 1.375 -2.9375 C 1.113281 -2.695312 0.976562 -2.351562 0.96875 -1.90625 C 0.96875 -1.5 1.070312 -1.160156 1.28125 -0.890625 C 1.5 -0.628906 1.796875 -0.5 2.171875 -0.5 C 2.546875 -0.5 2.832031 -0.628906 3.03125 -0.890625 C 3.238281 -1.148438 3.34375 -1.488281 3.34375 -1.90625 Z M 2.71875 -4.546875 L 2.25 -4.546875 L 1.671875 -5.28125 L 1.671875 -5.328125 L 2.171875 -5.53125 L 2.71875 -4.59375 Z M 2.71875 -4.546875 "/></g></g></g><g fill="#177287" fill-opacity="1"><g transform="translate(137.226231, 66.763528)"><g/></g></g><g fill="#177287" fill-opacity="1"><g transform="translate(139.229667, 66.763528)"><g><path d="M 0.546875 -5.6875 L 1.15625 -5.6875 L 1.15625 -1.34375 C 1.15625 -0.96875 1.21875 -0.710938 1.34375 -0.578125 C 1.46875 -0.453125 1.71875 -0.414062 2.09375 -0.46875 L 2.125 0.015625 C 1.550781 0.109375 1.144531 0.0507812 0.90625 -0.15625 C 0.664062 -0.375 0.546875 -0.769531 0.546875 -1.34375 Z M 0.546875 -5.6875 "/></g></g></g><g fill="#177287" fill-opacity="1"><g transform="translate(141.356872, 66.763528)"><g><path d="M 0.53125 -4.96875 C 0.53125 -5.082031 0.566406 -5.171875 0.640625 -5.234375 C 0.722656 -5.304688 0.8125 -5.34375 0.90625 -5.34375 C 1.007812 -5.34375 1.097656 -5.304688 1.171875 -5.234375 C 1.253906 -5.171875 1.296875 -5.082031 1.296875 -4.96875 C 1.296875 -4.851562 1.257812 -4.757812 1.1875 -4.6875 C 1.113281 -4.625 1.023438 -4.585938 0.921875 -4.578125 C 0.816406 -4.578125 0.722656 -4.609375 0.640625 -4.671875 C 0.566406 -4.742188 0.53125 -4.84375 0.53125 -4.96875 Z M 1.203125 -3.703125 L 1.203125 0 L 0.609375 0 L 0.609375 -3.703125 Z M 1.203125 -3.703125 "/></g></g></g><g fill="#177287" fill-opacity="1"><g transform="translate(143.166923, 66.763528)"><g><path d="M 0.234375 -3.328125 L 0.234375 -3.75 C 0.546875 -3.832031 0.800781 -3.8125 1 -3.6875 C 1.207031 -3.570312 1.3125 -3.390625 1.3125 -3.140625 C 1.476562 -3.390625 1.660156 -3.5625 1.859375 -3.65625 C 2.054688 -3.757812 2.304688 -3.8125 2.609375 -3.8125 C 2.921875 -3.8125 3.171875 -3.734375 3.359375 -3.578125 C 3.546875 -3.429688 3.671875 -3.226562 3.734375 -2.96875 C 3.847656 -3.257812 4.023438 -3.472656 4.265625 -3.609375 C 4.515625 -3.753906 4.800781 -3.828125 5.125 -3.828125 C 5.976562 -3.828125 6.40625 -3.289062 6.40625 -2.21875 L 6.40625 -0.96875 C 6.40625 -0.90625 6.40625 -0.859375 6.40625 -0.828125 C 6.40625 -0.804688 6.40625 -0.769531 6.40625 -0.71875 C 6.414062 -0.664062 6.421875 -0.628906 6.421875 -0.609375 C 6.429688 -0.597656 6.441406 -0.578125 6.453125 -0.546875 C 6.472656 -0.515625 6.492188 -0.492188 6.515625 -0.484375 C 6.546875 -0.472656 6.578125 -0.460938 6.609375 -0.453125 C 6.648438 -0.441406 6.691406 -0.4375 6.734375 -0.4375 C 6.785156 -0.445312 6.84375 -0.453125 6.90625 -0.453125 L 6.90625 0 C 6.507812 0.0703125 6.222656 0.046875 6.046875 -0.078125 C 5.878906 -0.203125 5.796875 -0.46875 5.796875 -0.875 L 5.796875 -2.21875 C 5.796875 -2.945312 5.507812 -3.3125 4.9375 -3.3125 C 4.632812 -3.3125 4.382812 -3.203125 4.1875 -2.984375 C 3.988281 -2.773438 3.890625 -2.503906 3.890625 -2.171875 L 3.890625 0 L 3.3125 0 L 3.3125 -2.171875 C 3.3125 -2.515625 3.238281 -2.789062 3.09375 -3 C 2.945312 -3.207031 2.722656 -3.3125 2.421875 -3.3125 C 2.097656 -3.3125 1.835938 -3.207031 1.640625 -3 C 1.441406 -2.789062 1.34375 -2.515625 1.34375 -2.171875 L 1.34375 0 L 0.734375 0 L 0.734375 -2.609375 C 0.734375 -2.929688 0.707031 -3.140625 0.65625 -3.234375 C 0.613281 -3.328125 0.472656 -3.359375 0.234375 -3.328125 Z M 0.234375 -3.328125 "/></g></g></g><g fill="#177287" fill-opacity="1"><g transform="translate(150.221499, 66.763528)"><g><path d="M 0.53125 -4.96875 C 0.53125 -5.082031 0.566406 -5.171875 0.640625 -5.234375 C 0.722656 -5.304688 0.8125 -5.34375 0.90625 -5.34375 C 1.007812 -5.34375 1.097656 -5.304688 1.171875 -5.234375 C 1.253906 -5.171875 1.296875 -5.082031 1.296875 -4.96875 C 1.296875 -4.851562 1.257812 -4.757812 1.1875 -4.6875 C 1.113281 -4.625 1.023438 -4.585938 0.921875 -4.578125 C 0.816406 -4.578125 0.722656 -4.609375 0.640625 -4.671875 C 0.566406 -4.742188 0.53125 -4.84375 0.53125 -4.96875 Z M 1.203125 -3.703125 L 1.203125 0 L 0.609375 0 L 0.609375 -3.703125 Z M 1.203125 -3.703125 "/></g></g></g><g fill="#177287" fill-opacity="1"><g transform="translate(152.03155, 66.763528)"><g><path d="M 1.578125 -4.875 L 1.578125 -3.71875 L 2.953125 -3.71875 L 2.953125 -3.28125 L 1.578125 -3.28125 L 1.578125 -1.453125 C 1.578125 -0.984375 1.710938 -0.671875 1.984375 -0.515625 C 2.253906 -0.367188 2.613281 -0.382812 3.0625 -0.5625 L 3.140625 -0.0625 C 2.703125 0.0625 2.320312 0.101562 2 0.0625 C 1.6875 0.03125 1.4375 -0.109375 1.25 -0.359375 C 1.0625 -0.617188 0.96875 -0.976562 0.96875 -1.4375 L 0.96875 -3.28125 L 0.171875 -3.3125 L 0.171875 -3.71875 L 1.015625 -3.71875 L 1.078125 -4.875 Z M 1.578125 -4.875 "/></g></g></g><g fill="#177287" fill-opacity="1"><g transform="translate(155.288103, 66.763528)"><g><path d="M 3.9375 -3.46875 L 3.9375 -1.015625 C 3.9375 -0.898438 3.9375 -0.816406 3.9375 -0.765625 C 3.945312 -0.710938 3.960938 -0.65625 3.984375 -0.59375 C 4.015625 -0.53125 4.0625 -0.488281 4.125 -0.46875 C 4.1875 -0.457031 4.273438 -0.457031 4.390625 -0.46875 L 4.390625 -0.015625 C 3.753906 0.0859375 3.4375 -0.125 3.4375 -0.65625 L 3.4375 -0.78125 C 3.320312 -0.507812 3.140625 -0.300781 2.890625 -0.15625 C 2.640625 -0.0195312 2.359375 0.046875 2.046875 0.046875 C 1.503906 0.046875 1.085938 -0.140625 0.796875 -0.515625 C 0.503906 -0.890625 0.359375 -1.351562 0.359375 -1.90625 C 0.367188 -2.507812 0.5625 -2.976562 0.9375 -3.3125 C 1.320312 -3.644531 1.820312 -3.8125 2.4375 -3.8125 C 2.9375 -3.8125 3.4375 -3.695312 3.9375 -3.46875 Z M 3.34375 -1.90625 L 3.34375 -3.09375 C 3.039062 -3.238281 2.726562 -3.3125 2.40625 -3.3125 C 1.976562 -3.3125 1.632812 -3.1875 1.375 -2.9375 C 1.113281 -2.695312 0.976562 -2.351562 0.96875 -1.90625 C 0.96875 -1.5 1.070312 -1.160156 1.28125 -0.890625 C 1.5 -0.628906 1.796875 -0.5 2.171875 -0.5 C 2.546875 -0.5 2.832031 -0.628906 3.03125 -0.890625 C 3.238281 -1.148438 3.34375 -1.488281 3.34375 -1.90625 Z M 3.34375 -1.90625 "/></g></g></g><g fill="#177287" fill-opacity="1"><g transform="translate(159.921534, 66.763528)"><g><path d="M 1.578125 -4.875 L 1.578125 -3.71875 L 2.953125 -3.71875 L 2.953125 -3.28125 L 1.578125 -3.28125 L 1.578125 -1.453125 C 1.578125 -0.984375 1.710938 -0.671875 1.984375 -0.515625 C 2.253906 -0.367188 2.613281 -0.382812 3.0625 -0.5625 L 3.140625 -0.0625 C 2.703125 0.0625 2.320312 0.101562 2 0.0625 C 1.6875 0.03125 1.4375 -0.109375 1.25 -0.359375 C 1.0625 -0.617188 0.96875 -0.976562 0.96875 -1.4375 L 0.96875 -3.28125 L 0.171875 -3.3125 L 0.171875 -3.71875 L 1.015625 -3.71875 L 1.078125 -4.875 Z M 1.578125 -4.875 "/></g></g></g><g fill="#177287" fill-opacity="1"><g transform="translate(163.178088, 66.763528)"><g><path d="M 3.9375 -3.46875 L 3.9375 -1.015625 C 3.9375 -0.898438 3.9375 -0.816406 3.9375 -0.765625 C 3.945312 -0.710938 3.960938 -0.65625 3.984375 -0.59375 C 4.015625 -0.53125 4.0625 -0.488281 4.125 -0.46875 C 4.1875 -0.457031 4.273438 -0.457031 4.390625 -0.46875 L 4.390625 -0.015625 C 3.753906 0.0859375 3.4375 -0.125 3.4375 -0.65625 L 3.4375 -0.78125 C 3.320312 -0.507812 3.140625 -0.300781 2.890625 -0.15625 C 2.640625 -0.0195312 2.359375 0.046875 2.046875 0.046875 C 1.503906 0.046875 1.085938 -0.140625 0.796875 -0.515625 C 0.503906 -0.890625 0.359375 -1.351562 0.359375 -1.90625 C 0.367188 -2.507812 0.5625 -2.976562 0.9375 -3.3125 C 1.320312 -3.644531 1.820312 -3.8125 2.4375 -3.8125 C 2.9375 -3.8125 3.4375 -3.695312 3.9375 -3.46875 Z M 3.34375 -1.90625 L 3.34375 -3.09375 C 3.039062 -3.238281 2.726562 -3.3125 2.40625 -3.3125 C 1.976562 -3.3125 1.632812 -3.1875 1.375 -2.9375 C 1.113281 -2.695312 0.976562 -2.351562 0.96875 -1.90625 C 0.96875 -1.5 1.070312 -1.160156 1.28125 -0.890625 C 1.5 -0.628906 1.796875 -0.5 2.171875 -0.5 C 2.546875 -0.5 2.832031 -0.628906 3.03125 -0.890625 C 3.238281 -1.148438 3.34375 -1.488281 3.34375 -1.90625 Z M 3.34375 -1.90625 "/></g></g></g><g clip-path="url(#20b59c8a7b)"><g clip-path="url(#1d46ad22c6)"><path fill="#009c82" d="M 0 22 L 47.46875 22 L 47.46875 77.257812 L 0 77.257812 Z M 0 22 " fill-opacity="1" fill-rule="nonzero"/><path fill="#009c82" d="M 0 22 L 47.46875 22 L 47.46875 77.257812 L 0 77.257812 Z M 0 22 " fill-opacity="1" fill-rule="nonzero"/></g></g></svg>