<?xml version="1.0" encoding="utf-8"?>
<!-- Generator: Adobe Illustrator 25.4.0, SVG Export Plug-In . SVG Version: 6.00 Build 0)  -->
<svg version="1.2" baseProfile="tiny-ps" id="Livello_1"
	 xmlns="http://www.w3.org/2000/svg" xmlns:xlink="http://www.w3.org/1999/xlink" viewBox="0 0 56.69 56.69"
	 xml:space="preserve">
<title>Rivelio</title>
<g>
	<path fill="#00957F" d="M26.56,26.22c0,2.49,2.03,4.52,4.53,4.52s4.53-2.03,4.53-4.52c0-2.5-2.03-4.53-4.53-4.53
		S26.56,23.72,26.56,26.22z M44.93,44.98c-3.49-0.07-5.14-3.37-5.64-3.99l-1.37-1.96l-0.47-0.68c-0.87-1.15-1.75-2.31-2.62-3.46
		c-0.13-0.17-0.23-0.38-0.31-0.58c-0.08-0.21-0.04-0.4,0.1-0.6c0.08-0.11,0.11-0.31,0.08-0.45c-0.04-0.17-0.36-0.63-0.53-0.91
		c-0.93,0.47-1.98,0.74-3.09,0.74c-3.79,0-6.88-3.09-6.88-6.88s3.09-6.88,6.88-6.88s6.88,3.09,6.88,6.88c0,1.98-0.84,3.76-2.19,5.02
		c0.24,0.29,0.58,0.67,0.79,0.74c0.11,0.04,0.26,0.05,0.36,0c0.21-0.1,0.4-0.08,0.56,0.04c0.19,0.15,0.39,0.31,0.54,0.51
		c0.48,0.63,0.96,1.27,1.44,1.9c2.65-2.1,4.35-5.47,4.35-9.09c0-5.88-4.31-9.64-11.25-9.83H21.89c-0.01,0-0.02,0-0.04,0h-0.12l0,0
		c-0.35,0.01-0.71,0.03-1.08,0.07c-0.94,0.1-1.65,0.89-1.66,1.83l0,0.08c-0.01,0.78,0.49,1.44,1.2,1.75
		c0.89,0.39,0.91,1.44,0.89,2.88l0.06,24.34c3.89,0.83,7.09,0.35,7.05-4.6l-0.32-4.73c0.01,0,0.02-0.01,0.03-0.01
		c2.32,0.08,3.21,1.18,5.82,6.84c1.92,4.16,4.72,4.97,6.91,4.97c2.72,0,4.89-2.12,4.92-3.13C45.56,45.41,45.33,44.99,44.93,44.98z"
		/>
	<g>
		<path fill="#00957F" d="M17.65,13.94c-2.02,3.54-0.77,5.79-0.6,6.23l0,0.01c0,0,0,0-0.01,0c-0.36-0.31-2.05-2.25-6.07-1.55
			c2.1-3.1,0.71-6.01,0.57-6.27c0,0,0-0.01-0.01-0.01c0,0,0.01,0.01,0.01,0.01c0,0,0,0,0,0C11.77,12.57,14.02,14.86,17.65,13.94z"/>
		<path fill="#00957F" d="M20.62,8.93c-1.26,2.2-0.48,3.6-0.37,3.88l0,0c0,0,0,0,0,0c-0.22-0.19-1.27-1.4-3.77-0.97
			c1.31-1.93,0.44-3.74,0.35-3.9c0,0,0-0.01,0-0.01c0,0,0,0,0.01,0.01c0,0,0,0,0,0C16.96,8.08,18.36,9.51,20.62,8.93z"/>
		<path fill="#00957F" d="M14.52,8.04c-0.77,1.34-0.29,2.19-0.23,2.36l0,0c0,0,0,0,0,0c-0.14-0.12-0.77-0.85-2.29-0.59
			c0.79-1.17,0.27-2.27,0.22-2.37c0,0,0,0,0,0c0,0,0,0,0,0c0,0,0,0,0,0C12.29,7.53,13.15,8.39,14.52,8.04z"/>
	</g>
</g>
</svg>
