<svg xmlns="http://www.w3.org/2000/svg" xmlns:xlink="http://www.w3.org/1999/xlink" width="321" zoomAndPan="magnify" viewBox="0 0 240.75 98.999996" height="132" preserveAspectRatio="xMidYMid meet" version="1.0"><defs><g/><clipPath id="c7f5a21680"><path d="M 21.003906 21.054688 L 74.125 21.054688 L 74.125 88 L 21.003906 88 Z M 21.003906 21.054688 " clip-rule="nonzero"/></clipPath><clipPath id="9316d6b50c"><path d="M 72.8125 80.058594 C 65.851562 79.917969 62.542969 73.316406 61.546875 72.085938 L 58.808594 68.179688 L 57.878906 66.832031 C 56.132812 64.523438 54.382812 62.226562 52.644531 59.917969 L 52.183594 59.167969 C 51.875 58.351562 51.945312 57.960938 52.234375 57.570312 L 52.457031 56.953125 C 52.304688 56.324219 51.675781 55.421875 51.335938 54.855469 C 49.476562 55.792969 47.378906 56.332031 45.152344 56.332031 C 37.570312 56.332031 31.40625 50.167969 31.40625 42.585938 C 31.40625 35.003906 37.582031 28.820312 45.164062 28.820312 C 52.746094 28.820312 58.917969 34.984375 58.917969 42.566406 C 58.917969 46.523438 57.230469 50.078125 54.554688 52.585938 C 55.03125 53.164062 55.710938 53.933594 56.140625 54.066406 L 56.671875 54.164062 L 57.660156 53.90625 C 58.378906 54.453125 58.769531 54.785156 59.058594 55.171875 L 61.933594 58.960938 C 67.230469 54.765625 70.625 48.042969 70.625 40.796875 C 70.625 29.0625 62.023438 21.539062 48.148438 21.167969 L 26.792969 21.167969 C 26.773438 21.167969 26.742188 21.167969 26.722656 21.167969 L 26.480469 21.167969 L 26.480469 21.179688 L 24.335938 21.308594 C 22.457031 21.507812 21.027344 23.085938 21.019531 24.964844 L 21.019531 25.136719 C 21.007812 26.683594 21.996094 28.003906 23.414062 28.632812 C 25.195312 29.410156 25.222656 31.507812 25.203125 34.394531 L 25.324219 83.023438 C 33.105469 84.671875 39.480469 83.734375 39.398438 73.835938 L 38.757812 64.382812 C 38.78125 64.382812 38.800781 64.375 38.820312 64.375 C 43.453125 64.523438 45.234375 66.730469 50.449219 78.039062 C 54.285156 86.351562 59.886719 87.96875 64.242188 87.96875 C 69.667969 87.96875 74.023438 83.734375 74.074219 81.714844 C 74.09375 80.917969 73.632812 80.078125 72.824219 80.058594 M 36.121094 42.566406 C 36.121094 47.550781 40.179688 51.609375 45.164062 51.609375 C 50.148438 51.609375 54.203125 47.550781 54.203125 42.566406 C 54.203125 37.582031 50.148438 33.527344 45.164062 33.527344 C 40.179688 33.527344 36.121094 37.582031 36.121094 42.566406 " clip-rule="nonzero"/></clipPath><clipPath id="105cfb15f0"><path d="M 4.941406 14.566406 L 18.53125 14.566406 L 18.53125 30.628906 L 4.941406 30.628906 Z M 4.941406 14.566406 " clip-rule="nonzero"/></clipPath><clipPath id="5315eb542f"><path d="M 18.3125 18.03125 C 14.265625 25.113281 16.78125 29.601562 17.113281 30.488281 L 17.121094 30.5 L 17.113281 30.488281 C 16.394531 29.871094 13.027344 25.984375 4.996094 27.382812 C 9.191406 21.179688 6.402344 15.386719 6.132812 14.855469 L 6.125 14.835938 L 6.132812 14.847656 L 6.144531 14.855469 C 6.574219 15.304688 11.070312 19.871094 18.3125 18.03125 " clip-rule="nonzero"/></clipPath><clipPath id="5a051437ef"><path d="M 15.75 6 L 24.398438 6 L 24.398438 15.804688 L 15.75 15.804688 Z M 15.75 6 " clip-rule="nonzero"/></clipPath><clipPath id="b151a4b5f7"><path d="M 24.246094 8.03125 C 21.726562 12.4375 23.296875 15.226562 23.503906 15.773438 L 23.515625 15.785156 L 23.503906 15.785156 C 23.054688 15.40625 20.957031 12.988281 15.964844 13.855469 C 18.570312 10 16.84375 6.394531 16.671875 6.066406 L 16.664062 6.046875 L 16.671875 6.046875 L 16.683594 6.054688 C 16.953125 6.335938 19.75 9.171875 24.253906 8.03125 " clip-rule="nonzero"/></clipPath><clipPath id="8f2abe4032"><path d="M 7 5 L 12.355469 5 L 12.355469 11 L 7 11 Z M 7 5 " clip-rule="nonzero"/></clipPath><clipPath id="0c924353b1"><path d="M 12.066406 6.253906 C 10.539062 8.933594 11.488281 10.628906 11.617188 10.96875 C 11.347656 10.738281 10.070312 9.261719 7.03125 9.792969 C 8.621094 7.445312 7.5625 5.246094 7.460938 5.046875 L 7.460938 5.035156 C 7.621094 5.207031 9.332031 6.933594 12.066406 6.234375 " clip-rule="nonzero"/></clipPath></defs><g fill="#ffffff" fill-opacity="1"><g transform="translate(82.461366, 59.462488)"><g><path d="M 8.796875 -16.984375 C 9.179688 -18.078125 9.882812 -18.910156 10.90625 -19.484375 C 11.925781 -20.054688 13.066406 -20.34375 14.328125 -20.34375 C 15.960938 -20.394531 17.363281 -19.96875 18.53125 -19.0625 L 17.265625 -14.28125 C 16.117188 -15.039062 14.894531 -15.394531 13.59375 -15.34375 C 12.28125 -15.34375 11.179688 -14.925781 10.296875 -14.09375 C 9.410156 -13.257812 8.96875 -12.125 8.96875 -10.6875 L 8.96875 0 L 3.359375 0 L 3.359375 -13.90625 C 3.359375 -14.863281 3.234375 -15.539062 2.984375 -15.9375 C 2.742188 -16.332031 2.210938 -16.460938 1.390625 -16.328125 L 1.390625 -19.84375 C 2.429688 -20.007812 3.472656 -20.117188 4.515625 -20.171875 C 5.566406 -20.222656 6.515625 -19.976562 7.359375 -19.4375 C 8.210938 -18.894531 8.691406 -18.078125 8.796875 -16.984375 Z M 8.796875 -16.984375 "/></g></g></g><g fill="#ffffff" fill-opacity="1"><g transform="translate(101.364738, 59.462488)"><g><path d="M 3.25 -22.953125 C 2.550781 -23.554688 2.203125 -24.375 2.203125 -25.40625 C 2.203125 -26.445312 2.550781 -27.257812 3.25 -27.84375 C 3.945312 -28.4375 4.71875 -28.734375 5.5625 -28.734375 C 6.40625 -28.734375 7.175781 -28.4375 7.875 -27.84375 C 8.570312 -27.257812 8.921875 -26.445312 8.921875 -25.40625 C 8.921875 -24.375 8.570312 -23.554688 7.875 -22.953125 C 7.175781 -22.359375 6.40625 -22.0625 5.5625 -22.0625 C 4.71875 -22.0625 3.945312 -22.359375 3.25 -22.953125 Z M 8.4375 -19.484375 L 8.4375 0 L 2.703125 0 L 2.703125 -19.484375 Z M 8.4375 -19.484375 "/></g></g></g><g fill="#ffffff" fill-opacity="1"><g transform="translate(112.494002, 59.462488)"><g><path d="M 12.640625 -4.25 C 14.085938 -4.25 15.128906 -4.867188 15.765625 -6.109375 C 16.410156 -7.359375 16.675781 -8.875 16.5625 -10.65625 C 16.457031 -12.445312 16.238281 -14.140625 15.90625 -15.734375 C 15.582031 -17.328125 15.203125 -18.65625 14.765625 -19.71875 L 20.421875 -19.71875 C 21.023438 -17.945312 21.488281 -16.207031 21.8125 -14.5 C 22.132812 -12.800781 22.269531 -11.035156 22.21875 -9.203125 C 22.164062 -7.378906 21.84375 -5.789062 21.25 -4.4375 C 20.664062 -3.09375 19.644531 -1.984375 18.1875 -1.109375 C 16.726562 -0.234375 14.878906 0.203125 12.640625 0.203125 C 9.722656 0.203125 7.378906 -0.546875 5.609375 -2.046875 C 3.835938 -3.546875 2.953125 -5.703125 2.953125 -8.515625 L 2.953125 -13.59375 C 2.953125 -14.1875 2.9375 -14.625 2.90625 -14.90625 C 2.875 -15.195312 2.796875 -15.503906 2.671875 -15.828125 C 2.554688 -16.160156 2.347656 -16.378906 2.046875 -16.484375 C 1.742188 -16.597656 1.332031 -16.640625 0.8125 -16.609375 L 0.8125 -19.84375 C 2.15625 -20.09375 3.410156 -20.203125 4.578125 -20.171875 C 5.753906 -20.148438 6.738281 -19.734375 7.53125 -18.921875 C 8.320312 -18.117188 8.71875 -16.941406 8.71875 -15.390625 L 8.71875 -8.515625 C 8.6875 -7.253906 9.023438 -6.226562 9.734375 -5.4375 C 10.441406 -4.644531 11.410156 -4.25 12.640625 -4.25 Z M 12.640625 -4.25 "/></g></g></g><g fill="#ffffff" fill-opacity="1"><g transform="translate(136.552833, 59.462488)"><g><path d="M 19.890625 -5.640625 L 20.09375 -1.234375 C 18.425781 -0.273438 16.078125 0.269531 13.046875 0.40625 C 9.472656 0.519531 6.65625 -0.296875 4.59375 -2.046875 C 2.539062 -3.796875 1.515625 -6.425781 1.515625 -9.9375 C 1.515625 -13.132812 2.488281 -15.640625 4.4375 -17.453125 C 6.382812 -19.265625 8.753906 -20.195312 11.546875 -20.25 C 13.148438 -20.3125 14.617188 -20.132812 15.953125 -19.71875 C 17.296875 -19.3125 18.429688 -18.566406 19.359375 -17.484375 C 20.285156 -16.410156 20.734375 -15.070312 20.703125 -13.46875 C 20.597656 -11.550781 19.828125 -10.070312 18.390625 -9.03125 C 16.960938 -8 15.265625 -7.457031 13.296875 -7.40625 C 10.816406 -7.269531 8.703125 -7.691406 6.953125 -8.671875 C 7.003906 -7.066406 7.617188 -5.894531 8.796875 -5.15625 C 9.972656 -4.414062 11.515625 -4.078125 13.421875 -4.140625 C 15.742188 -4.191406 17.898438 -4.691406 19.890625 -5.640625 Z M 7.28125 -12.3125 C 7.71875 -12.019531 8.425781 -11.765625 9.40625 -11.546875 C 10.394531 -11.328125 11.3125 -11.242188 12.15625 -11.296875 C 13.03125 -11.316406 13.742188 -11.503906 14.296875 -11.859375 C 14.859375 -12.222656 15.15625 -12.757812 15.1875 -13.46875 C 15.1875 -14.28125 14.820312 -14.878906 14.09375 -15.265625 C 13.375 -15.648438 12.550781 -15.84375 11.625 -15.84375 C 9.28125 -15.695312 7.832031 -14.519531 7.28125 -12.3125 Z M 7.28125 -12.3125 "/></g></g></g><g fill="#ffffff" fill-opacity="1"><g transform="translate(158.811345, 59.462488)"><g><path d="M 2.5 -29.953125 L 8.140625 -29.953125 L 8.140625 -7.484375 C 8.140625 -6.015625 8.4375 -5.050781 9.03125 -4.59375 C 9.632812 -4.144531 10.648438 -4.046875 12.078125 -4.296875 L 12.28125 0 C 9.03125 0.570312 6.585938 0.3125 4.953125 -0.78125 C 3.316406 -1.875 2.5 -4.109375 2.5 -7.484375 Z M 2.5 -29.953125 "/></g></g></g><g fill="#ffffff" fill-opacity="1"><g transform="translate(171.454503, 59.462488)"><g><path d="M 3.25 -22.953125 C 2.550781 -23.554688 2.203125 -24.375 2.203125 -25.40625 C 2.203125 -26.445312 2.550781 -27.257812 3.25 -27.84375 C 3.945312 -28.4375 4.71875 -28.734375 5.5625 -28.734375 C 6.40625 -28.734375 7.175781 -28.4375 7.875 -27.84375 C 8.570312 -27.257812 8.921875 -26.445312 8.921875 -25.40625 C 8.921875 -24.375 8.570312 -23.554688 7.875 -22.953125 C 7.175781 -22.359375 6.40625 -22.0625 5.5625 -22.0625 C 4.71875 -22.0625 3.945312 -22.359375 3.25 -22.953125 Z M 8.4375 -19.484375 L 8.4375 0 L 2.703125 0 L 2.703125 -19.484375 Z M 8.4375 -19.484375 "/></g></g></g><g fill="#ffffff" fill-opacity="1"><g transform="translate(182.583768, 59.462488)"><g><path d="M 22.390625 -9.9375 C 22.390625 -6.664062 21.351562 -4.113281 19.28125 -2.28125 C 17.207031 -0.457031 14.75 0.453125 11.90625 0.453125 C 9.070312 0.453125 6.625 -0.457031 4.5625 -2.28125 C 2.5 -4.113281 1.46875 -6.664062 1.46875 -9.9375 C 1.46875 -13.1875 2.5 -15.722656 4.5625 -17.546875 C 6.625 -19.378906 9.070312 -20.296875 11.90625 -20.296875 C 14.75 -20.296875 17.207031 -19.378906 19.28125 -17.546875 C 21.351562 -15.722656 22.390625 -13.1875 22.390625 -9.9375 Z M 8.5625 -13.875 C 7.625 -12.945312 7.15625 -11.632812 7.15625 -9.9375 C 7.15625 -8.25 7.625 -6.929688 8.5625 -5.984375 C 9.507812 -5.046875 10.632812 -4.578125 11.9375 -4.578125 C 13.25 -4.578125 14.367188 -5.046875 15.296875 -5.984375 C 16.234375 -6.929688 16.703125 -8.25 16.703125 -9.9375 C 16.703125 -11.601562 16.226562 -12.90625 15.28125 -13.84375 C 14.34375 -14.789062 13.234375 -15.265625 11.953125 -15.265625 C 10.640625 -15.265625 9.507812 -14.800781 8.5625 -13.875 Z M 8.5625 -13.875 "/></g></g></g><g fill="#ffffff" fill-opacity="1"><g transform="translate(82.461366, 77.000471)"><g><path d="M 6.109375 -3.921875 L 5.234375 -3.921875 C 5.085938 -4.253906 4.859375 -4.507812 4.546875 -4.6875 C 4.234375 -4.863281 3.890625 -4.953125 3.515625 -4.953125 C 2.953125 -4.953125 2.460938 -4.765625 2.046875 -4.390625 C 1.640625 -4.015625 1.4375 -3.492188 1.4375 -2.828125 C 1.4375 -2.171875 1.640625 -1.65625 2.046875 -1.28125 C 2.460938 -0.90625 2.945312 -0.71875 3.5 -0.71875 C 3.894531 -0.71875 4.253906 -0.816406 4.578125 -1.015625 C 4.898438 -1.222656 5.132812 -1.515625 5.28125 -1.890625 L 6.171875 -1.890625 C 6.003906 -1.253906 5.671875 -0.765625 5.171875 -0.421875 C 4.671875 -0.078125 4.109375 0.09375 3.484375 0.09375 C 2.691406 0.09375 2 -0.164062 1.40625 -0.6875 C 0.8125 -1.207031 0.515625 -1.925781 0.515625 -2.84375 C 0.515625 -3.769531 0.816406 -4.488281 1.421875 -5 C 2.035156 -5.519531 2.742188 -5.773438 3.546875 -5.765625 C 4.148438 -5.742188 4.6875 -5.578125 5.15625 -5.265625 C 5.625 -4.953125 5.941406 -4.503906 6.109375 -3.921875 Z M 6.109375 -3.921875 "/></g></g></g><g fill="#ffffff" fill-opacity="1"><g transform="translate(89.072631, 77.000471)"><g><path d="M 6.46875 -2.828125 C 6.46875 -2.359375 6.378906 -1.929688 6.203125 -1.546875 C 6.035156 -1.171875 5.8125 -0.863281 5.53125 -0.625 C 5.257812 -0.394531 4.945312 -0.210938 4.59375 -0.078125 C 4.238281 0.046875 3.875 0.109375 3.5 0.109375 C 3.125 0.109375 2.757812 0.046875 2.40625 -0.078125 C 2.050781 -0.210938 1.734375 -0.394531 1.453125 -0.625 C 1.179688 -0.863281 0.957031 -1.171875 0.78125 -1.546875 C 0.613281 -1.921875 0.53125 -2.347656 0.53125 -2.828125 C 0.53125 -3.304688 0.613281 -3.734375 0.78125 -4.109375 C 0.957031 -4.492188 1.179688 -4.800781 1.453125 -5.03125 C 1.734375 -5.269531 2.050781 -5.453125 2.40625 -5.578125 C 2.757812 -5.710938 3.125 -5.78125 3.5 -5.78125 C 3.875 -5.78125 4.238281 -5.710938 4.59375 -5.578125 C 4.945312 -5.453125 5.257812 -5.269531 5.53125 -5.03125 C 5.8125 -4.800781 6.035156 -4.492188 6.203125 -4.109375 C 6.378906 -3.734375 6.46875 -3.304688 6.46875 -2.828125 Z M 1.75 -4.015625 C 1.550781 -3.679688 1.453125 -3.285156 1.453125 -2.828125 C 1.453125 -2.367188 1.550781 -1.972656 1.75 -1.640625 C 1.957031 -1.304688 2.210938 -1.0625 2.515625 -0.90625 C 2.816406 -0.75 3.144531 -0.671875 3.5 -0.671875 C 3.851562 -0.671875 4.179688 -0.75 4.484375 -0.90625 C 4.785156 -1.0625 5.035156 -1.304688 5.234375 -1.640625 C 5.441406 -1.972656 5.546875 -2.367188 5.546875 -2.828125 C 5.546875 -3.285156 5.441406 -3.679688 5.234375 -4.015625 C 5.035156 -4.347656 4.785156 -4.585938 4.484375 -4.734375 C 4.179688 -4.890625 3.851562 -4.96875 3.5 -4.96875 C 3.144531 -4.96875 2.816406 -4.890625 2.515625 -4.734375 C 2.210938 -4.585938 1.957031 -4.347656 1.75 -4.015625 Z M 1.75 -4.015625 "/></g></g></g><g fill="#ffffff" fill-opacity="1"><g transform="translate(96.057679, 77.000471)"><g><path d="M 5.015625 -2.84375 L 5.015625 -4.65625 C 4.535156 -4.863281 4.054688 -4.96875 3.578125 -4.96875 C 2.941406 -4.96875 2.429688 -4.78125 2.046875 -4.40625 C 1.660156 -4.03125 1.46875 -3.503906 1.46875 -2.828125 C 1.46875 -2.160156 1.632812 -1.628906 1.96875 -1.234375 C 2.3125 -0.847656 2.753906 -0.65625 3.296875 -0.65625 C 3.859375 -0.65625 4.285156 -0.875 4.578125 -1.3125 C 4.867188 -1.75 5.015625 -2.257812 5.015625 -2.84375 Z M 0.953125 2.4375 L 1.09375 1.703125 C 1.488281 1.929688 1.910156 2.085938 2.359375 2.171875 C 2.804688 2.265625 3.234375 2.273438 3.640625 2.203125 C 4.046875 2.140625 4.382812 1.941406 4.65625 1.609375 C 4.925781 1.273438 5.0625 0.832031 5.0625 0.28125 L 5.0625 -1.046875 C 4.757812 -0.265625 4.097656 0.125 3.078125 0.125 C 2.367188 0.125 1.765625 -0.128906 1.265625 -0.640625 C 0.773438 -1.160156 0.53125 -1.890625 0.53125 -2.828125 C 0.53125 -3.773438 0.820312 -4.5 1.40625 -5 C 2 -5.5 2.753906 -5.75 3.671875 -5.75 C 4.398438 -5.738281 5.144531 -5.5625 5.90625 -5.21875 L 5.90625 0.28125 C 5.90625 0.832031 5.800781 1.3125 5.59375 1.71875 C 5.382812 2.132812 5.109375 2.441406 4.765625 2.640625 C 4.421875 2.835938 4.035156 2.960938 3.609375 3.015625 C 3.179688 3.078125 2.738281 3.054688 2.28125 2.953125 C 1.820312 2.847656 1.378906 2.675781 0.953125 2.4375 Z M 0.953125 2.4375 "/></g></g></g><g fill="#ffffff" fill-opacity="1"><g transform="translate(102.809121, 77.000471)"><g><path d="M 0.828125 -8.5625 L 1.75 -8.5625 L 1.75 -2.03125 C 1.75 -1.457031 1.84375 -1.070312 2.03125 -0.875 C 2.21875 -0.6875 2.597656 -0.628906 3.171875 -0.703125 L 3.203125 0.015625 C 2.347656 0.160156 1.738281 0.078125 1.375 -0.234375 C 1.007812 -0.554688 0.828125 -1.15625 0.828125 -2.03125 Z M 0.828125 -8.5625 "/></g></g></g><g fill="#ffffff" fill-opacity="1"><g transform="translate(106.021308, 77.000471)"><g><path d="M 0.796875 -7.484375 C 0.796875 -7.671875 0.851562 -7.8125 0.96875 -7.90625 C 1.082031 -8.007812 1.21875 -8.0625 1.375 -8.0625 C 1.53125 -8.0625 1.664062 -8.007812 1.78125 -7.90625 C 1.894531 -7.8125 1.953125 -7.671875 1.953125 -7.484375 C 1.953125 -7.304688 1.894531 -7.164062 1.78125 -7.0625 C 1.675781 -6.96875 1.546875 -6.914062 1.390625 -6.90625 C 1.234375 -6.894531 1.09375 -6.941406 0.96875 -7.046875 C 0.851562 -7.160156 0.796875 -7.304688 0.796875 -7.484375 Z M 1.828125 -5.59375 L 1.828125 0 L 0.90625 0 L 0.90625 -5.59375 Z M 1.828125 -5.59375 "/></g></g></g><g fill="#ffffff" fill-opacity="1"><g transform="translate(111.779889, 77.000471)"><g><path d="M 6.46875 -2.828125 C 6.46875 -2.359375 6.378906 -1.929688 6.203125 -1.546875 C 6.035156 -1.171875 5.8125 -0.863281 5.53125 -0.625 C 5.257812 -0.394531 4.945312 -0.210938 4.59375 -0.078125 C 4.238281 0.046875 3.875 0.109375 3.5 0.109375 C 3.125 0.109375 2.757812 0.046875 2.40625 -0.078125 C 2.050781 -0.210938 1.734375 -0.394531 1.453125 -0.625 C 1.179688 -0.863281 0.957031 -1.171875 0.78125 -1.546875 C 0.613281 -1.921875 0.53125 -2.347656 0.53125 -2.828125 C 0.53125 -3.304688 0.613281 -3.734375 0.78125 -4.109375 C 0.957031 -4.492188 1.179688 -4.800781 1.453125 -5.03125 C 1.734375 -5.269531 2.050781 -5.453125 2.40625 -5.578125 C 2.757812 -5.710938 3.125 -5.78125 3.5 -5.78125 C 3.875 -5.78125 4.238281 -5.710938 4.59375 -5.578125 C 4.945312 -5.453125 5.257812 -5.269531 5.53125 -5.03125 C 5.8125 -4.800781 6.035156 -4.492188 6.203125 -4.109375 C 6.378906 -3.734375 6.46875 -3.304688 6.46875 -2.828125 Z M 1.75 -4.015625 C 1.550781 -3.679688 1.453125 -3.285156 1.453125 -2.828125 C 1.453125 -2.367188 1.550781 -1.972656 1.75 -1.640625 C 1.957031 -1.304688 2.210938 -1.0625 2.515625 -0.90625 C 2.816406 -0.75 3.144531 -0.671875 3.5 -0.671875 C 3.851562 -0.671875 4.179688 -0.75 4.484375 -0.90625 C 4.785156 -1.0625 5.035156 -1.304688 5.234375 -1.640625 C 5.441406 -1.972656 5.546875 -2.367188 5.546875 -2.828125 C 5.546875 -3.285156 5.441406 -3.679688 5.234375 -4.015625 C 5.035156 -4.347656 4.785156 -4.585938 4.484375 -4.734375 C 4.179688 -4.890625 3.851562 -4.96875 3.5 -4.96875 C 3.144531 -4.96875 2.816406 -4.890625 2.515625 -4.734375 C 2.210938 -4.585938 1.957031 -4.347656 1.75 -4.015625 Z M 1.75 -4.015625 "/></g></g></g><g fill="#ffffff" fill-opacity="1"><g transform="translate(118.764937, 77.000471)"><g><path d="M 5.546875 -2.859375 C 5.546875 -3.460938 5.382812 -3.960938 5.0625 -4.359375 C 4.75 -4.765625 4.304688 -4.96875 3.734375 -4.96875 C 3.171875 -4.96875 2.734375 -4.773438 2.421875 -4.390625 C 2.109375 -4.003906 1.953125 -3.507812 1.953125 -2.90625 C 1.953125 -2.269531 2.101562 -1.734375 2.40625 -1.296875 C 2.707031 -0.867188 3.144531 -0.65625 3.71875 -0.65625 C 4.3125 -0.65625 4.765625 -0.859375 5.078125 -1.265625 C 5.390625 -1.679688 5.546875 -2.210938 5.546875 -2.859375 Z M 1.90625 2.875 L 1.046875 2.875 L 1.046875 -4.296875 C 1.046875 -4.304688 1.046875 -4.320312 1.046875 -4.34375 C 1.046875 -4.488281 1.039062 -4.59375 1.03125 -4.65625 C 1.03125 -4.71875 1.007812 -4.785156 0.96875 -4.859375 C 0.925781 -4.941406 0.859375 -4.992188 0.765625 -5.015625 C 0.671875 -5.035156 0.546875 -5.039062 0.390625 -5.03125 L 0.390625 -5.703125 C 1.347656 -5.867188 1.828125 -5.550781 1.828125 -4.75 L 1.828125 -4.578125 C 2.003906 -4.984375 2.273438 -5.289062 2.640625 -5.5 C 3.003906 -5.707031 3.429688 -5.8125 3.921875 -5.8125 C 4.722656 -5.8125 5.347656 -5.523438 5.796875 -4.953125 C 6.242188 -4.390625 6.46875 -3.691406 6.46875 -2.859375 C 6.46875 -2.015625 6.25 -1.304688 5.8125 -0.734375 C 5.375 -0.160156 4.742188 0.125 3.921875 0.125 C 2.960938 0.125 2.289062 -0.25 1.90625 -1 Z M 1.90625 2.875 "/></g></g></g><g fill="#ffffff" fill-opacity="1"><g transform="translate(125.761675, 77.000471)"><g><path d="M 5.546875 -2.859375 C 5.546875 -3.460938 5.382812 -3.960938 5.0625 -4.359375 C 4.75 -4.765625 4.304688 -4.96875 3.734375 -4.96875 C 3.171875 -4.96875 2.734375 -4.773438 2.421875 -4.390625 C 2.109375 -4.003906 1.953125 -3.507812 1.953125 -2.90625 C 1.953125 -2.269531 2.101562 -1.734375 2.40625 -1.296875 C 2.707031 -0.867188 3.144531 -0.65625 3.71875 -0.65625 C 4.3125 -0.65625 4.765625 -0.859375 5.078125 -1.265625 C 5.390625 -1.679688 5.546875 -2.210938 5.546875 -2.859375 Z M 1.90625 2.875 L 1.046875 2.875 L 1.046875 -4.296875 C 1.046875 -4.304688 1.046875 -4.320312 1.046875 -4.34375 C 1.046875 -4.488281 1.039062 -4.59375 1.03125 -4.65625 C 1.03125 -4.71875 1.007812 -4.785156 0.96875 -4.859375 C 0.925781 -4.941406 0.859375 -4.992188 0.765625 -5.015625 C 0.671875 -5.035156 0.546875 -5.039062 0.390625 -5.03125 L 0.390625 -5.703125 C 1.347656 -5.867188 1.828125 -5.550781 1.828125 -4.75 L 1.828125 -4.578125 C 2.003906 -4.984375 2.273438 -5.289062 2.640625 -5.5 C 3.003906 -5.707031 3.429688 -5.8125 3.921875 -5.8125 C 4.722656 -5.8125 5.347656 -5.523438 5.796875 -4.953125 C 6.242188 -4.390625 6.46875 -3.691406 6.46875 -2.859375 C 6.46875 -2.015625 6.25 -1.304688 5.8125 -0.734375 C 5.375 -0.160156 4.742188 0.125 3.921875 0.125 C 2.960938 0.125 2.289062 -0.25 1.90625 -1 Z M 1.90625 2.875 "/></g></g></g><g fill="#ffffff" fill-opacity="1"><g transform="translate(132.758414, 77.000471)"><g><path d="M 6.46875 -2.828125 C 6.46875 -2.359375 6.378906 -1.929688 6.203125 -1.546875 C 6.035156 -1.171875 5.8125 -0.863281 5.53125 -0.625 C 5.257812 -0.394531 4.945312 -0.210938 4.59375 -0.078125 C 4.238281 0.046875 3.875 0.109375 3.5 0.109375 C 3.125 0.109375 2.757812 0.046875 2.40625 -0.078125 C 2.050781 -0.210938 1.734375 -0.394531 1.453125 -0.625 C 1.179688 -0.863281 0.957031 -1.171875 0.78125 -1.546875 C 0.613281 -1.921875 0.53125 -2.347656 0.53125 -2.828125 C 0.53125 -3.304688 0.613281 -3.734375 0.78125 -4.109375 C 0.957031 -4.492188 1.179688 -4.800781 1.453125 -5.03125 C 1.734375 -5.269531 2.050781 -5.453125 2.40625 -5.578125 C 2.757812 -5.710938 3.125 -5.78125 3.5 -5.78125 C 3.875 -5.78125 4.238281 -5.710938 4.59375 -5.578125 C 4.945312 -5.453125 5.257812 -5.269531 5.53125 -5.03125 C 5.8125 -4.800781 6.035156 -4.492188 6.203125 -4.109375 C 6.378906 -3.734375 6.46875 -3.304688 6.46875 -2.828125 Z M 1.75 -4.015625 C 1.550781 -3.679688 1.453125 -3.285156 1.453125 -2.828125 C 1.453125 -2.367188 1.550781 -1.972656 1.75 -1.640625 C 1.957031 -1.304688 2.210938 -1.0625 2.515625 -0.90625 C 2.816406 -0.75 3.144531 -0.671875 3.5 -0.671875 C 3.851562 -0.671875 4.179688 -0.75 4.484375 -0.90625 C 4.785156 -1.0625 5.035156 -1.304688 5.234375 -1.640625 C 5.441406 -1.972656 5.546875 -2.367188 5.546875 -2.828125 C 5.546875 -3.285156 5.441406 -3.679688 5.234375 -4.015625 C 5.035156 -4.347656 4.785156 -4.585938 4.484375 -4.734375 C 4.179688 -4.890625 3.851562 -4.96875 3.5 -4.96875 C 3.144531 -4.96875 2.816406 -4.890625 2.515625 -4.734375 C 2.210938 -4.585938 1.957031 -4.347656 1.75 -4.015625 Z M 1.75 -4.015625 "/></g></g></g><g fill="#ffffff" fill-opacity="1"><g transform="translate(139.743461, 77.000471)"><g><path d="M 1.890625 -4.890625 C 2.179688 -5.515625 2.75 -5.828125 3.59375 -5.828125 C 4.09375 -5.828125 4.535156 -5.6875 4.921875 -5.40625 L 4.703125 -4.625 C 4.304688 -4.875 3.90625 -5 3.5 -5 C 3.082031 -5 2.71875 -4.859375 2.40625 -4.578125 C 2.101562 -4.296875 1.953125 -3.9375 1.953125 -3.5 L 1.953125 0 L 1.046875 0 L 1.046875 -4.3125 C 1.046875 -4.46875 1.039062 -4.582031 1.03125 -4.65625 C 1.03125 -4.738281 1.007812 -4.820312 0.96875 -4.90625 C 0.925781 -4.988281 0.859375 -5.039062 0.765625 -5.0625 C 0.671875 -5.09375 0.539062 -5.097656 0.375 -5.078125 L 0.359375 -5.6875 C 0.847656 -5.78125 1.222656 -5.769531 1.484375 -5.65625 C 1.742188 -5.550781 1.878906 -5.296875 1.890625 -4.890625 Z M 1.890625 -4.890625 "/></g></g></g><g fill="#ffffff" fill-opacity="1"><g transform="translate(144.789519, 77.000471)"><g><path d="M 2.390625 -7.359375 L 2.390625 -5.609375 L 4.453125 -5.609375 L 4.453125 -4.9375 L 2.390625 -4.9375 L 2.390625 -2.1875 C 2.390625 -1.488281 2.59375 -1.019531 3 -0.78125 C 3.40625 -0.550781 3.945312 -0.570312 4.625 -0.84375 L 4.734375 -0.109375 C 4.078125 0.0859375 3.503906 0.160156 3.015625 0.109375 C 2.535156 0.0546875 2.15625 -0.160156 1.875 -0.546875 C 1.601562 -0.929688 1.46875 -1.46875 1.46875 -2.15625 L 1.46875 -4.9375 L 0.265625 -5 L 0.265625 -5.609375 L 1.53125 -5.609375 L 1.625 -7.359375 Z M 2.390625 -7.359375 "/></g></g></g><g fill="#ffffff" fill-opacity="1"><g transform="translate(149.70709, 77.000471)"><g><path d="M 4.875 -5.640625 L 5.78125 -5.640625 L 5.78125 -1.5 C 5.78125 -1.09375 5.816406 -0.835938 5.890625 -0.734375 C 5.972656 -0.628906 6.160156 -0.59375 6.453125 -0.625 L 6.46875 0.015625 C 5.957031 0.0976562 5.566406 0.0820312 5.296875 -0.03125 C 5.035156 -0.144531 4.914062 -0.425781 4.9375 -0.875 C 4.582031 -0.226562 3.914062 0.09375 2.9375 0.09375 C 2.21875 0.09375 1.679688 -0.125 1.328125 -0.5625 C 0.984375 -1.007812 0.8125 -1.601562 0.8125 -2.34375 L 0.8125 -5.640625 L 1.734375 -5.640625 L 1.734375 -2.34375 C 1.734375 -1.820312 1.863281 -1.410156 2.125 -1.109375 C 2.382812 -0.804688 2.742188 -0.65625 3.203125 -0.65625 C 3.703125 -0.65625 4.101562 -0.804688 4.40625 -1.109375 C 4.71875 -1.421875 4.875 -1.835938 4.875 -2.359375 Z M 4.875 -5.640625 "/></g></g></g><g fill="#ffffff" fill-opacity="1"><g transform="translate(156.551978, 77.000471)"><g><path d="M 0.359375 -5.078125 L 0.34375 -5.671875 C 0.820312 -5.785156 1.203125 -5.753906 1.484375 -5.578125 C 1.773438 -5.410156 1.921875 -5.113281 1.921875 -4.6875 C 2.242188 -5.394531 2.898438 -5.75 3.890625 -5.75 C 4.609375 -5.75 5.164062 -5.523438 5.5625 -5.078125 C 5.957031 -4.640625 6.15625 -4.066406 6.15625 -3.359375 L 6.15625 -1.234375 C 6.164062 -0.984375 6.210938 -0.8125 6.296875 -0.71875 C 6.378906 -0.625 6.566406 -0.597656 6.859375 -0.640625 L 6.859375 0 C 6.316406 0.101562 5.910156 0.0664062 5.640625 -0.109375 C 5.367188 -0.285156 5.234375 -0.65625 5.234375 -1.21875 L 5.234375 -3.359375 C 5.234375 -3.847656 5.082031 -4.242188 4.78125 -4.546875 C 4.488281 -4.847656 4.109375 -5 3.640625 -5 C 3.171875 -5 2.773438 -4.84375 2.453125 -4.53125 C 2.140625 -4.21875 1.984375 -3.8125 1.984375 -3.3125 L 1.984375 0 L 1.0625 0 L 1.0625 -4.03125 C 1.0625 -4.0625 1.0625 -4.109375 1.0625 -4.171875 C 1.0625 -4.285156 1.0625 -4.367188 1.0625 -4.421875 C 1.0625 -4.484375 1.054688 -4.550781 1.046875 -4.625 C 1.046875 -4.707031 1.039062 -4.765625 1.03125 -4.796875 C 1.019531 -4.835938 1.003906 -4.878906 0.984375 -4.921875 C 0.960938 -4.972656 0.929688 -5.003906 0.890625 -5.015625 C 0.859375 -5.035156 0.816406 -5.050781 0.765625 -5.0625 C 0.710938 -5.082031 0.648438 -5.085938 0.578125 -5.078125 C 0.515625 -5.078125 0.441406 -5.078125 0.359375 -5.078125 Z M 0.359375 -5.078125 "/></g></g></g><g fill="#ffffff" fill-opacity="1"><g transform="translate(163.653836, 77.000471)"><g><path d="M 0.796875 -7.484375 C 0.796875 -7.671875 0.851562 -7.8125 0.96875 -7.90625 C 1.082031 -8.007812 1.21875 -8.0625 1.375 -8.0625 C 1.53125 -8.0625 1.664062 -8.007812 1.78125 -7.90625 C 1.894531 -7.8125 1.953125 -7.671875 1.953125 -7.484375 C 1.953125 -7.304688 1.894531 -7.164062 1.78125 -7.0625 C 1.675781 -6.96875 1.546875 -6.914062 1.390625 -6.90625 C 1.234375 -6.894531 1.09375 -6.941406 0.96875 -7.046875 C 0.851562 -7.160156 0.796875 -7.304688 0.796875 -7.484375 Z M 1.828125 -5.59375 L 1.828125 0 L 0.90625 0 L 0.90625 -5.59375 Z M 1.828125 -5.59375 "/></g></g></g><g fill="#ffffff" fill-opacity="1"><g transform="translate(166.387122, 77.000471)"><g><path d="M 2.390625 -7.359375 L 2.390625 -5.609375 L 4.453125 -5.609375 L 4.453125 -4.9375 L 2.390625 -4.9375 L 2.390625 -2.1875 C 2.390625 -1.488281 2.59375 -1.019531 3 -0.78125 C 3.40625 -0.550781 3.945312 -0.570312 4.625 -0.84375 L 4.734375 -0.109375 C 4.078125 0.0859375 3.503906 0.160156 3.015625 0.109375 C 2.535156 0.0546875 2.15625 -0.160156 1.875 -0.546875 C 1.601562 -0.929688 1.46875 -1.46875 1.46875 -2.15625 L 1.46875 -4.9375 L 0.265625 -5 L 0.265625 -5.609375 L 1.53125 -5.609375 L 1.625 -7.359375 Z M 2.390625 -7.359375 "/></g></g></g><g fill="#ffffff" fill-opacity="1"><g transform="translate(171.304693, 77.000471)"><g><path d="M 5.9375 -5.21875 L 5.9375 -1.53125 C 5.9375 -1.351562 5.9375 -1.222656 5.9375 -1.140625 C 5.945312 -1.066406 5.972656 -0.984375 6.015625 -0.890625 C 6.054688 -0.804688 6.125 -0.75 6.21875 -0.71875 C 6.320312 -0.695312 6.453125 -0.695312 6.609375 -0.71875 L 6.609375 -0.015625 C 5.648438 0.140625 5.171875 -0.179688 5.171875 -0.984375 L 5.171875 -1.1875 C 5.015625 -0.769531 4.742188 -0.453125 4.359375 -0.234375 C 3.984375 -0.0234375 3.5625 0.078125 3.09375 0.078125 C 2.28125 0.078125 1.648438 -0.203125 1.203125 -0.765625 C 0.753906 -1.335938 0.53125 -2.039062 0.53125 -2.875 C 0.550781 -3.78125 0.847656 -4.484375 1.421875 -4.984375 C 1.992188 -5.492188 2.75 -5.75 3.6875 -5.75 C 4.425781 -5.738281 5.175781 -5.5625 5.9375 -5.21875 Z M 5.046875 -2.875 L 5.046875 -4.671875 C 4.585938 -4.890625 4.113281 -5 3.625 -5 C 2.976562 -5 2.457031 -4.8125 2.0625 -4.4375 C 1.675781 -4.0625 1.476562 -3.539062 1.46875 -2.875 C 1.46875 -2.257812 1.625 -1.753906 1.9375 -1.359375 C 2.257812 -0.960938 2.703125 -0.765625 3.265625 -0.765625 C 3.828125 -0.765625 4.265625 -0.957031 4.578125 -1.34375 C 4.890625 -1.726562 5.046875 -2.238281 5.046875 -2.875 Z M 4.09375 -6.859375 L 3.390625 -6.859375 L 2.515625 -7.953125 L 2.515625 -8.046875 L 3.28125 -8.34375 L 4.09375 -6.9375 Z M 4.09375 -6.859375 "/></g></g></g><g fill="#ffffff" fill-opacity="1"><g transform="translate(181.326728, 77.000471)"><g><path d="M 0.359375 -5.078125 L 0.34375 -5.671875 C 0.820312 -5.785156 1.203125 -5.753906 1.484375 -5.578125 C 1.773438 -5.410156 1.921875 -5.113281 1.921875 -4.6875 C 2.242188 -5.394531 2.898438 -5.75 3.890625 -5.75 C 4.609375 -5.75 5.164062 -5.523438 5.5625 -5.078125 C 5.957031 -4.640625 6.15625 -4.066406 6.15625 -3.359375 L 6.15625 -1.234375 C 6.164062 -0.984375 6.210938 -0.8125 6.296875 -0.71875 C 6.378906 -0.625 6.566406 -0.597656 6.859375 -0.640625 L 6.859375 0 C 6.316406 0.101562 5.910156 0.0664062 5.640625 -0.109375 C 5.367188 -0.285156 5.234375 -0.65625 5.234375 -1.21875 L 5.234375 -3.359375 C 5.234375 -3.847656 5.082031 -4.242188 4.78125 -4.546875 C 4.488281 -4.847656 4.109375 -5 3.640625 -5 C 3.171875 -5 2.773438 -4.84375 2.453125 -4.53125 C 2.140625 -4.21875 1.984375 -3.8125 1.984375 -3.3125 L 1.984375 0 L 1.0625 0 L 1.0625 -4.03125 C 1.0625 -4.0625 1.0625 -4.109375 1.0625 -4.171875 C 1.0625 -4.285156 1.0625 -4.367188 1.0625 -4.421875 C 1.0625 -4.484375 1.054688 -4.550781 1.046875 -4.625 C 1.046875 -4.707031 1.039062 -4.765625 1.03125 -4.796875 C 1.019531 -4.835938 1.003906 -4.878906 0.984375 -4.921875 C 0.960938 -4.972656 0.929688 -5.003906 0.890625 -5.015625 C 0.859375 -5.035156 0.816406 -5.050781 0.765625 -5.0625 C 0.710938 -5.082031 0.648438 -5.085938 0.578125 -5.078125 C 0.515625 -5.078125 0.441406 -5.078125 0.359375 -5.078125 Z M 0.359375 -5.078125 "/></g></g></g><g fill="#ffffff" fill-opacity="1"><g transform="translate(188.428587, 77.000471)"><g><path d="M 5.9375 -5.21875 L 5.9375 -1.53125 C 5.9375 -1.351562 5.9375 -1.222656 5.9375 -1.140625 C 5.945312 -1.066406 5.972656 -0.984375 6.015625 -0.890625 C 6.054688 -0.804688 6.125 -0.75 6.21875 -0.71875 C 6.320312 -0.695312 6.453125 -0.695312 6.609375 -0.71875 L 6.609375 -0.015625 C 5.648438 0.140625 5.171875 -0.179688 5.171875 -0.984375 L 5.171875 -1.1875 C 5.015625 -0.769531 4.742188 -0.453125 4.359375 -0.234375 C 3.984375 -0.0234375 3.5625 0.078125 3.09375 0.078125 C 2.28125 0.078125 1.648438 -0.203125 1.203125 -0.765625 C 0.753906 -1.335938 0.53125 -2.039062 0.53125 -2.875 C 0.550781 -3.78125 0.847656 -4.484375 1.421875 -4.984375 C 1.992188 -5.492188 2.75 -5.75 3.6875 -5.75 C 4.425781 -5.738281 5.175781 -5.5625 5.9375 -5.21875 Z M 5.046875 -2.875 L 5.046875 -4.671875 C 4.585938 -4.890625 4.113281 -5 3.625 -5 C 2.976562 -5 2.457031 -4.8125 2.0625 -4.4375 C 1.675781 -4.0625 1.476562 -3.539062 1.46875 -2.875 C 1.46875 -2.257812 1.625 -1.753906 1.9375 -1.359375 C 2.257812 -0.960938 2.703125 -0.765625 3.265625 -0.765625 C 3.828125 -0.765625 4.265625 -0.957031 4.578125 -1.34375 C 4.890625 -1.726562 5.046875 -2.238281 5.046875 -2.875 Z M 5.046875 -2.875 "/></g></g></g><g fill="#ffffff" fill-opacity="1"><g transform="translate(195.425325, 77.000471)"><g><path d="M 0.46875 -1.59375 L 1.359375 -1.59375 C 1.378906 -1.257812 1.546875 -1.007812 1.859375 -0.84375 C 2.179688 -0.675781 2.550781 -0.59375 2.96875 -0.59375 C 3.382812 -0.59375 3.75 -0.679688 4.0625 -0.859375 C 4.375 -1.035156 4.539062 -1.285156 4.5625 -1.609375 C 4.5625 -1.910156 4.441406 -2.117188 4.203125 -2.234375 C 3.972656 -2.359375 3.566406 -2.460938 2.984375 -2.546875 C 2.710938 -2.578125 2.484375 -2.609375 2.296875 -2.640625 C 2.109375 -2.679688 1.898438 -2.738281 1.671875 -2.8125 C 1.453125 -2.882812 1.269531 -2.96875 1.125 -3.0625 C 0.988281 -3.164062 0.867188 -3.300781 0.765625 -3.46875 C 0.671875 -3.644531 0.625 -3.847656 0.625 -4.078125 C 0.601562 -4.617188 0.820312 -5.03125 1.28125 -5.3125 C 1.75 -5.601562 2.304688 -5.75 2.953125 -5.75 C 3.597656 -5.75 4.148438 -5.609375 4.609375 -5.328125 C 5.078125 -5.046875 5.304688 -4.648438 5.296875 -4.140625 L 4.421875 -4.140625 C 4.421875 -4.421875 4.273438 -4.640625 3.984375 -4.796875 C 3.703125 -4.953125 3.359375 -5.03125 2.953125 -5.03125 C 2.546875 -5.03125 2.195312 -4.953125 1.90625 -4.796875 C 1.613281 -4.640625 1.472656 -4.410156 1.484375 -4.109375 C 1.492188 -3.847656 1.613281 -3.660156 1.84375 -3.546875 C 2.082031 -3.441406 2.488281 -3.347656 3.0625 -3.265625 C 3.320312 -3.234375 3.519531 -3.203125 3.65625 -3.171875 C 3.800781 -3.148438 3.984375 -3.113281 4.203125 -3.0625 C 4.421875 -3.007812 4.585938 -2.945312 4.703125 -2.875 C 4.828125 -2.800781 4.957031 -2.707031 5.09375 -2.59375 C 5.226562 -2.488281 5.320312 -2.351562 5.375 -2.1875 C 5.425781 -2.019531 5.453125 -1.828125 5.453125 -1.609375 C 5.453125 -1.066406 5.210938 -0.644531 4.734375 -0.34375 C 4.253906 -0.0390625 3.664062 0.117188 2.96875 0.140625 C 2.28125 0.140625 1.703125 0.00390625 1.234375 -0.265625 C 0.765625 -0.546875 0.507812 -0.988281 0.46875 -1.59375 Z M 0.46875 -1.59375 "/></g></g></g><g fill="#ffffff" fill-opacity="1"><g transform="translate(201.370797, 77.000471)"><g><path d="M 6.109375 -3.921875 L 5.234375 -3.921875 C 5.085938 -4.253906 4.859375 -4.507812 4.546875 -4.6875 C 4.234375 -4.863281 3.890625 -4.953125 3.515625 -4.953125 C 2.953125 -4.953125 2.460938 -4.765625 2.046875 -4.390625 C 1.640625 -4.015625 1.4375 -3.492188 1.4375 -2.828125 C 1.4375 -2.171875 1.640625 -1.65625 2.046875 -1.28125 C 2.460938 -0.90625 2.945312 -0.71875 3.5 -0.71875 C 3.894531 -0.71875 4.253906 -0.816406 4.578125 -1.015625 C 4.898438 -1.222656 5.132812 -1.515625 5.28125 -1.890625 L 6.171875 -1.890625 C 6.003906 -1.253906 5.671875 -0.765625 5.171875 -0.421875 C 4.671875 -0.078125 4.109375 0.09375 3.484375 0.09375 C 2.691406 0.09375 2 -0.164062 1.40625 -0.6875 C 0.8125 -1.207031 0.515625 -1.925781 0.515625 -2.84375 C 0.515625 -3.769531 0.816406 -4.488281 1.421875 -5 C 2.035156 -5.519531 2.742188 -5.773438 3.546875 -5.765625 C 4.148438 -5.742188 4.6875 -5.578125 5.15625 -5.265625 C 5.625 -4.953125 5.941406 -4.503906 6.109375 -3.921875 Z M 6.109375 -3.921875 "/></g></g></g><g fill="#ffffff" fill-opacity="1"><g transform="translate(207.982063, 77.000471)"><g><path d="M 6.46875 -2.828125 C 6.46875 -2.359375 6.378906 -1.929688 6.203125 -1.546875 C 6.035156 -1.171875 5.8125 -0.863281 5.53125 -0.625 C 5.257812 -0.394531 4.945312 -0.210938 4.59375 -0.078125 C 4.238281 0.046875 3.875 0.109375 3.5 0.109375 C 3.125 0.109375 2.757812 0.046875 2.40625 -0.078125 C 2.050781 -0.210938 1.734375 -0.394531 1.453125 -0.625 C 1.179688 -0.863281 0.957031 -1.171875 0.78125 -1.546875 C 0.613281 -1.921875 0.53125 -2.347656 0.53125 -2.828125 C 0.53125 -3.304688 0.613281 -3.734375 0.78125 -4.109375 C 0.957031 -4.492188 1.179688 -4.800781 1.453125 -5.03125 C 1.734375 -5.269531 2.050781 -5.453125 2.40625 -5.578125 C 2.757812 -5.710938 3.125 -5.78125 3.5 -5.78125 C 3.875 -5.78125 4.238281 -5.710938 4.59375 -5.578125 C 4.945312 -5.453125 5.257812 -5.269531 5.53125 -5.03125 C 5.8125 -4.800781 6.035156 -4.492188 6.203125 -4.109375 C 6.378906 -3.734375 6.46875 -3.304688 6.46875 -2.828125 Z M 1.75 -4.015625 C 1.550781 -3.679688 1.453125 -3.285156 1.453125 -2.828125 C 1.453125 -2.367188 1.550781 -1.972656 1.75 -1.640625 C 1.957031 -1.304688 2.210938 -1.0625 2.515625 -0.90625 C 2.816406 -0.75 3.144531 -0.671875 3.5 -0.671875 C 3.851562 -0.671875 4.179688 -0.75 4.484375 -0.90625 C 4.785156 -1.0625 5.035156 -1.304688 5.234375 -1.640625 C 5.441406 -1.972656 5.546875 -2.367188 5.546875 -2.828125 C 5.546875 -3.285156 5.441406 -3.679688 5.234375 -4.015625 C 5.035156 -4.347656 4.785156 -4.585938 4.484375 -4.734375 C 4.179688 -4.890625 3.851562 -4.96875 3.5 -4.96875 C 3.144531 -4.96875 2.816406 -4.890625 2.515625 -4.734375 C 2.210938 -4.585938 1.957031 -4.347656 1.75 -4.015625 Z M 1.75 -4.015625 "/></g></g></g><g fill="#ffffff" fill-opacity="1"><g transform="translate(214.96711, 77.000471)"><g><path d="M 0.46875 -1.59375 L 1.359375 -1.59375 C 1.378906 -1.257812 1.546875 -1.007812 1.859375 -0.84375 C 2.179688 -0.675781 2.550781 -0.59375 2.96875 -0.59375 C 3.382812 -0.59375 3.75 -0.679688 4.0625 -0.859375 C 4.375 -1.035156 4.539062 -1.285156 4.5625 -1.609375 C 4.5625 -1.910156 4.441406 -2.117188 4.203125 -2.234375 C 3.972656 -2.359375 3.566406 -2.460938 2.984375 -2.546875 C 2.710938 -2.578125 2.484375 -2.609375 2.296875 -2.640625 C 2.109375 -2.679688 1.898438 -2.738281 1.671875 -2.8125 C 1.453125 -2.882812 1.269531 -2.96875 1.125 -3.0625 C 0.988281 -3.164062 0.867188 -3.300781 0.765625 -3.46875 C 0.671875 -3.644531 0.625 -3.847656 0.625 -4.078125 C 0.601562 -4.617188 0.820312 -5.03125 1.28125 -5.3125 C 1.75 -5.601562 2.304688 -5.75 2.953125 -5.75 C 3.597656 -5.75 4.148438 -5.609375 4.609375 -5.328125 C 5.078125 -5.046875 5.304688 -4.648438 5.296875 -4.140625 L 4.421875 -4.140625 C 4.421875 -4.421875 4.273438 -4.640625 3.984375 -4.796875 C 3.703125 -4.953125 3.359375 -5.03125 2.953125 -5.03125 C 2.546875 -5.03125 2.195312 -4.953125 1.90625 -4.796875 C 1.613281 -4.640625 1.472656 -4.410156 1.484375 -4.109375 C 1.492188 -3.847656 1.613281 -3.660156 1.84375 -3.546875 C 2.082031 -3.441406 2.488281 -3.347656 3.0625 -3.265625 C 3.320312 -3.234375 3.519531 -3.203125 3.65625 -3.171875 C 3.800781 -3.148438 3.984375 -3.113281 4.203125 -3.0625 C 4.421875 -3.007812 4.585938 -2.945312 4.703125 -2.875 C 4.828125 -2.800781 4.957031 -2.707031 5.09375 -2.59375 C 5.226562 -2.488281 5.320312 -2.351562 5.375 -2.1875 C 5.425781 -2.019531 5.453125 -1.828125 5.453125 -1.609375 C 5.453125 -1.066406 5.210938 -0.644531 4.734375 -0.34375 C 4.253906 -0.0390625 3.664062 0.117188 2.96875 0.140625 C 2.28125 0.140625 1.703125 0.00390625 1.234375 -0.265625 C 0.765625 -0.546875 0.507812 -0.988281 0.46875 -1.59375 Z M 0.46875 -1.59375 "/></g></g></g><g fill="#ffffff" fill-opacity="1"><g transform="translate(220.912583, 77.000471)"><g><path d="M 2.390625 -7.359375 L 2.390625 -5.609375 L 4.453125 -5.609375 L 4.453125 -4.9375 L 2.390625 -4.9375 L 2.390625 -2.1875 C 2.390625 -1.488281 2.59375 -1.019531 3 -0.78125 C 3.40625 -0.550781 3.945312 -0.570312 4.625 -0.84375 L 4.734375 -0.109375 C 4.078125 0.0859375 3.503906 0.160156 3.015625 0.109375 C 2.535156 0.0546875 2.15625 -0.160156 1.875 -0.546875 C 1.601562 -0.929688 1.46875 -1.46875 1.46875 -2.15625 L 1.46875 -4.9375 L 0.265625 -5 L 0.265625 -5.609375 L 1.53125 -5.609375 L 1.625 -7.359375 Z M 2.390625 -7.359375 "/></g></g></g><g fill="#ffffff" fill-opacity="1"><g transform="translate(225.830154, 77.000471)"><g><path d="M 5.578125 -1.046875 L 5.609375 -0.3125 C 5.066406 -0.0507812 4.414062 0.0859375 3.65625 0.109375 C 2.644531 0.117188 1.851562 -0.160156 1.28125 -0.734375 C 0.707031 -1.316406 0.457031 -2.109375 0.53125 -3.109375 C 0.59375 -3.929688 0.890625 -4.578125 1.421875 -5.046875 C 1.953125 -5.515625 2.617188 -5.757812 3.421875 -5.78125 C 3.847656 -5.78125 4.238281 -5.71875 4.59375 -5.59375 C 4.945312 -5.476562 5.25 -5.273438 5.5 -4.984375 C 5.75 -4.691406 5.859375 -4.332031 5.828125 -3.90625 C 5.816406 -3.539062 5.6875 -3.226562 5.4375 -2.96875 C 5.195312 -2.71875 4.921875 -2.539062 4.609375 -2.4375 C 4.304688 -2.34375 3.976562 -2.285156 3.625 -2.265625 C 2.644531 -2.265625 1.90625 -2.453125 1.40625 -2.828125 C 1.382812 -2.109375 1.578125 -1.5625 1.984375 -1.1875 C 2.390625 -0.8125 2.960938 -0.625 3.703125 -0.625 C 4.367188 -0.644531 4.992188 -0.785156 5.578125 -1.046875 Z M 1.484375 -3.53125 C 1.710938 -3.351562 2.007812 -3.21875 2.375 -3.125 C 2.738281 -3.03125 3.097656 -2.984375 3.453125 -2.984375 C 3.828125 -2.984375 4.160156 -3.054688 4.453125 -3.203125 C 4.753906 -3.359375 4.914062 -3.601562 4.9375 -3.9375 C 4.976562 -4.289062 4.835938 -4.5625 4.515625 -4.75 C 4.191406 -4.9375 3.828125 -5.03125 3.421875 -5.03125 C 2.921875 -5.03125 2.5 -4.898438 2.15625 -4.640625 C 1.8125 -4.390625 1.585938 -4.019531 1.484375 -3.53125 Z M 1.484375 -3.53125 "/></g></g></g><g clip-path="url(#c7f5a21680)"><g clip-path="url(#9316d6b50c)"><path fill="#ffffff" d="M 0 0.0507812 L 79.066406 0.0507812 L 79.066406 93.015625 L 0 93.015625 Z M 0 0.0507812 " fill-opacity="1" fill-rule="nonzero"/></g></g><g clip-path="url(#105cfb15f0)"><g clip-path="url(#5315eb542f)"><path fill="#ffffff" d="M 0 0.0507812 L 79.066406 0.0507812 L 79.066406 93.015625 L 0 93.015625 Z M 0 0.0507812 " fill-opacity="1" fill-rule="nonzero"/></g></g><g clip-path="url(#5a051437ef)"><g clip-path="url(#b151a4b5f7)"><path fill="#ffffff" d="M 0 0.0507812 L 79.066406 0.0507812 L 79.066406 93.015625 L 0 93.015625 Z M 0 0.0507812 " fill-opacity="1" fill-rule="nonzero"/></g></g><g clip-path="url(#8f2abe4032)"><g clip-path="url(#0c924353b1)"><path fill="#ffffff" d="M 0 0.0507812 L 79.066406 0.0507812 L 79.066406 93.015625 L 0 93.015625 Z M 0 0.0507812 " fill-opacity="1" fill-rule="nonzero"/></g></g></svg>